<svg xmlns="http://www.w3.org/2000/svg" height="768" preserveAspectRatio="none" style="display: block;" version="1.1" viewBox="0 0 2048 1170" width="1344">
<path d="M 0 0 L 2048 0 L 2048 1170 L 0 1170 L 0 0 z" fill="rgb(247,248,243)" transform="translate(0,0)"></path>
<path d="M 912.47 457.853 C 909.101 457.944 905.473 458.132 902.12 457.985 C 873.661 456.736 850.313 430.311 848.838 402.549 C 847.92 386.739 853.458 371.232 864.183 359.58 C 874.792 347.722 889.708 340.606 905.599 339.823 C 942.904 338.123 966.125 365.609 966.978 401.38 C 1004.43 384.962 1051.72 394.242 1078.53 425.231 C 1086.06 431.978 1100.42 462.454 1098 473.056 C 1094.16 489.879 1090.04 506.548 1088.71 526.375 C 1094.7 532.048 1107.29 541.332 1104.32 549.821 C 1101.82 552.573 1098.08 552.663 1094.27 553.307 C 1090.63 553.744 1087.48 553.466 1084.96 555.408 C 1081.99 562.53 1079.96 569.685 1077.19 576.741 C 1070.52 593.764 1054.57 614.416 1034.57 614.674 L 1032.68 615.963 C 1031.54 622.121 1031.56 643.688 1031.39 651.005 C 1031.53 653.561 1031.33 657.702 1032.75 659.54 C 1042.43 662.564 1051.13 663.094 1060.56 665.47 C 1086.45 671.999 1119.16 688.169 1139.93 704.942 C 1154.09 696.712 1166.99 692.921 1182.15 687.223 C 1183 686.905 1183.88 686.021 1184.29 685.16 C 1186.12 674.163 1191.08 658.113 1195.29 645.982 C 1203.23 624.958 1206.18 593.439 1221.67 576.933 C 1228.44 569.724 1260.66 575.769 1270.15 577.522 C 1285.21 580.303 1313.03 580.4 1325.67 587.138 C 1337.38 598.31 1335.1 609.088 1330.78 623.625 C 1325.82 640.319 1320.37 656.862 1315.57 673.608 C 1349.1 708.169 1356.29 738.377 1337.99 783.658 C 1328.52 807.103 1319.02 831.784 1309.78 855.402 C 1318.78 862.549 1337.44 878.975 1336.9 890.858 C 1335.34 925.214 1316.36 966.903 1300.88 997.277 C 1275.37 1047.32 1245.5 1075.55 1190.99 1087.97 C 1183.12 1067.53 1170.41 1037.5 1164.3 1017.59 C 1152.52 979.164 1145.9 902.335 1150.67 862.55 C 1163.36 935.031 1179.31 1010.85 1193.09 1083.51 C 1207.41 1080.33 1220.01 1076.36 1232.88 1069.11 C 1286.97 1038.64 1315.89 963.553 1331.84 906.768 C 1313.17 908.302 1306.33 905.917 1289.99 897.56 C 1257.87 878.35 1245.71 863.504 1225.23 833.903 C 1223.97 837.683 1222.63 841.434 1221.2 845.152 C 1217.5 854.671 1184.06 936.364 1179.77 938.262 C 1179.8 930.045 1205.68 872.534 1210.47 861.211 C 1201.91 848.967 1193.41 836.68 1184.98 824.351 C 1179.95 818.204 1170.74 822.861 1160.84 808.113 C 1153.84 817.697 1148.29 828.177 1141.67 837.978 C 1131.6 852.885 1116.5 863.82 1102.39 874.727 C 1111.8 891.957 1117.53 903.744 1118.4 923.696 C 1113.86 933.529 1108.16 941.187 1101.75 949.852 C 1062.75 1002.56 1015.35 1054.95 957.018 1086.19 C 899.563 1111.98 852.79 1069.8 821.909 1024.59 C 775.115 956.076 744.21 861.423 756.517 778.387 C 765.725 716.257 814.629 675.777 874.113 664.084 C 881.248 662.592 905.846 659.965 909.932 656.901 C 928.673 642.844 936.372 624.691 942.765 603.022 C 932.946 600.52 926.493 598.897 919.437 590.793 C 914.324 584.882 911.781 577.176 912.37 569.383 C 913.114 559.602 918.056 552.601 925.285 546.456 C 924.12 545.209 922.999 543.921 921.924 542.596 C 916.665 535.992 916.574 526.464 917.481 518.414 C 916.918 517.446 916.366 516.472 915.825 515.491 C 904.77 495.394 906.417 478.592 912.47 457.853 z" fill="rgb(20,35,28)" transform="translate(0,0)"></path>
<path d="M 1113.47 925.345 C 1082.83 980.592 992.263 1078.72 928.857 1090.48 C 879.881 1099.57 828.62 1032.31 808.37 995.795 C 740.884 874.11 712.555 682.995 899.019 663.885 C 922.954 686.359 983.293 701.259 1014.74 687.161 C 1025.18 682.481 1029.1 674.534 1032.43 664.331 C 1073.57 668.919 1103 684.133 1136.74 706.66 C 1102.42 728.982 1086.41 771.825 1065.79 805.575 C 1063.98 808.549 1050.95 820.142 1047.64 820.753 C 1046.53 818.799 1046.21 818.299 1044.82 816.535 C 1039.91 819.262 1010.68 841.975 1005.4 846.239 C 983.495 863.924 956.542 882.548 935.493 900.842 C 928.762 887.766 879.878 787.363 876.086 785.041 L 877.483 786.24 L 875.949 784.784 C 877.238 796.223 925.028 890.038 932.639 903.07 C 919.286 913.271 893.761 931.754 882.644 942.397 L 883.011 943.106 C 896.045 938.547 945.98 897.056 960.464 885.78 L 1043.34 822.063 C 1059.27 861.084 1077.97 900.846 1113.47 925.345 z" fill="rgb(247,248,243)" transform="translate(0,0)"></path>
<path d="M 1048.81 825.357 C 1067.18 811.884 1069.01 806.839 1080.22 787.606 C 1092.31 766.855 1104.7 741.169 1121.3 723.883 C 1140.88 703.482 1173.87 691.507 1201.42 688.273 C 1204.59 687.907 1206.29 689.346 1208.25 691.431 C 1208.66 693.315 1209.54 698.439 1211.68 698.877 C 1222.34 701.054 1223.66 695.286 1226.15 687 C 1228.26 688.126 1228.14 689.063 1229.34 691.594 C 1228.31 695.985 1227.81 694.215 1223.95 698.488 L 1224.3 701.272 C 1220.65 702.619 1212.19 703.441 1207.88 704.094 C 1192.24 706.464 1176.22 710.002 1162.87 718.832 L 1163.03 720.864 C 1166.27 720.643 1169.64 719.078 1172.55 717.671 C 1187.6 710.396 1202.45 708.001 1219.01 706.384 C 1219.65 712.541 1219.25 715.187 1225.77 717.767 C 1231.24 719.935 1236.72 716.568 1238.25 711.163 L 1238.01 707.862 L 1238.99 707.446 C 1240.77 710.157 1241.01 710.523 1241.2 713.739 C 1239.55 715.764 1236.76 719.217 1234.44 720.245 C 1219.27 726.973 1171.98 729.032 1162.84 744.793 L 1164.73 746.34 C 1169.37 744.779 1177.78 738.31 1181.98 736.774 C 1192.54 732.91 1206.45 730.472 1217.59 728.233 C 1218.41 736.018 1217.76 738.636 1225.67 741.653 C 1229.07 741.066 1232.45 740.845 1235.05 738.61 C 1236.38 734.525 1235.18 731.304 1236.96 729.026 C 1240.78 731.892 1239.77 736.358 1239.62 740.905 L 1231.99 743.464 L 1227.45 746.292 C 1215.96 748.617 1167.31 757.282 1166.74 771.256 L 1168.08 771.514 C 1175.56 764.481 1199.13 753.397 1209.09 754.576 C 1210.62 758.238 1211.79 762.308 1214.85 764.634 C 1221.84 765.871 1224.89 757.647 1226.46 752.228 L 1225.96 755.46 L 1227.28 755.291 L 1227.49 761.884 C 1201.35 775.701 1189.31 774.879 1165.24 798.667 C 1163.24 800.624 1160.29 803.354 1158.51 805.362 C 1150.42 815.123 1144.85 827.528 1137.52 837.474 C 1123.63 856.31 1098.85 872.116 1079.7 885.804 C 1067.09 864.681 1058.15 848.495 1048.81 825.357 z" fill="rgb(205,235,221)" transform="translate(0,0)"></path>
<path d="M 1053.1 441.446 C 1063.61 462.276 1072.95 469.793 1090.39 484.207 C 1088.09 498.849 1087.04 513.126 1085.08 527.705 C 1090.24 532.323 1103.32 540.865 1099.59 547.698 C 1095.92 550.447 1089.51 550.749 1084.77 551.4 L 1082.49 551.624 C 1080.37 554.661 1078.69 562.766 1077.24 566.945 C 1070.79 585.504 1057.34 607.533 1036.49 611.143 C 1034.88 611.417 1033.27 611.668 1031.65 611.896 C 1013.47 607.749 984.301 589.655 971.662 576.356 C 972.51 571.219 972.289 563.858 970.229 559.165 C 961.528 539.341 944.321 537.889 927.171 544.359 C 922.167 537.199 919.134 532.548 920.058 523.138 C 920.628 516.886 923.715 511.135 928.61 507.204 C 943.245 495.478 958.195 504.402 968.044 516.934 C 977.481 509.171 983.621 503.837 986.603 491.735 C 1021.97 485.949 1039.02 475.605 1053.1 441.446 z" fill="rgb(247,248,243)" transform="translate(0,0)"></path>
<path d="M 1055.15 508.533 C 1060.02 510.951 1060.37 528.184 1065.14 534.031 C 1069.13 538.937 1058.57 542.261 1054.65 543.866 C 1045.8 541.947 1061.83 537.328 1062.94 536.897 C 1059.01 528.514 1054.85 517.846 1055.15 508.533 z" fill="rgb(20,35,28)" transform="translate(0,0)"></path>
<path d="M 1026.11 545.452 C 1030.16 547.325 1028.54 547.805 1029.13 551.988 C 1030.79 563.529 1042.6 569.197 1052.99 564.504 C 1053.84 564.118 1055.54 565.701 1056.04 566.114 C 1041.8 576.192 1024.32 563.927 1026.11 545.452 z" fill="rgb(20,35,28)" transform="translate(0,0)"></path>
<path d="M 937.706 517.799 C 943.517 519.34 952.514 523.909 954.148 530.185 C 950.285 528.857 938.342 522.247 937.706 517.799 z" fill="rgb(20,35,28)" transform="translate(0,0)"></path>
<path d="M 1021.28 489.98 C 1023.3 489.89 1034.41 489.99 1032.69 494.317 C 1032.59 494.585 1032.36 494.789 1032.08 494.868 C 1030.82 495.242 1027.64 493.556 1026.28 493.03 C 1021.04 492.893 1019.82 495.885 1017.42 495.993 C 1012.05 496.235 1020.97 490.211 1021.28 489.98 z" fill="rgb(20,35,28)" transform="translate(0,0)"></path>
<path d="M 1068.25 493.911 C 1086.7 495.086 1080.37 504.008 1078.4 499.6 C 1073.87 497.208 1073.86 496.724 1068.56 498.188 C 1062.08 499.975 1065.64 495.981 1068.25 493.911 z" fill="rgb(20,35,28)" transform="translate(0,0)"></path>
<path d="M 1299.62 670.166 C 1298 672.401 1295.78 674.569 1296.6 677.347 C 1299.99 688.877 1310.5 689.655 1315.62 679.08 C 1339.28 701.51 1350.69 733.044 1340.51 765.471 C 1333.41 788.076 1322.81 809.674 1314.72 831.948 C 1310.45 842.827 1295.4 887.014 1290.97 893.685 C 1272.64 882.42 1258.69 871.68 1245.2 855.066 C 1248.59 848.304 1252.08 837.48 1254.7 830.064 C 1285.11 821.707 1274.28 795.621 1288.02 772.384 C 1292.32 776.575 1300.06 784.699 1305.43 786.686 L 1304.9 784.911 L 1303.4 785.392 L 1304.07 783.727 C 1300.88 779.176 1294.66 773.214 1290.62 769.081 C 1280.73 759.61 1272.88 753.901 1268.34 740.962 L 1270.02 739.785 L 1272.71 739.74 C 1276.67 759.063 1289.2 747.193 1293.85 746.326 C 1295.55 746.01 1315.38 767.25 1318.34 767.634 C 1314.74 752.865 1282.23 735.107 1271.1 724.892 C 1266.49 720.667 1267.13 714.568 1271.55 710.53 C 1271.08 718.544 1273.6 725.41 1284.08 724.922 C 1288.23 724.729 1288.81 720.289 1290.97 717.287 C 1302.63 721.029 1326.91 745.83 1329.27 746.06 C 1332.18 730.458 1268.18 709.164 1273.75 691.493 C 1276.2 689.246 1275.87 688.807 1278.8 688.409 C 1278.23 690.671 1277.82 692.593 1277.4 694.887 C 1278.62 699.963 1283.3 704.444 1288.69 704.141 C 1292.69 702.596 1294.48 698.942 1297.08 695.307 C 1307.02 698.09 1326.32 715.932 1335.38 722.955 L 1336.88 722.562 C 1338.39 715.495 1297.53 693.474 1291.21 681.112 C 1292.67 673.907 1292.94 673.327 1299.62 670.166 z" fill="rgb(247,248,243)" transform="translate(0,0)"></path>
<path d="M 969.582 585.608 C 983.224 610.068 999.146 637.922 1023.61 652.871 L 1026.91 654.45 C 1028.39 658.482 1028.02 664.057 1028.01 668.475 C 1027.36 669.809 1026.65 671.118 1025.9 672.399 C 1005.35 706.906 930.97 681.081 904.488 664.8 C 925.189 652.768 944.134 627.287 945.637 602.947 C 946.301 602.504 946.645 602.288 947.414 602.01 C 958.397 598.032 962.725 594.569 969.582 585.608 z" fill="rgb(247,248,243)" transform="translate(0,0)"></path>
<path d="M 937.51 544.608 C 952.194 541.913 966.291 551.606 969.031 566.282 C 971.772 580.958 962.122 595.085 947.455 597.871 C 932.723 600.67 918.52 590.968 915.767 576.228 C 913.015 561.487 922.76 547.314 937.51 544.608 z" fill="rgb(242,165,26)" transform="translate(0,0)"></path>
<path d="M 939.383 559.607 C 945.613 557.859 952.101 561.393 954.01 567.575 C 955.919 573.758 952.553 580.335 946.422 582.403 C 942.313 583.789 937.775 582.837 934.57 579.915 C 931.365 576.994 929.997 572.564 930.997 568.344 C 931.997 564.125 935.208 560.78 939.383 559.607 z" fill="rgb(20,35,28)" transform="translate(0,0)"></path>
<path d="M 938.635 563.582 C 942.988 561.422 948.268 563.208 950.416 567.568 C 952.564 571.927 950.762 577.202 946.397 579.337 C 942.049 581.464 936.8 579.671 934.661 575.329 C 932.522 570.988 934.3 565.734 938.635 563.582 z" fill="rgb(247,248,243)" transform="translate(0,0)"></path>
<path d="M 1188.69 822.785 C 1200.1 823.59 1212.95 825.986 1224.24 826.007 C 1221.13 835.634 1216.25 848.069 1212.53 857.342 C 1206.99 850.224 1193.03 830.567 1188.69 822.785 z" fill="rgb(247,248,243)" transform="translate(0,0)"></path>
<path d="M 1227.14 826.521 C 1232.19 827.198 1247.52 828.854 1251.6 830.321 C 1247.98 837.685 1245.77 844.231 1242.8 851.752 C 1238.57 846.388 1228.09 833.001 1227.14 826.521 z" fill="rgb(247,248,243)" transform="translate(0,0)"></path>
<path d="M 1226.94 728.255 C 1236.82 728.36 1237.35 733.398 1229.77 738.699 C 1219.5 737.229 1216.07 730.685 1226.94 728.255 z" fill="rgb(247,248,243)" transform="translate(0,0)"></path>
<path d="M 1222.88 705.093 C 1230.79 704.757 1240.52 702.827 1232.92 713.919 C 1225.06 715.281 1219.65 714.575 1222.88 705.093 z" fill="rgb(205,235,221)" transform="translate(0,0)"></path>
<path d="M 1301.2 671.057 C 1306.21 672.56 1305.69 672.582 1309.87 675.667 C 1311.14 676.647 1312.42 677.545 1313.72 678.48 C 1305.5 687.708 1295.65 681.568 1301.2 671.057 z" fill="rgb(247,248,243)" transform="translate(0,0)"></path>
<path d="M 1275.62 710.332 C 1285.15 712.123 1287.8 713.946 1284.47 722.645 C 1275.86 721.052 1272.43 718.617 1275.62 710.332 z" fill="rgb(247,248,243)" transform="translate(0,0)"></path>
<path d="M 1216 685.942 C 1224.52 686.822 1225.26 691.533 1218.47 696.251 C 1209.97 694.709 1206.99 690.293 1216 685.942 z" fill="rgb(247,248,243)" transform="translate(0,0)"></path>
<path d="M 1280.97 689.374 C 1290.65 691.093 1293 690.919 1291.3 700.225 C 1282.47 700.606 1280.04 697.891 1280.97 689.374 z" fill="rgb(247,248,243)" transform="translate(0,0)"></path>
<path d="M 1277.61 736.332 C 1286.84 738.991 1289.13 740.744 1285.85 748.532 C 1277.58 746.444 1274.44 744.261 1277.61 736.332 z" fill="rgb(205,235,221)" transform="translate(0,0)"></path>
<path d="M 1221.01 752.253 C 1226.18 753.659 1221.18 758.9 1218.64 760.417 L 1215.95 761.997 C 1210 753.462 1213.75 753.573 1221.01 752.253 z" fill="rgb(247,248,243)" transform="translate(0,0)"></path>
<path d="M 1270.02 739.785 C 1276.55 731.294 1278.78 734.227 1272.71 739.74 L 1270.02 739.785 z" fill="rgb(205,235,221)" transform="translate(0,0)"></path>
<path d="M 704.443 243.341 C 729.408 242.652 755.476 240.304 780.225 241.484 C 801.508 242.499 804.143 264.158 804.806 280.286 C 807.194 338.342 810.486 396.317 812.374 454.383 C 812.834 467.53 807.973 481.992 794.097 486.177 C 789.215 489.198 774.774 489.216 768.913 488.847 L 745.613 489.948 C 745.496 512.168 752.158 549.52 718.817 551.255 C 676.762 553.444 634.588 554.709 592.502 556.433 L 543.01 558.44 C 523.978 559.192 498.66 563.06 493.276 539.776 C 489.372 522.891 490.466 496.211 489.257 478.384 C 489.075 471.009 488.905 464.92 488.128 457.578 C 488.61 449.981 487.232 429.638 486.871 421.507 L 483.709 351.071 C 481.698 308.841 478.173 287.752 528.939 288.477 C 537.925 288.605 549.657 287.637 558.88 287.17 L 558.849 286.301 C 557.349 241.893 589.424 248.136 623.003 246.72 C 647.611 245.624 672.226 244.671 696.846 243.862 L 704.443 243.341 z" fill="rgb(20,35,28)" transform="translate(0,0)"></path>
<path d="M 758.975 244.444 C 789.837 242.728 800.614 246.345 801.889 281.169 C 802.091 286.68 802.381 292.802 802.606 298.367 C 803.211 316.822 804.043 335.268 805.102 353.703 C 785.059 346.752 765.445 347.264 746.919 358.281 C 723.179 372.398 714.073 398.527 691.351 414.249 C 675.509 425.21 666.744 422.451 648.65 424.001 C 635.292 425.321 627.938 433.414 616.649 421.184 C 603.715 404.776 588.025 395.206 567.332 405.087 C 566.79 366.425 564.027 327.432 562.172 288.759 C 561.516 275.093 562.756 255.143 580.651 252.666 C 599.726 250.027 620.902 250.057 640.331 249.278 L 758.975 244.444 z" fill="rgb(247,248,243)" transform="translate(0,0)"></path>
<path d="M 647.384 279.759 C 673.42 276.988 696.832 295.698 699.871 321.704 C 702.909 347.71 684.441 371.313 658.467 374.619 C 641.427 376.787 624.534 369.637 614.23 355.893 C 603.925 342.148 601.797 323.929 608.655 308.179 C 615.514 292.43 630.303 281.577 647.384 279.759 z" fill="rgb(20,35,28)" transform="translate(0,0)"></path>
<path d="M 648.022 282.812 C 672.383 280.426 694.112 298.126 696.703 322.466 C 699.295 346.805 681.78 368.683 657.463 371.481 C 632.853 374.312 610.654 356.539 608.031 331.907 C 605.409 307.274 623.368 285.226 648.022 282.812 z" fill="rgb(242,165,26)" transform="translate(0,0)"></path>
<path d="M 510.563 411.218 C 543.38 408.096 539.61 440.233 566.665 448.886 C 566.962 460.046 566.401 472.961 572.61 482.924 C 587.38 505.23 622.225 492.203 643.454 494.419 C 671.998 497.399 687.31 508.997 714.657 491.224 C 724.719 491.096 732.442 490.839 742.43 489.881 C 742.865 512.081 748.52 533.047 727.565 546.469 C 718.213 549.679 638.685 551.371 623.62 551.985 L 555.203 554.798 C 543.197 555.288 530.911 556.329 518.907 556.081 C 515.29 556.006 512.086 555.412 508.81 553.857 C 503.16 551.175 498.917 545.878 496.854 540.052 C 493.701 531.145 488.845 430.051 492.273 423.121 C 495.715 416.163 503.7 413.404 510.563 411.218 z" fill="rgb(242,165,26)" transform="translate(0,0)"></path>
<path d="M 489.991 420.173 C 488.601 398.811 488.994 371.211 486.851 350.64 C 479.82 283.111 501.27 292.173 559.314 290.606 C 561.991 330.467 563.957 377.3 565.006 417.343 C 565.285 421.592 566.93 439.071 565.501 443.704 C 565.439 443.905 564.827 444.208 564.602 444.168 C 559.346 443.237 554.066 437.041 550.7 433.273 C 548.751 431.092 547.381 429.033 546.125 427.076 C 530.631 406.907 508.766 398.526 489.991 420.173 z" fill="rgb(247,248,243)" transform="translate(0,0)"></path>
<path d="M 565.006 417.343 C 565.285 421.592 566.93 439.071 565.501 443.704 C 565.439 443.905 564.827 444.208 564.602 444.168 C 559.346 443.237 554.066 437.041 550.7 433.273 C 548.751 431.092 547.381 429.033 546.125 427.076 C 553.41 423.062 556.188 419.666 565.006 417.343 z" fill="rgb(242,165,26)" transform="translate(0,0)"></path>
<path d="M 699.925 491.95 C 701.332 491.874 706.196 491.312 707.073 491.714 C 707.205 492.952 702.07 494.815 701.036 495.276 C 686.073 498.916 679.877 498.67 664.593 495.598 C 663.505 495.308 660.438 494.859 659.919 493.652 L 659.979 493.534 C 660.956 492.887 664.497 492.968 665.862 492.924 C 677.531 492.994 688.419 491.963 699.925 491.95 z" fill="rgb(242,165,26)" transform="translate(0,0)"></path>
<path d="M 485.729 892.679 C 495.638 893.447 494.437 896.951 494.761 906.126 L 522.825 906.168 C 522.958 900.132 522.424 896.377 528.242 893.212 C 536.206 893.717 535.781 899.579 535.959 906.002 C 539.713 905.988 562.328 907.592 564.222 905.143 C 564.985 904.157 565.48 899.798 565.898 898.367 C 566.754 895.437 567.814 893.779 570.365 892.174 C 578.173 893.363 577.17 900.329 577.229 906.292 C 587.748 906.193 595.668 904.782 603.087 913.415 C 607.004 925.675 604.737 1016.27 604.595 1035.49 C 604.563 1039.84 599.069 1044.02 595.423 1046.48 C 585.919 1048.37 472.035 1048.46 464.257 1046.68 C 460.749 1045.87 456.756 1042.82 454.926 1039.69 C 452.829 1036.09 452.326 1031.34 452.062 1027.27 C 451.068 1011.92 452.235 995.941 452.284 980.528 C 452.337 963.657 449.602 932.15 453.311 917.663 C 458.259 898.336 472.6 911.113 480.613 905.36 C 481.871 904.457 481.995 901.695 482.201 900.125 C 482.682 896.459 483.203 895.297 485.729 892.679 z" fill="rgb(20,35,28)" transform="translate(0,0)"></path>
<path d="M 455.817 949.228 C 504.583 950.247 552.894 949.275 601.558 949.872 L 601.621 950.628 C 602.434 961.56 603.914 1034.22 598.67 1039.72 C 596.579 1041.91 593.92 1043.2 590.957 1043.65 C 577.508 1045.72 561.438 1044.12 547.733 1044.1 C 523.236 1044.06 498.674 1044.68 474.186 1044.23 C 468.388 1044.13 463.212 1044.26 459.073 1039.47 C 453.38 1032.89 454.764 962.832 455.817 949.228 z" fill="rgb(247,248,243)" transform="translate(0,0)"></path>
<path d="M 455.128 946.544 L 455.228 945.499 C 457.594 919.264 448.411 907.95 482.047 909.24 C 481.874 916.207 480.421 922.841 488.854 924.757 C 496.21 921.932 495.098 915.706 494.839 909.153 L 522.91 909.192 C 522.881 915.364 521.835 922.828 529.519 924.614 C 537.228 921.802 535.904 916.132 535.68 909.086 L 565.028 909.534 C 564.937 916.375 563.643 922.87 571.87 924.816 C 579.138 922.382 578.024 915.763 577.681 909.606 C 591.75 908.858 602.403 908.785 602.12 927.561 C 602.028 933.639 601.942 940.421 601.314 946.444 C 567.791 947.34 532.133 945.654 498.384 946.208 C 484.146 946.442 469.324 945.552 455.128 946.544 z" fill="rgb(247,248,243)" transform="translate(0,0)"></path>
<path d="M 485.927 896.86 C 493.83 892.46 491.164 904.824 491.689 908.233 C 494.446 926.13 482.071 926.347 485.758 907.549 C 485.07 902.573 484.942 901.844 485.927 896.86 z" fill="rgb(205,235,221)" transform="translate(0,0)"></path>
<path d="M 527.889 895.275 C 528.927 895.676 531.829 896.614 532.073 897.67 C 533.089 902.071 532.42 918.128 531.643 921.944 C 530.357 921.604 527.4 921.171 527.097 919.905 C 525.529 913.351 525.9 901.308 527.889 895.275 z" fill="rgb(205,235,221)" transform="translate(0,0)"></path>
<path d="M 568.625 896.228 C 569.587 896.353 573.279 896.665 573.448 897.729 C 574.413 903.81 574.971 917.004 573.094 922.514 C 571.946 922.092 570.089 921.666 569.448 920.569 C 567.207 916.739 568.007 900.058 568.625 896.228 z" fill="rgb(205,235,221)" transform="translate(0,0)"></path>
<path d="M 1674.29 764.068 C 1675.6 764.004 1680.32 763.83 1681.44 764.135 C 1713.29 772.83 1745.26 783.23 1776.48 794.004 C 1795.74 801.078 1788.15 815.947 1782.83 829.632 C 1769.57 863.722 1757.78 898.447 1744.29 932.436 C 1743.02 935.361 1737.53 945.86 1733.92 946.225 C 1719.19 947.715 1696.88 938.282 1683.23 933.779 C 1665.25 929.22 1645.04 921.777 1627.44 915.772 C 1620.26 913.321 1615.85 903.294 1618.11 895.904 C 1624.1 876.269 1632.63 857.526 1638.88 837.813 C 1634.04 839.455 1615.72 843.788 1611.82 842.062 L 1610.53 842.577 C 1613.89 840.184 1631.43 836.45 1637.18 834.935 C 1630.86 830.954 1621.07 824.094 1616.22 818.671 C 1627.78 823.259 1631.25 826.514 1640.57 834.58 C 1648.97 814.558 1655.76 788.642 1666.67 769.972 C 1667.81 768.021 1672.25 765.313 1674.29 764.068 z" fill="rgb(20,35,28)" transform="translate(0,0)"></path>
<path d="M 1674.87 766.955 C 1675.35 766.936 1675.83 766.917 1676.31 766.898 L 1677.09 766.903 C 1695.79 766.909 1753.06 792.001 1774.42 796.804 C 1777.33 797.459 1782.8 801.385 1784.95 803.862 C 1787.61 812.945 1770.55 852.623 1766.35 864.11 L 1748.88 911.959 C 1744.51 923.817 1742.22 936.872 1731.39 943.719 C 1718.12 945.136 1660.96 921.464 1644.54 918.366 C 1638.35 917.197 1625.66 911.673 1621.1 906.935 C 1618.63 898.737 1628.46 875.775 1631.74 866.987 L 1650.31 817.592 C 1655.68 803.384 1661.33 787.847 1667.24 773.801 C 1668.2 771.515 1672.66 768.475 1674.87 766.955 z" fill="rgb(247,248,243)" transform="translate(0,0)"></path>
<path d="M 1671.84 838.423 C 1677.19 838.226 1689.94 837.359 1693.4 840.662 C 1697.2 847.599 1716.06 842.257 1718.05 845.197 C 1725.51 856.267 1735.58 850.562 1740.63 853.196 L 1739.74 855.034 C 1727.16 856.627 1722.24 856.478 1714.28 846.487 C 1703.52 847.077 1698.4 852.94 1692.16 842.009 C 1686.33 841.922 1673.86 843.592 1671.84 838.423 z" fill="rgb(20,35,28)" transform="translate(0,0)"></path>
<path d="M 1694 809.208 C 1711.77 810.406 1695.38 823.07 1710.5 820.996 C 1726.38 818.817 1736.44 823.533 1712.75 824.148 L 1709.98 824.165 C 1696.22 824.185 1702.45 820.659 1698.72 813.311 C 1696.78 809.492 1685.47 816.455 1682.8 814.105 C 1681.87 810.599 1691.54 809.649 1694 809.208 z" fill="rgb(20,35,28)" transform="translate(0,0)"></path>
<path d="M 1745.91 819.744 C 1752.54 822.159 1749.15 823.786 1749.09 828.566 C 1749.5 832.292 1755 830.251 1756.56 831.816 C 1758.44 833.714 1752.37 835.381 1751.54 835.729 C 1746.12 831.28 1747.55 830.386 1741.48 831.136 C 1740.58 831.08 1738.98 830.733 1738.56 829.842 C 1735.56 823.459 1741.96 821.678 1745.91 819.744 z" fill="rgb(20,35,28)" transform="translate(0,0)"></path>
<path d="M 1743.11 823.397 C 1745.35 824.208 1747.62 825.21 1744.23 826.837 C 1743.68 827.005 1742 827.94 1741.62 827.128 C 1741.8 826.021 1742.67 824.49 1743.11 823.397 z" fill="rgb(205,235,221)" transform="translate(0,0)"></path>
<path d="M 1697.6 856.355 C 1697.57 856.361 1704.61 855.151 1702.55 857.557 C 1700.89 859.5 1693.91 859.819 1691.3 860.308 C 1688.32 860.865 1684.48 861.117 1681.24 861.387 C 1679.26 861.895 1677.49 861.994 1675.62 861.097 L 1675.74 859.768 C 1677.3 858.687 1694.52 856.786 1697.6 856.355 z" fill="rgb(20,35,28)" transform="translate(0,0)"></path>
<path d="M 1722.39 895.083 C 1739.4 893.535 1702.4 903.796 1705.22 903.009 C 1704.05 903.41 1702.59 904.04 1701.9 902.631 C 1702.04 899.605 1719.21 895.875 1722.39 895.083 z" fill="rgb(20,35,28)" transform="translate(0,0)"></path>
<path d="M 1482.27 709.14 C 1496.18 708.057 1526.78 722.099 1541.93 725.964 C 1557.08 729.829 1574.01 735.251 1588.87 740.301 C 1593.58 741.901 1598.21 745.703 1599.68 750.431 C 1602.39 757.538 1599.8 762.916 1597.26 769.696 C 1583.59 806.227 1570.05 842.855 1555.96 879.221 C 1553.85 884.647 1549.77 886.154 1544.83 888.038 C 1542.15 888.272 1538.52 888.359 1535.9 887.687 C 1528.4 885.765 1521.01 883.33 1513.63 880.957 C 1489.32 873.131 1464.98 865.351 1440.79 857.147 C 1434.86 855.136 1429.49 852.197 1426.83 846.192 C 1425.11 842.32 1426.59 838.818 1427.41 834.883 C 1431.71 820.155 1437.66 805.75 1443.13 791.393 L 1466.33 729.11 C 1471.09 716.442 1470.28 714.585 1482.27 709.14 z" fill="rgb(20,35,28)" transform="translate(0,0)"></path>
<path d="M 1483.06 712.092 C 1490.9 711.799 1502.29 716.112 1509.94 718.655 C 1534.48 726.815 1559.95 734.27 1584.51 742.107 C 1605.35 748.757 1595.93 764.164 1590.65 778.358 C 1586.73 788.874 1582.55 799.505 1578.55 809.975 C 1565.87 803.887 1558.85 802.954 1545.5 806.321 C 1524.93 815 1516.15 833.631 1490.87 824.413 C 1483.87 821.86 1476.11 820.758 1468.7 817.763 C 1463.02 802.027 1460.96 800.122 1444.79 796.073 C 1453.23 774.201 1460.9 751.886 1469.3 729.998 C 1472.91 720.602 1473.95 716.103 1483.06 712.092 z" fill="rgb(247,248,243)" transform="translate(0,0)"></path>
<path d="M 1499.57 742.773 C 1514.5 739.229 1529.47 748.443 1533.03 763.361 C 1536.59 778.28 1527.4 793.264 1512.48 796.844 C 1497.54 800.43 1482.53 791.215 1478.96 776.271 C 1475.39 761.327 1484.63 746.323 1499.57 742.773 z" fill="rgb(20,35,28)" transform="translate(0,0)"></path>
<path d="M 1500.73 745.811 C 1513.77 742.848 1526.78 750.88 1529.98 763.866 C 1533.17 776.853 1525.37 790.003 1512.44 793.425 C 1503.87 795.693 1494.75 793.161 1488.57 786.802 C 1482.4 780.442 1480.14 771.246 1482.66 762.749 C 1485.18 754.251 1492.09 747.776 1500.73 745.811 z" fill="rgb(242,165,26)" transform="translate(0,0)"></path>
<path d="M 1544.31 88.6955 L 1546.26 89.5832 C 1548.54 96.7664 1551.6 121.697 1552.8 130.936 C 1555.57 152.372 1559.77 175.948 1561.72 197.29 C 1552.09 193.138 1541.93 189.301 1532.13 185.458 C 1515.88 208.272 1499.72 230.823 1478.6 249.393 C 1406.19 313.077 1324.61 324.616 1232.94 319.769 C 1230.89 319.554 1230.24 319.147 1228.4 318.339 C 1228.36 315.587 1234.21 315.098 1236.51 314.724 C 1337.45 298.335 1420.59 248.864 1480.8 165.16 L 1455.74 154.412 C 1484.56 132.262 1515.01 110.332 1544.31 88.6955 z" fill="rgb(20,35,28)" transform="translate(0,0)"></path>
<path d="M 1543.6 92.6909 C 1545.72 98.4683 1548.08 118.886 1549.11 126.194 L 1558.46 192.648 L 1530.81 181.354 C 1501.9 223.929 1474.47 255.537 1428.93 280.741 C 1371.98 312.26 1313.84 319.483 1250.05 317.691 L 1247.26 316.823 L 1247.51 315.958 C 1253.88 314.489 1260.25 313.404 1266.58 311.882 C 1295.59 305.131 1323.74 295.111 1350.49 282.013 C 1400.04 257.402 1456.11 211.02 1485.17 163.415 L 1461.52 153.584 C 1488.83 133.161 1516.38 113.353 1543.6 92.6909 z" fill="rgb(242,165,26)" transform="translate(0,0)"></path>
<path d="M 1513.4 247.219 C 1529.97 247.049 1546.67 246.808 1563.23 246.923 C 1566.95 246.948 1573 247.333 1575.94 249.337 C 1577.66 250.515 1578.28 263.802 1578.29 266.217 C 1578.61 312.36 1578.73 358.485 1578.76 404.625 C 1578.72 428.72 1579.01 454.242 1577.97 478.303 C 1577.83 481.511 1576.35 483.563 1574.22 485.81 C 1564.93 486.881 1517.17 487.492 1510.48 483.427 C 1506.07 473.385 1508.05 348.356 1508.02 329.148 L 1507.93 278.45 C 1507.92 270.23 1507.72 261.338 1508.23 253.11 C 1508.38 250.716 1511.46 248.708 1513.4 247.219 z" fill="rgb(20,35,28)" transform="translate(0,0)"></path>
<path d="M 1514.25 250.173 C 1524.04 249.895 1567.28 248.963 1573.82 251.822 C 1575.93 258.38 1575.29 275.467 1575.28 282.998 L 1575.25 330.086 C 1575.51 363.589 1575.58 397.093 1575.46 430.596 C 1575.41 439.409 1576.7 477.132 1572.73 482.942 C 1563.11 483.092 1520.35 484.336 1514.08 482.157 C 1509.7 474.655 1511.05 442.694 1511.06 432.982 L 1511.16 359.544 C 1511.24 338.566 1511.2 317.587 1511.02 296.609 C 1510.91 283.945 1510.6 270.953 1511.01 258.301 C 1511.16 253.568 1511.61 253.391 1514.25 250.173 z" fill="rgb(247,248,243)" transform="translate(0,0)"></path>
<path d="M 376.774 246.031 C 355.155 210.442 318.192 162.795 344.198 121.081 C 353.43 106.108 368.242 95.4242 385.364 91.3882 C 401.839 87.541 419.171 90.548 433.388 99.7201 C 451.051 111.078 458.362 126.002 462.636 145.644 L 463.623 157.757 C 460.913 187.412 420.241 256.303 400.155 281.307 C 394.826 273.128 387.9 261.749 382.261 254.11 L 376.774 246.031 z" fill="rgb(20,35,28)" transform="translate(0,0)"></path>
<path d="M 390.992 93.2641 C 405.43 91.8537 418.688 94.1384 431.075 101.985 C 445.117 110.988 454.971 125.238 458.438 141.554 C 460.488 150.782 460.497 160.346 458.464 169.577 C 452.269 197.057 418.812 246.816 403.04 271.443 C 402.174 272.785 401.669 273.203 400.588 274.349 L 399.094 273.634 C 381.388 246.922 363.718 220.838 349.238 192.106 C 337.881 169.57 332.155 145.723 346.913 122.744 C 358.247 105.096 371.02 97.669 390.992 93.2641 z" fill="rgb(247,248,243)" transform="translate(0,0)"></path>
<path d="M 392.148 122.78 C 409.391 118.954 426.478 129.805 430.348 147.038 C 434.218 164.272 423.411 181.386 406.188 185.301 C 388.902 189.229 371.711 178.374 367.827 161.078 C 363.943 143.782 374.842 126.619 392.148 122.78 z" fill="rgb(20,35,28)" transform="translate(0,0)"></path>
<path d="M 392.622 125.811 C 402.779 123.527 413.38 126.879 420.378 134.587 C 427.375 142.295 429.689 153.17 426.437 163.059 C 423.184 172.949 414.866 180.326 404.66 182.376 C 389.129 185.494 373.98 175.537 370.683 160.043 C 367.385 144.549 377.168 129.287 392.622 125.811 z" fill="rgb(247,248,243)" transform="translate(0,0)"></path>
<path d="M 528.001 650.302 C 566.235 646.653 600.146 674.791 603.611 713.043 C 607.077 751.294 578.775 785.069 540.508 788.351 C 502.5 791.61 469.003 763.542 465.561 725.55 C 462.119 687.558 490.026 653.927 528.001 650.302 z" fill="rgb(20,35,28)" transform="translate(0,0)"></path>
<path d="M 530.158 653.284 C 566.485 650.859 597.935 678.26 600.51 714.576 C 603.084 750.892 575.813 782.455 539.508 785.179 C 502.991 787.919 471.203 760.454 468.614 723.926 C 466.024 687.398 493.62 655.723 530.158 653.284 z" fill="rgb(247,248,243)" transform="translate(0,0)"></path>
<path d="M 489.486 719.53 C 493.891 717.862 498.853 718.689 502.48 721.696 C 506.106 724.703 507.837 729.426 507.013 734.064 C 506.19 738.702 502.938 742.541 498.498 744.115 C 491.734 746.514 484.299 743.02 481.829 736.281 C 479.359 729.543 482.774 722.072 489.486 719.53 z" fill="rgb(234,194,179)" transform="translate(0,0)"></path>
<path d="M 571.064 719.811 C 577.629 717.143 585.113 720.319 587.755 726.895 C 590.398 733.47 587.193 740.941 580.607 743.558 C 574.057 746.161 566.636 742.977 564.008 736.438 C 561.38 729.898 564.535 722.465 571.064 719.811 z" fill="rgb(234,194,179)" transform="translate(0,0)"></path>
<path d="M 553.991 731.882 C 559.253 737.374 538.051 758.454 514.66 737.874 C 514.21 737.001 512.623 733.987 515.397 733.515 C 516.875 733.263 519.114 737.225 520.53 738.457 C 525.227 742.548 530.451 743.565 536.511 743.009 C 544.604 742.295 549.219 737.621 553.991 731.882 z" fill="rgb(20,35,28)" transform="translate(0,0)"></path>
<path d="M 498.639 702.334 C 504.859 703.981 500.725 707.853 507.14 710.46 C 516.985 714.461 516.232 700.054 521.739 704.413 C 515.286 719.444 500.449 716.99 498.639 702.334 z" fill="rgb(20,35,28)" transform="translate(0,0)"></path>
<path d="M 547.329 702.368 C 554.799 705.737 549.323 711.11 558.991 711.076 C 566.717 711.049 564.993 698.539 570.115 705.199 C 561.768 719.886 547.203 715.029 547.329 702.368 z" fill="rgb(20,35,28)" transform="translate(0,0)"></path>
<path d="M 1487.99 483.974 C 1481.43 488.013 1429.28 487.79 1421.99 482.948 C 1420.98 479.797 1420.23 468.224 1420.46 465.399 C 1421.7 450.694 1418.07 314.236 1422.3 309.036 C 1429.23 304.435 1473.76 306.36 1484.38 306.949 C 1487.49 307.122 1488.72 309.479 1490.23 311.747 C 1491.53 320.407 1491.96 473.779 1490.1 481.501 C 1489.61 482.105 1488.52 483.558 1487.99 483.974 z" fill="rgb(20,35,28)" transform="translate(0,0)"></path>
<path d="M 1335.24 483.87 C 1332.45 480.266 1332.45 475.98 1332.39 471.578 C 1332.08 446.671 1332.19 421.613 1332.21 396.717 L 1332.36 360.991 C 1332.42 339.511 1330.03 335.527 1355.9 336.949 C 1363.71 337.378 1396.18 334.481 1400.36 338.336 C 1401.77 342.339 1403 347.487 1403.06 351.737 C 1403.61 387.853 1402.85 423.985 1403.66 460.109 C 1403.8 466.395 1404.1 477.709 1401.5 483.269 C 1394.42 488.27 1364.5 486.23 1354.45 486.06 C 1349.3 486.85 1339.1 487.515 1335.24 483.87 z" fill="rgb(20,35,28)" transform="translate(0,0)"></path>
<path d="M 1249.12 378.189 C 1258.82 377.713 1307.32 376.056 1312.67 380.703 C 1316.61 392.227 1314.3 462.74 1314.59 479.259 C 1314.65 482.275 1311.8 484.314 1309.5 486.144 C 1298.25 486.167 1256.3 487.623 1248.55 484.517 C 1243.42 479.225 1244.34 459.101 1244.45 451.155 C 1244.73 429.484 1243.64 407.596 1244.93 385.993 C 1245.15 382.278 1246.69 380.543 1249.12 378.189 z" fill="rgb(20,35,28)" transform="translate(0,0)"></path>
<path d="M 1249.35 381.076 C 1259.83 380.561 1302 378.653 1309.33 382.192 C 1309.98 382.503 1309.77 382.338 1310.02 383.149 C 1312.81 392.046 1313.17 475.909 1309.7 482.641 C 1301.6 483.715 1255.97 484.303 1249.6 481.194 C 1245.99 474.026 1246.25 386.575 1249.35 381.076 z" fill="rgb(247,248,243)" transform="translate(0,0)"></path>
<path d="M 1633.19 652.454 C 1641.28 659.116 1615.06 684.528 1660.43 703.889 C 1629.43 701.7 1624.07 714.537 1614.63 741.563 C 1605.76 735.447 1634.34 707.826 1587.9 686.882 C 1597.57 687.166 1602.09 689.034 1612.06 684.309 C 1624.86 678.242 1628.81 664.773 1633.19 652.454 z" fill="rgb(20,35,28)" transform="translate(0,0)"></path>
<path d="M 1628.7 672.868 C 1629.79 674.184 1629.69 674.143 1629.96 675.942 C 1631.75 687.839 1635.51 692.699 1643.71 700.209 C 1630.15 705.189 1626.46 708.011 1619.2 721.105 C 1617 718.633 1619.06 713.591 1616.65 707.94 C 1613.11 699.628 1610.48 697.172 1604.35 690.998 C 1617.74 685.962 1620.25 684.736 1628.7 672.868 z" fill="rgb(242,165,26)" transform="translate(0,0)"></path>
<path d="M 1585.15 934.592 C 1594.86 945.25 1577.84 965.294 1617.23 973.625 C 1589.68 978.632 1590.63 987.969 1586.41 1013.65 C 1576.03 1005.01 1595.62 983.576 1553.82 972.896 C 1583.32 968.276 1578.41 959.1 1584.95 935.317 L 1585.15 934.592 z" fill="rgb(20,35,28)" transform="translate(0,0)"></path>
<path d="M 1585.31 951.696 C 1587.27 954.012 1587.19 955.275 1588.42 958.196 C 1591.87 966.438 1595.29 968.598 1602.34 973.233 C 1591.74 980.648 1589.93 982.832 1585.96 995.435 C 1578.67 983.414 1585.24 984.299 1568.44 973.352 C 1579.89 966.387 1580.44 964.104 1585.31 951.696 z" fill="rgb(242,165,26)" transform="translate(0,0)"></path>
<path d="M 1610.98 805.37 C 1613.3 807.271 1613.35 807.45 1612.26 810.491 C 1609.42 818.416 1606.86 826.76 1603.59 834.491 C 1599.94 831.383 1609.09 810.421 1610.98 805.37 z" fill="rgb(20,35,28)" transform="translate(0,0)"></path>
<path d="M 1598.61 840.415 C 1598.7 840.465 1598.79 840.518 1598.88 840.565 C 1599.31 840.785 1600.05 841.011 1600.27 841.544 C 1601.25 844.016 1597.74 851.114 1596.79 853.653 C 1592.07 850.133 1596.27 845.024 1598.61 840.415 z" fill="rgb(20,35,28)" transform="translate(0,0)"></path>
<path d="M 1584.75 826.914 C 1589.72 827.107 1589.8 826.612 1592.47 830.859 C 1587.98 830.64 1587.74 830.247 1584.75 826.914 z" fill="rgb(20,35,28)" transform="translate(0,0)"></path>
<metadata><recraft-signature>{"signed_by": "recraft", "signature_b64": "DjLsPrGegb7A6j60dDmCy+lJqzPja5FTGN7vMXnNKkWnmHOZWe2zlCnNg8JBUP53TZYsPvzyi/9UsngcjzjXBQ==", "signing_algo": "Ed25519", "generation_timestamp": 1783309083, "identifier": "909925a8-0ca0-4d19-92bb-49918fa293c4"}</recraft-signature></metadata></svg>