<svg xmlns="http://www.w3.org/2000/svg" height="896" preserveAspectRatio="none" style="display: block;" version="1.1" viewBox="0 0 2048 1509" width="1216">
<path d="M 0 0 L 81.1342 0 L 134.156 0 L 184.197 0 L 186.647 0 L 262.876 0 L 265.721 0 L 411.315 0 L 415.589 0 L 559.849 0 L 619.96 0 L 869.342 0 L 876.188 0 L 1023.14 0 L 1027.64 0 L 1056.59 0 L 1062.67 0 L 1346.01 0 L 1715.93 0 L 1719.19 0 L 1762.22 0 L 1884.45 0 L 1887.32 0 L 2038.59 0 L 2048 0 L 2048 170.683 L 2048 178.987 L 2048 527.247 L 2048 530.613 L 2048 704.669 L 2048 713.394 L 2048 801.821 L 2048 804.819 L 2048 1509 L 1791.84 1509 L 1789.44 1509 L 1496.52 1509 L 1490.83 1509 L 1448.55 1509 L 1445.46 1509 L 1336.99 1509 L 1334.16 1509 L 1054.13 1509 L 1048.19 1509 L 992.343 1509 L 986.321 1509 L 739.856 1509 L 737.124 1509 L 721.647 1509 L 716.964 1509 L 581.241 1509 L 527.286 1509 L 187.721 1509 L 185.317 1509 L 0 1509 L 0 1112.12 L 0 1108.29 L 0 1077.47 L 0 1073.5 L 0 391.585 L 0 387.469 L 0 156.507 L 0 147.945 L 0 0 z" fill="rgb(247,248,243)" transform="translate(0,0)"></path>
<path d="M 0 0 L 81.1342 0 L 134.156 0 L 184.197 0 L 186.647 0 L 262.876 0 L 265.721 0 L 411.315 0 L 415.589 0 L 559.849 0 L 619.96 0 L 869.342 0 L 876.188 0 L 1023.14 0 L 1027.64 0 L 1056.59 0 L 1062.67 0 L 1346.01 0 L 1715.93 0 L 1719.19 0 L 1762.22 0 L 1884.45 0 L 1887.32 0 L 2038.59 0 L 2048 0 L 2048 170.683 L 2048 178.987 L 2048 527.247 L 2048 530.613 L 2048 704.669 L 2048 713.394 L 2048 801.821 L 2048 804.819 C 1985.98 796.058 1934.72 779.722 1882.51 743.449 C 1802.62 687.953 1747.41 601.59 1721.76 508.475 C 1714.2 481.032 1711.39 456.594 1706.43 429.122 C 1722.55 427.392 1738.44 425.155 1754.63 424.244 C 1825.65 420.252 1889.56 433.828 1953.82 463.708 C 1939.46 433.703 1919.04 403.181 1902.86 373.95 C 1896.42 362.308 1887.46 354.878 1877.59 346.234 C 1830.19 305.543 1786.55 273.477 1724.01 259.886 C 1657.29 244.589 1589.42 262.844 1528.04 289.241 C 1465.38 316.186 1414.27 328.057 1345.76 323.344 C 1291.97 319.643 1197.56 305.163 1149.67 335.641 L 1144.53 335.185 C 1147.69 332.624 1159.63 327.925 1163.98 326.248 C 1223.73 303.215 1288.55 318.063 1350.33 320.752 C 1374.24 321.793 1402.54 321.368 1426.23 317.877 C 1493.19 308.009 1548.41 271.366 1614.76 257.76 C 1693.93 241.524 1760.75 258.527 1827.53 302.403 L 1829.34 300.94 C 1790.41 266.406 1750.35 232.872 1706.35 204.962 C 1688.82 193.842 1670.71 184.299 1653.03 173.519 C 1642.07 163.455 1615.36 148.173 1602.01 141.095 C 1523.58 99.493 1441.53 78.1509 1352.91 81.1658 C 1237.78 85.0823 1146.54 139.976 1058.12 208.514 C 1001.54 252.369 949.07 295.92 881.772 323.556 C 872.722 327.272 837.672 341.192 829.053 341.836 C 883.518 257.763 921.494 192.748 953.794 96.0028 C 941.217 116.645 928.877 137.882 914.776 157.479 C 881.024 204.387 837.558 246.761 792.287 282.492 C 717.39 341.604 635.188 380.996 551.733 425.242 C 427.819 490.94 305.999 579.46 215.906 687.743 C 207.449 697.908 171.429 744.575 169.444 755.244 C 168.383 767.057 164.66 780.374 162.356 792.138 C 138.558 913.639 94.6353 1027.71 0 1112.12 L 0 1108.29 L 0 1077.47 L 0 1073.5 L 0 391.585 L 0 387.469 L 0 156.507 L 0 147.945 L 0 0 z" fill="rgb(20,35,28)" transform="translate(0,0)"></path>
<path d="M 1715.5 431.265 C 1823.41 415.284 1927.05 439.46 2015.38 504.49 C 2026.52 512.689 2037.24 521.861 2048 530.613 L 2048 704.669 L 2048 713.394 L 2048 801.821 C 1983.2 792.894 1930.09 774.767 1876.52 735.732 C 1802.58 681.854 1749.95 598.486 1725.38 510.975 C 1718.1 485.047 1714.4 460.886 1710.29 434.371 C 1710.79 432.882 1711.05 432.883 1712.09 431.563 L 1715.5 431.265 z" fill="rgb(247,248,243)" transform="translate(0,0)"></path>
<path d="M 1715.5 431.265 C 1823.41 415.284 1927.05 439.46 2015.38 504.49 C 2026.52 512.689 2037.24 521.861 2048 530.613 L 2048 704.669 C 1968.67 595.539 1873.04 513.339 1753.49 451.146 C 1744.57 446.502 1722.58 437.001 1715.5 431.265 z" fill="rgb(247,248,243)" transform="translate(0,0)"></path>
<path d="M 1710.29 434.371 C 1710.79 432.882 1711.05 432.883 1712.09 431.563 L 1715.5 431.265 C 1722.58 437.001 1744.57 446.502 1753.49 451.146 C 1873.04 513.339 1968.67 595.539 2048 704.669 L 2048 713.394 C 1993.64 624.627 1889.07 535.576 1800.64 482.024 C 1771.73 464.521 1740.63 449.199 1710.29 434.371 z" fill="rgb(68,198,177)" transform="translate(0,0)"></path>
<path d="M 0 391.585 C 49.5987 436.526 96.9917 476.892 155.209 510.835 C 163.715 515.794 179.676 525.959 188.084 529.048 L 188.914 545.839 C 189.08 552.135 189.277 553.89 187.404 559.85 C 176.38 610.152 165.798 660.549 155.66 711.037 C 133.034 825.463 117.63 936.718 40.529 1029.87 C 29.3602 1043.36 13.7264 1062.48 0 1073.5 L 0 391.585 z" fill="rgb(247,248,243)" transform="translate(0,0)"></path>
<path d="M 1884.45 0 L 1887.32 0 L 2038.59 0 L 2048 0 L 2048 170.683 L 2048 178.987 L 2048 527.247 C 2045.07 525.293 2044.12 524.218 2041.6 521.693 C 2037.73 518.853 2036.91 518.149 2033.63 514.67 C 2007.23 494.079 1986.87 480.834 1957.43 465.249 C 1949.2 445.204 1927.17 412.413 1916.58 389.983 C 1913.61 386.132 1903.74 370.448 1902.06 366.009 C 1899.45 362.333 1897.2 357.444 1895.16 353.357 C 1857.4 239.1 1853.69 116.332 1884.45 0 z" fill="rgb(247,248,243)" transform="translate(0,0)"></path>
<path d="M 1884.45 0 L 1887.32 0 L 2038.59 0 C 2032.82 22.5761 2026.13 44.4321 2014.62 64.7831 C 2000.84 89.1334 1981.73 110.209 1964.33 132.024 C 1931.65 172.989 1909.91 221.525 1905.44 273.988 C 1902.41 309.467 1905.48 344.472 1914.03 378.985 C 1914.87 382.373 1916.13 386.596 1916.58 389.983 C 1913.61 386.132 1903.74 370.448 1902.06 366.009 C 1899.45 362.333 1897.2 357.444 1895.16 353.357 C 1857.4 239.1 1853.69 116.332 1884.45 0 z" fill="rgb(91,107,97)" transform="translate(0,0)"></path>
<path d="M 1884.45 0 L 1887.32 0 C 1864.43 95.8834 1859.36 183.817 1879.18 281.116 C 1883.08 300.286 1888.45 318.524 1893.75 337.305 C 1895.29 342.784 1901.58 361.611 1902.06 366.009 C 1899.45 362.333 1897.2 357.444 1895.16 353.357 C 1857.4 239.1 1853.69 116.332 1884.45 0 z" fill="rgb(247,248,243)" transform="translate(0,0)"></path>
<path d="M 2048 178.987 L 2048 527.247 C 2045.07 525.293 2044.12 524.218 2041.6 521.693 C 2037.35 511.856 2033.25 499.941 2030.18 489.662 C 1998.68 383.984 1995.08 278.523 2048 178.987 z" fill="rgb(247,248,243)" transform="translate(0,0)"></path>
<path d="M 2033.63 514.67 C 2033.46 511.208 2025.55 487.474 2024.02 482.249 C 1993.13 376.418 1993.56 269.032 2048 170.683 L 2048 178.987 C 1995.08 278.523 1998.68 383.984 2030.18 489.662 C 2033.25 499.941 2037.35 511.856 2041.6 521.693 C 2037.73 518.853 2036.91 518.149 2033.63 514.67 z" fill="rgb(68,198,177)" transform="translate(0,0)"></path>
<path d="M 619.96 0 L 869.342 0 L 876.188 0 L 1023.14 0 C 996.609 26.9471 985.273 38.7311 964.89 70.8881 C 932.156 123.983 785.253 176.81 724.381 190.775 C 658.679 205.848 588.901 209.269 524.806 233.608 L 522.203 234.53 C 520.153 235.278 509.648 237.508 506.933 238.144 C 569.642 171.182 601.439 88.3173 619.96 0 z" fill="rgb(91,107,97)" transform="translate(0,0)"></path>
<path d="M 619.96 0 L 869.342 0 C 837.869 19.5964 805.397 37.5395 772.057 53.7562 C 687.219 95.6936 607.745 128.771 543.908 203.943 C 539.185 209.506 523.853 227.795 521.658 233.063 L 522.203 234.53 C 520.153 235.278 509.648 237.508 506.933 238.144 C 569.642 171.182 601.439 88.3173 619.96 0 z" fill="rgb(91,107,97)" transform="translate(0,0)"></path>
<path d="M 869.342 0 L 876.188 0 C 843.858 19.9783 810.586 38.3897 776.487 55.1703 C 717.123 84.7548 655.613 110.304 603.452 152.255 C 575.417 174.803 544.813 203.434 524.806 233.608 L 522.203 234.53 L 521.658 233.063 C 523.853 227.795 539.185 209.506 543.908 203.943 C 607.745 128.771 687.219 95.6936 772.057 53.7562 C 805.397 37.5395 837.869 19.5964 869.342 -1.13687e-13 z" fill="rgb(247,248,243)" transform="translate(0,0)"></path>
<path d="M 415.589 0 L 559.849 0 C 539.42 138.398 464.969 220.369 356.208 298.684 C 271.802 359.463 218.004 434.346 193.355 536.817 C 190.329 531.334 192.57 516.014 191.905 507.707 C 191.756 485.734 196.668 451.532 199.891 429.466 C 223.668 266.66 308.21 122.167 415.589 0 z" fill="rgb(247,248,243)" transform="translate(0,0)"></path>
<path d="M 265.721 0 L 411.315 0 C 386.349 30.5857 361.304 60.1836 338.499 92.6874 C 276.776 180.659 228.663 278.183 205.327 383.489 C 195.163 429.352 190.429 476.463 188.192 523.145 C 180.039 505.96 172.273 473.266 168.276 454.245 C 135.092 296.356 159.995 139.068 258.354 9.15374 L 265.721 0 z" fill="rgb(247,248,243)" transform="translate(0,0)"></path>
<path d="M 1346.01 0 L 1715.93 0 C 1765.04 77.33 1799.79 164.032 1833.91 248.89 C 1839.58 263.007 1847.94 281.046 1852.4 295.287 C 1840.62 282.509 1829.49 267.837 1817.97 254.636 C 1737.73 162.648 1636.04 88.67 1522.2 44.0272 C 1462.41 20.5804 1403.4 9.55232 1339.66 4.67389 L 1346.01 0 z" fill="rgb(247,248,243)" transform="translate(0,0)"></path>
<path d="M 1762.22 0 L 1884.45 0 C 1853.69 116.332 1857.4 239.1 1895.16 353.357 C 1889.81 348.712 1864.69 310.736 1858.45 301.931 C 1825.86 224.763 1799 150.39 1761.6 74.4305 C 1762.49 73.3964 1762.46 73.1058 1762.29 71.5512 C 1759.49 47.0662 1759.86 24.4832 1762.22 0 z" fill="rgb(91,107,97)" transform="translate(0,0)"></path>
<path d="M 188.324 569.732 C 189.584 568.866 189.609 568.955 190.914 569.757 C 193.433 607.955 184.123 647.355 178.279 685.146 C 157.262 821.037 130.35 963.44 36.9651 1070.33 C 25.4126 1083.56 12.7577 1096.22 0 1108.29 L 0 1077.47 C 12.2187 1068.26 30.5903 1046.88 40.0433 1035.15 C 68.3963 1000.68 91.0797 961.913 107.242 920.307 C 130.74 861.112 145.061 780.544 157.591 716.456 C 167.183 667.413 177.428 618.501 188.324 569.732 z" fill="rgb(93,238,227)" transform="translate(0,0)"></path>
<path d="M 186.647 0 L 262.876 0 L 256.369 8.19756 C 209.361 65.6049 181.564 131.342 164.683 203.055 C 162.396 202.303 162.743 202.14 161.985 199.716 C 161.6 132.362 169.888 65.2376 186.647 0 z" fill="rgb(93,238,227)" transform="translate(0,0)"></path>
<path d="M 81.1342 0 L 134.156 0 C 149.439 41.1299 154.273 61.5632 162.961 104.164 C 163.605 114.602 161.794 137.725 159.921 148.359 C 154.849 137.481 150.277 122.836 144.804 110.831 C 127.511 72.9029 106.921 32.7047 81.1342 0 z" fill="rgb(93,238,227)" transform="translate(0,0)"></path>
<path d="M 1719.19 0 L 1762.22 0 C 1759.86 24.4832 1759.49 47.0662 1762.29 71.5512 C 1762.46 73.1058 1762.49 73.3964 1761.6 74.4305 C 1748.26 49.149 1735.61 23.5929 1719.19 0 z" fill="rgb(93,238,227)" transform="translate(0,0)"></path>
<path d="M 0 147.945 C 3.00098 152.176 9.13163 176.955 11.6827 184.025 C 16.5781 197.592 21.3412 210.443 26.9662 223.837 C 57.7401 297.257 96.3857 367.123 142.225 432.209 C 149.441 442.295 159.446 457.062 167.348 466.17 C 168.426 469.433 169.632 472.805 170.422 476.136 C 164.727 470.444 145.354 442.519 140.22 435.085 C 81.5446 350.11 29.689 255.637 0 156.507 L 0 147.945 z" fill="rgb(247,248,243)" transform="translate(0,0)"></path>
<path d="M 191.248 541.175 C 190.59 534.573 190.775 513.964 191.905 507.707 C 192.57 516.014 190.329 531.334 193.355 536.817 C 193.007 539.259 193.421 540.192 191.248 541.175 z" fill="rgb(205,235,221)" transform="translate(0,0)"></path>
<path d="M 1834.62 305.547 C 1843.98 312.794 1841.27 314.495 1833.3 306.859 L 1834.62 305.547 z" fill="rgb(91,107,97)" transform="translate(0,0)"></path>
<path d="M 189.849 562.624 C 191.526 564.296 191.02 567.524 190.914 569.757 C 189.609 568.955 189.584 568.866 188.324 569.732 C 188.715 566.931 189.017 565.294 189.849 562.624 z" fill="rgb(91,107,97)" transform="translate(0,0)"></path>
<path d="M 161.985 199.716 C 162.743 202.14 162.396 202.303 164.683 203.055 C 163.147 216.301 161.931 204.163 161.985 199.716 z" fill="rgb(22,138,173)" transform="translate(0,0)"></path>
<path d="M 1829.34 300.94 C 1831.11 302.489 1832.82 304.031 1834.62 305.547 L 1833.3 306.859 C 1831.37 305.21 1829.5 303.945 1827.53 302.403 L 1829.34 300.94 z" fill="rgb(205,235,221)" transform="translate(0,0)"></path>
<path d="M 933.276 118.318 L 937.064 119.061 C 921.208 144.045 903.303 170.003 883.875 192.326 C 821.069 264.489 737.263 323.538 653.281 368.657 C 578.221 408.983 508.235 442.463 436.986 490.237 C 355.476 544.137 279.999 607.405 216.682 682.053 C 200.114 701.585 187.494 722.185 172.013 741.934 C 181.28 694.777 185.048 642.016 195.449 595.873 C 211.791 523.372 258.072 451.862 310.894 400.222 C 362.618 350.121 425.003 312.366 493.382 289.784 C 538.394 274.604 583.998 265.049 630.613 256.317 C 739.782 235.869 854.724 201.583 933.276 118.318 z" fill="rgb(247,248,243)" transform="translate(0,0)"></path>
<path d="M 933.276 118.318 C 934.484 117.072 937.867 113.161 939.269 112.921 C 940.356 113.447 937.407 118.354 937.064 119.061 L 933.276 118.318 z" fill="rgb(205,235,221)" transform="translate(0,0)"></path>
<path d="M 1246.02 718.907 C 1253.85 702.822 1264.19 691.042 1281.54 684.938 C 1296.9 679.527 1313.78 680.477 1328.44 687.578 C 1342.45 694.341 1354.41 706.767 1359.52 721.582 C 1364.36 735.924 1363.26 751.607 1356.45 765.129 C 1352.39 773.091 1346.1 780.515 1339.13 786.095 L 1340.5 792.214 C 1369 791.314 1365.25 811.29 1370.91 832.089 C 1403.45 849.654 1418.55 870.186 1427.98 905.774 C 1441.79 957.936 1448.77 1012.98 1457.88 1066.17 C 1459.93 1078.14 1454.49 1082.54 1445.83 1088.87 C 1447.24 1102.49 1451.42 1122.23 1453.93 1136.21 L 1470.23 1225.21 C 1472.55 1237.67 1477.62 1261.37 1478.47 1273.21 C 1488.17 1276.31 1499.75 1279.69 1509.18 1283.12 C 1529.74 1245.67 1556.4 1199.89 1579.63 1164.67 C 1576.64 1149.01 1573.04 1131.23 1570.83 1115.55 C 1574.97 1114.53 1579.8 1113.99 1582.51 1111.1 C 1583.31 1107.96 1583.06 1107.72 1581.91 1104.53 C 1578.61 1101.85 1563.38 1104.44 1558.54 1103.09 C 1511.85 1090.1 1517.43 1024.32 1541.62 995.005 C 1554.22 979.561 1572.48 969.79 1592.32 967.864 C 1606.29 966.55 1624.09 969.795 1635.92 977.437 C 1652.51 986.395 1685.59 1020.51 1692.36 1036.75 C 1711.78 1078.14 1670.3 1088.03 1638.22 1080.91 L 1640.34 1096.72 L 1653.05 1093.39 C 1656.45 1108.17 1660.16 1127.39 1664.5 1141.45 C 1679.63 1150.3 1693.37 1168.08 1704.01 1182.34 C 1757.71 1254.31 1800.15 1337.88 1825.06 1424.19 C 1834.87 1458.16 1820.59 1474.4 1786.37 1476.28 C 1788.45 1487.14 1790.28 1498.05 1791.84 1509 L 1789.44 1509 L 1496.52 1509 L 1490.83 1509 L 1448.55 1509 L 1445.46 1509 L 1336.99 1509 L 1334.16 1509 L 1054.13 1509 L 1048.19 1509 L 992.343 1509 L 986.321 1509 L 739.856 1509 L 737.124 1509 L 721.647 1509 L 716.964 1509 L 581.241 1509 L 527.286 1509 L 187.721 1509 L 185.317 1509 C 188.33 1498.16 195.636 1481.02 200.268 1470.7 C 234.086 1395.34 279.594 1336.49 339.847 1280.97 C 333.533 1279.15 327.312 1277.02 321.207 1274.59 C 293.061 1263.46 270.635 1241.39 259.061 1213.42 C 247.755 1185.98 247.943 1155.14 259.583 1127.83 C 284.617 1069.82 352.093 1045.72 408.996 1071.34 C 409.066 1062.67 409.503 1055.07 411.925 1046.7 C 416.79 1029.52 428.287 1014.98 443.881 1006.29 C 474.239 989.698 512.659 997.531 532.139 1026.56 C 534.128 1029.53 535.907 1034 538.955 1034.9 C 539.828 1034.5 540.863 1034.03 542.058 1033.48 C 543.674 1025.84 541.407 1016.87 542.533 1008.55 C 543.616 1000.95 545.982 993.595 549.53 986.792 C 557.966 970.465 571.971 958.114 589.561 952.556 C 608.188 946.706 628.379 948.529 645.658 957.62 C 692.306 982.325 693.358 1050.81 648.064 1076.79 C 638.306 1082.39 631.302 1084.84 620.674 1087.89 C 630.861 1129.38 613.069 1173.33 564.089 1162.83 C 558.445 1175.04 552.753 1187.3 548.201 1199.95 C 589.787 1216.58 601.425 1259.39 613.881 1296.91 C 618.485 1310.41 623.506 1323.77 628.937 1336.95 C 639.84 1363.8 648.324 1377.94 664.601 1401.41 C 679.654 1394.68 705.55 1377.6 719.976 1368.11 C 719.851 1335.37 716.407 1305.19 736.904 1277.33 C 750.811 1258.43 770.823 1244.38 793.973 1238.92 C 798.829 1237.78 810.649 1237.34 817.1 1236.28 C 819.255 1234.08 818.548 1235.4 818.851 1231.97 C 816.556 1229.44 813.014 1228.45 809.935 1226.91 C 783.7 1213.77 765.866 1188.03 762.353 1159.27 C 759.336 1136.15 765.797 1112.79 780.266 1094.51 C 797.248 1073.39 818.783 1063.45 845.174 1060.76 C 846.094 1029.52 841.727 968.533 848.3 940.761 C 851.477 927.123 857.843 914.434 866.876 903.734 C 884.131 883.386 906.346 873.784 932.614 871.748 L 932.845 869.637 C 936.387 837.768 946.988 812.886 972.903 792.391 C 994.888 775.153 1022.91 767.534 1050.59 771.266 C 1069.25 773.615 1096.34 787.174 1113.73 796.14 C 1118.63 798.672 1135.41 821.394 1140.04 827.232 C 1155.41 846.489 1170.62 865.866 1185.68 885.361 C 1188.85 889.027 1192.9 893.168 1194.76 897.495 C 1201.05 897.909 1254.99 860.287 1264.89 854.354 C 1270.2 843.935 1271.99 842.404 1281.11 834.647 C 1276.91 816.932 1276.43 808.205 1294 799.099 C 1291.43 798.348 1288.87 797.539 1286.34 796.672 C 1250.89 784.594 1233.35 755.179 1246.02 718.907 z" fill="rgb(20,35,28)" transform="translate(0,0)"></path>
<path d="M 935.296 874.12 C 940.93 790.432 1016.97 749.295 1090.83 787.763 C 1072.94 788.381 1049.3 790.163 1039.97 808.987 C 1038.29 812.368 1038.66 819.391 1038.66 823.336 L 991.602 826.981 C 994.697 863.809 998.694 904.336 1000.35 940.991 C 1030.83 939.18 1065.41 937.243 1095.74 934.098 C 1093.12 905.629 1091.86 876.902 1089.09 848.497 C 1115.39 876.437 1130.56 868.675 1153.32 912.021 L 1155.38 916.242 C 1166.07 946.897 1163.59 972.473 1163 1004.85 C 1193.21 1005.06 1216.13 1012.53 1236.9 1036.02 C 1253.71 1055.04 1257.56 1071.96 1257.36 1096.6 L 1257.12 1130.26 C 1280.75 1131.45 1300.01 1130.3 1322.16 1140.12 C 1292.5 1141.46 1255.17 1139.8 1225.16 1138.88 C 1225.04 1177.5 1219.37 1220.4 1218.13 1259.53 C 1236.34 1260.24 1331.06 1261.69 1334.43 1272.42 C 1343.34 1300.75 1356.72 1379.96 1363.47 1411.46 C 1343.65 1440.43 1339.34 1474.58 1334.16 1509 L 1054.13 1509 L 1048.19 1509 L 992.343 1509 L 986.321 1509 L 739.856 1509 C 739.697 1504.68 739.69 1503.91 738.234 1499.87 C 740.67 1493.86 761.165 1478.97 766.819 1472.33 C 785.349 1450.55 822.47 1424.47 792.282 1395.27 C 800.868 1387.35 817.151 1367.86 827.302 1367.12 C 839.101 1366.26 888.564 1335.96 894.644 1339.12 C 897.298 1344.58 895.964 1385.42 895.871 1394.26 C 918.731 1394.46 941.592 1394.45 964.452 1394.23 L 964.109 1309.39 C 948.284 1309.59 932.456 1309.45 916.636 1308.97 C 924.587 1278.1 932.087 1240.26 938.829 1208.8 C 902.294 1202.12 865.171 1196.66 828.671 1189.63 C 826.14 1202.93 823.327 1216.18 820.232 1229.37 C 742.521 1194.05 745.394 1092.84 827.726 1066.31 C 833.877 1064.33 841.34 1063.72 847.835 1063 L 847.97 998.279 C 847.96 981.61 847.051 958.11 850.579 942.615 C 853.776 928.647 860.277 915.651 869.537 904.716 C 887.28 884.077 908.925 876.066 935.296 874.12 z" fill="rgb(247,248,243)" transform="translate(0,0)"></path>
<path d="M 1003.81 1503.74 C 1018.02 1500.55 1024.04 1500.59 1038.19 1503.68 L 1038.88 1504.04 C 1042.88 1506.08 1044.12 1506.36 1048.19 1509 L 992.343 1509 C 997.073 1506.12 998.376 1505.98 1003.12 1504.03 L 1003.81 1503.74 z" fill="rgb(93,238,227)" transform="translate(0,0)"></path>
<path d="M 1002.24 1501.86 C 1016.43 1497.74 1025.73 1498.06 1039.95 1501.73 C 1045.57 1503.82 1049.12 1505.69 1054.13 1509 L 1048.19 1509 C 1044.12 1506.36 1042.88 1506.08 1038.88 1504.04 L 1038.19 1503.68 C 1024.04 1500.59 1018.02 1500.55 1003.81 1503.74 L 1003.12 1504.03 C 998.376 1505.98 997.073 1506.12 992.343 1509 L 986.321 1509 C 991.586 1505.76 996.302 1503.55 1002.24 1501.86 z" fill="rgb(20,35,28)" transform="translate(0,0)"></path>
<path d="M 887.782 913.013 C 915.405 913.306 943.03 913.414 970.654 913.335 L 970.628 1018.37 C 945.611 1019.78 913.417 1019.02 887.973 1019.12 L 887.782 913.013 z" fill="rgb(20,35,28)" transform="translate(0,0)"></path>
<path d="M 890.306 915.857 L 968.098 915.925 C 967.895 949.087 968.509 982.8 967.825 1015.88 L 890.191 1016.23 L 890.306 915.857 z" fill="rgb(247,248,243)" transform="translate(0,0)"></path>
<path d="M 1117.09 1026.22 L 1207 1026.07 C 1207.43 1055.2 1206.95 1085.94 1206.91 1115.18 C 1176.9 1115.05 1146.9 1114.69 1116.89 1114.09 C 1116.77 1084.8 1116.84 1055.51 1117.09 1026.22 z" fill="rgb(20,35,28)" transform="translate(0,0)"></path>
<path d="M 1119.73 1028.95 L 1204.34 1028.57 L 1204.08 1112.35 L 1119.54 1111.76 L 1119.73 1028.95 z" fill="rgb(247,248,243)" transform="translate(0,0)"></path>
<path d="M 985.934 1406.47 C 1014.86 1406.29 1076.68 1395.86 1079.74 1436.16 C 1080.44 1445.23 1077.43 1454.2 1071.4 1461.01 C 1063.69 1469.69 1056.05 1471.21 1045.12 1471.89 C 1022.99 1472.04 996.008 1473.42 974.224 1470.65 C 960.636 1468.92 949.177 1455.2 948.642 1440.98 C 948.324 1432.13 951.58 1423.53 957.675 1417.11 C 966.243 1408 974.254 1406.78 985.934 1406.47 z" fill="rgb(20,35,28)" transform="translate(0,0)"></path>
<path d="M 978.28 1469.59 C 961.295 1464.79 947.088 1452.23 952.225 1432.83 C 959.756 1403.18 990.17 1409.07 1013.65 1409.14 C 1025.92 1409.18 1045.27 1407.53 1056.38 1411.26 C 1088.31 1421.97 1082.55 1462.45 1050.55 1469.38 C 1046.61 1470.47 981.989 1470.67 978.28 1469.59 z" fill="rgb(68,198,177)" transform="translate(0,0)"></path>
<path d="M 978.28 1469.59 C 981.49 1469.06 997.234 1469.29 1001.2 1469.46 C 1015.42 1470.03 1037.22 1468.14 1050.55 1469.38 C 1046.61 1470.47 981.989 1470.67 978.28 1469.59 z" fill="rgb(30,89,86)" transform="translate(0,0)"></path>
<path d="M 1252.29 1388.19 C 1266.82 1387.55 1310.37 1386.07 1321.42 1390 C 1349.21 1399.87 1346.3 1434.26 1318.02 1445.62 C 1305.83 1446.48 1279.62 1444.5 1269.6 1446.13 C 1224.51 1453.47 1212.64 1399.89 1252.29 1388.19 z" fill="rgb(20,35,28)" transform="translate(0,0)"></path>
<path d="M 1109.98 1427.01 C 1140.41 1426.69 1171.67 1427.05 1202.16 1427.09 C 1202.25 1440.37 1203.23 1478.13 1201.73 1489.94 L 1109.49 1489.91 C 1108.58 1471.72 1109.67 1445.82 1109.98 1427.01 z" fill="rgb(20,35,28)" transform="translate(0,0)"></path>
<path d="M 1112.79 1429.47 L 1199.89 1429.07 C 1200.17 1447.3 1200.36 1469.29 1199.61 1487.35 C 1170.46 1487.48 1141.31 1487.41 1112.17 1487.12 C 1112.26 1467.9 1112.47 1448.69 1112.79 1429.47 z" fill="rgb(68,198,177)" transform="translate(0,0)"></path>
<path d="M 1001.56 1203.92 C 1023.16 1202.85 1041.54 1219.48 1042.63 1241.07 C 1043.72 1262.67 1027.11 1281.06 1005.52 1282.18 C 983.891 1283.3 965.458 1266.66 964.364 1245.03 C 963.271 1223.4 979.933 1204.99 1001.56 1203.92 z" fill="rgb(20,35,28)" transform="translate(0,0)"></path>
<path d="M 995.266 1207.4 C 1014.76 1202.88 1034.27 1214.89 1039.02 1234.33 C 1043.77 1253.78 1031.99 1273.42 1012.61 1278.41 C 999.858 1281.68 986.333 1277.85 977.198 1268.37 C 968.063 1258.9 964.728 1245.24 968.468 1232.62 C 972.207 1220 982.443 1210.37 995.266 1207.4 z" fill="rgb(247,248,243)" transform="translate(0,0)"></path>
<path d="M 1006.05 1299.2 L 1070.96 1299.45 C 1070.96 1320.53 1072.05 1351.5 1070.76 1371.54 C 1070.19 1374.4 1026.58 1373.75 1020.84 1373.6 C 1015.88 1373.7 1010.91 1373.72 1005.95 1373.68 L 1006.05 1299.2 z" fill="rgb(20,35,28)" transform="translate(0,0)"></path>
<path d="M 1125.36 1351.13 C 1140.96 1349.62 1180.62 1348.38 1194.88 1354.44 C 1215.12 1363.05 1212.29 1394.05 1188.76 1400.7 L 1187.49 1400.91 C 1173.55 1403.33 1155.71 1401.34 1141.36 1402.1 C 1127.79 1402.82 1112.09 1400.17 1106.8 1385.32 C 1104.48 1378.74 1104.91 1371.49 1108 1365.23 C 1112 1357.14 1117.25 1353.93 1125.36 1351.13 z" fill="rgb(20,35,28)" transform="translate(0,0)"></path>
<path d="M 1128.15 1353.3 C 1144.61 1353.17 1179.14 1350.38 1193.85 1357.09 C 1212.47 1365.58 1208.05 1393.57 1186.09 1398.84 C 1173.59 1399.98 1129.72 1401.43 1119.65 1395.7 C 1100.59 1384.85 1105.06 1359.86 1128.15 1353.3 z" fill="rgb(93,238,227)" transform="translate(0,0)"></path>
<path d="M 1035.78 955.507 L 1117.76 955.578 L 1117.6 1013.09 C 1106.71 1013.09 1094.1 1013.38 1083.35 1012.9 C 1078.03 1013.55 1060.46 1013.1 1054.66 1012.88 L 1035.23 1013.06 C 1036.39 996.225 1035.8 972.86 1035.78 955.507 z" fill="rgb(20,35,28)" transform="translate(0,0)"></path>
<path d="M 998.722 1042.51 C 1022.86 1042.94 1047.01 1042.98 1071.15 1042.64 C 1071.5 1061.17 1071.5 1080.42 1071.63 1099.02 C 1047.79 1099.59 1021.83 1099.32 997.911 1099.17 C 997.911 1090.73 996.997 1047.04 998.722 1042.51 z" fill="rgb(20,35,28)" transform="translate(0,0)"></path>
<path d="M 1000.06 1045.04 C 1022.94 1044.89 1045.83 1045.39 1068.68 1045.1 C 1068.9 1056.77 1069.61 1085.64 1068.68 1096.46 C 1045.86 1096.49 1023.03 1096.97 1000.2 1096.8 L 1000.06 1045.04 z" fill="rgb(247,248,243)" transform="translate(0,0)"></path>
<path d="M 890.763 1425.53 C 897.892 1425.34 905.025 1425.31 912.155 1425.44 C 912.372 1444.32 912.404 1463.19 912.251 1482.06 L 860.245 1481.84 L 838.926 1481.79 C 838.665 1463.01 838.892 1444.39 838.381 1425.56 C 855.841 1425.67 873.302 1425.66 890.763 1425.53 z" fill="rgb(20,35,28)" transform="translate(0,0)"></path>
<path d="M 841.193 1428.02 L 909.78 1427.84 C 910 1444.45 910.052 1462.92 909.765 1479.46 C 886.99 1478.94 864.019 1479.37 841.214 1479.08 L 841.193 1428.02 z" fill="rgb(247,248,243)" transform="translate(0,0)"></path>
<path d="M 1144.6 1262.35 C 1163.33 1258.29 1181.78 1270.29 1185.66 1289.06 C 1189.55 1307.83 1177.39 1326.17 1158.59 1329.89 C 1140.02 1333.57 1121.96 1321.59 1118.12 1303.05 C 1114.28 1284.52 1126.1 1266.35 1144.6 1262.35 z" fill="rgb(20,35,28)" transform="translate(0,0)"></path>
<path d="M 1148.12 1264.47 C 1165.38 1262.39 1181.12 1274.57 1183.43 1291.81 C 1185.74 1309.05 1173.76 1324.94 1156.55 1327.48 C 1145.22 1329.14 1133.87 1324.59 1126.83 1315.54 C 1119.8 1306.5 1118.18 1294.38 1122.58 1283.8 C 1126.99 1273.23 1136.74 1265.84 1148.12 1264.47 z" fill="rgb(247,248,243)" transform="translate(0,0)"></path>
<path d="M 1049.62 1133.18 C 1060.09 1132.52 1071.04 1132.98 1081.56 1132.63 C 1095 1132.19 1111.59 1132.93 1117.07 1148.08 C 1119.34 1154.32 1118.85 1161.22 1115.72 1167.07 C 1111.83 1174.47 1106.91 1176.95 1099.59 1179.44 C 1086.4 1180.31 1050.33 1182.09 1039.72 1175.8 C 1034.43 1172.71 1030.69 1167.52 1029.42 1161.53 C 1028.07 1155.47 1029.22 1149.12 1032.62 1143.91 C 1037.1 1136.95 1042.12 1134.91 1049.62 1133.18 z" fill="rgb(20,35,28)" transform="translate(0,0)"></path>
<path d="M 1266.94 1290.44 C 1285.14 1287.25 1302.53 1299.27 1305.98 1317.42 C 1309.43 1335.57 1297.67 1353.13 1279.56 1356.84 C 1267.62 1359.29 1255.29 1355.12 1247.28 1345.92 C 1239.28 1336.72 1236.85 1323.93 1240.92 1312.44 C 1244.99 1300.95 1254.94 1292.54 1266.94 1290.44 z" fill="rgb(20,35,28)" transform="translate(0,0)"></path>
<path d="M 1265.98 1293.36 C 1276.97 1290.89 1288.43 1294.55 1295.96 1302.92 C 1303.5 1311.29 1305.93 1323.07 1302.32 1333.74 C 1298.71 1344.4 1289.63 1352.29 1278.56 1354.37 C 1261.87 1357.51 1245.73 1346.69 1242.3 1330.05 C 1238.87 1313.41 1249.4 1297.09 1265.98 1293.36 z" fill="rgb(247,248,243)" transform="translate(0,0)"></path>
<path d="M 917.458 1045.28 C 928.799 1042.62 940.693 1046.26 948.605 1054.81 C 956.517 1063.36 959.229 1075.5 955.705 1086.6 C 952.182 1097.7 942.967 1106.06 931.574 1108.48 C 914.208 1112.17 897.109 1101.19 893.24 1083.86 C 889.37 1066.54 900.172 1049.32 917.458 1045.28 z" fill="rgb(20,35,28)" transform="translate(0,0)"></path>
<path d="M 916.487 1048.38 C 926.757 1045.36 937.856 1048.1 945.547 1055.54 C 953.239 1062.99 956.335 1073.99 953.655 1084.36 C 950.975 1094.72 942.932 1102.84 932.596 1105.62 C 916.865 1109.86 900.654 1100.65 896.241 1084.97 C 891.828 1069.28 900.855 1052.97 916.487 1048.38 z" fill="rgb(93,238,227)" transform="translate(0,0)"></path>
<path d="M 916.917 1139.25 C 933.073 1138.36 949.93 1139.24 966.082 1138.87 C 989.218 1138.35 997.848 1164.35 975.075 1173.12 C 963.84 1173.96 952.733 1173.71 941.111 1173.8 C 928.128 1173.9 901.879 1175.84 902.659 1156.16 C 903.041 1146.52 908.392 1142.21 916.917 1139.25 z" fill="rgb(20,35,28)" transform="translate(0,0)"></path>
<path d="M 915.996 1142.12 C 933.693 1141.88 957.668 1140.11 974.414 1143.29 C 988.215 1145.91 990.323 1163.8 974.264 1170.78 C 962.978 1171.33 951.791 1170.78 939.998 1171.08 C 927.205 1171.4 899.186 1172.21 906.418 1150.89 C 907.75 1146.97 912.46 1144.08 915.996 1142.12 z" fill="rgb(205,235,221)" transform="translate(0,0)"></path>
<path d="M 1146.86 1175.09 C 1152.23 1174.94 1182.34 1173.14 1183.84 1179.99 C 1186.52 1192.26 1185.02 1210.79 1184.62 1223.71 C 1184.53 1226.54 1179.06 1230.55 1176.82 1231.87 C 1153.42 1231.97 1133.23 1237.8 1137.63 1207.5 C 1139.51 1194.56 1131.85 1181.18 1146.86 1175.09 z" fill="rgb(20,35,28)" transform="translate(0,0)"></path>
<path d="M 826.215 1116.26 C 839.882 1112.2 854.245 1120.02 858.244 1133.71 C 862.243 1147.39 854.353 1161.72 840.65 1165.66 C 827.034 1169.57 812.816 1161.74 808.842 1148.14 C 804.868 1134.54 812.634 1120.29 826.215 1116.26 z" fill="rgb(20,35,28)" transform="translate(0,0)"></path>
<path d="M 830.014 1118.22 C 842.561 1116.27 854.326 1124.83 856.325 1137.37 C 858.324 1149.91 849.804 1161.7 837.272 1163.74 C 824.677 1165.8 812.811 1157.23 810.802 1144.63 C 808.793 1132.02 817.406 1120.19 830.014 1118.22 z" fill="rgb(68,198,177)" transform="translate(0,0)"></path>
<path d="M 1084.41 1229.28 C 1095.29 1226.94 1105.99 1233.92 1108.26 1244.81 C 1110.52 1255.71 1103.48 1266.37 1092.57 1268.56 C 1081.75 1270.74 1071.22 1263.77 1068.97 1252.98 C 1066.73 1242.18 1073.62 1231.59 1084.41 1229.28 z" fill="rgb(20,35,28)" transform="translate(0,0)"></path>
<path d="M 1083.15 1232.5 C 1089.1 1230.51 1095.65 1231.89 1100.3 1236.1 C 1104.94 1240.31 1106.95 1246.71 1105.55 1252.82 C 1104.15 1258.93 1099.56 1263.81 1093.54 1265.58 C 1084.48 1268.25 1074.94 1263.16 1072.11 1254.14 C 1069.27 1245.13 1074.18 1235.5 1083.15 1232.5 z" fill="rgb(247,248,243)" transform="translate(0,0)"></path>
<path d="M 509.097 1204.45 C 529.315 1200.81 546.091 1199.48 563.844 1212.31 C 597.975 1236.97 603.695 1279.85 617.782 1316.36 C 630.745 1349.95 642.18 1376.36 664.177 1404.53 C 677.777 1397.94 690.705 1390.16 703.402 1381.98 C 713.494 1375.48 724.105 1366.41 735.642 1362.72 C 740.486 1361.17 745.467 1361.14 750.256 1362.93 C 758.594 1366.05 795.749 1400.8 799.215 1409.59 C 801.949 1416.53 800.723 1424.25 797.675 1430.84 C 793.679 1439.5 786.789 1446.84 780.479 1453.86 C 767.521 1468.29 754.053 1481.84 738.619 1493.63 C 731.575 1499.02 724.041 1503.7 716.964 1509 L 581.241 1509 L 527.286 1509 L 187.721 1509 C 220.534 1423.04 272.638 1341.03 343.724 1281.64 C 389.175 1288.5 418.83 1280.6 456.382 1253.44 C 475.349 1239.72 491.306 1220.15 509.097 1204.45 z" fill="rgb(247,248,243)" transform="translate(0,0)"></path>
<path d="M 463.749 1327 L 464.259 1327.96 C 467.758 1334.63 469.996 1341.67 472.871 1348.58 C 497.222 1407.17 529.037 1470.41 581.241 1509 L 527.286 1509 C 521.251 1500.73 514.289 1491.49 509.035 1482.76 C 484.454 1441.93 463.182 1374.42 463.749 1327 z" fill="rgb(20,35,28)" transform="translate(0,0)"></path>
<path d="M 532.544 1232.31 C 552.977 1227.98 573.024 1241.13 577.184 1261.6 C 581.343 1282.07 568.02 1302 547.517 1305.99 C 527.258 1309.93 507.611 1296.8 503.501 1276.57 C 499.39 1256.35 512.354 1236.59 532.544 1232.31 z" fill="rgb(20,35,28)" transform="translate(0,0)"></path>
<path d="M 538.392 1234.19 C 557.577 1233.11 574.017 1247.76 575.152 1266.94 C 576.287 1286.12 561.689 1302.61 542.512 1303.8 C 523.252 1305 506.682 1290.32 505.542 1271.06 C 504.402 1251.8 519.126 1235.27 538.392 1234.19 z" fill="rgb(93,238,227)" transform="translate(0,0)"></path>
<path d="M 721.647 1509 C 724.989 1506.79 733.41 1500.95 736.731 1499.82 C 736.963 1503.02 737.049 1505.8 737.124 1509 L 721.647 1509 z" fill="rgb(247,248,243)" transform="translate(0,0)"></path>
<path d="M 1632.61 1135.4 C 1665.66 1135.76 1683.6 1159.78 1701.86 1184.07 C 1748.66 1246.34 1785.62 1317.38 1811.88 1390.68 C 1817.77 1407.14 1830.38 1439.72 1822.13 1457.03 C 1819.3 1462.76 1812.01 1468.76 1805.26 1470.24 C 1741.35 1484.24 1674.4 1458.68 1617.8 1430.93 C 1605.26 1424.79 1594.18 1420.16 1582.54 1414.11 C 1579.44 1404.96 1577.34 1395.74 1575.03 1386.36 C 1575.94 1386.04 1576.84 1385.72 1577.73 1385.38 C 1619.02 1369.77 1648.64 1322.91 1666.14 1284.52 C 1667.92 1280.7 1668.4 1280.05 1668.97 1275.98 L 1667.99 1274.81 C 1666.05 1275.67 1655.38 1290.88 1652.47 1294.11 C 1616.97 1333.46 1580.96 1377.29 1528.15 1391.63 C 1516.03 1387.44 1506.1 1383.74 1492.86 1380.25 C 1488.83 1379.19 1465.43 1374.56 1462.84 1373.32 C 1432.93 1359.07 1378.19 1332.7 1359.32 1305.7 C 1355.82 1299.92 1356.73 1291.55 1358.93 1285.64 C 1361.74 1278.08 1365.17 1270.78 1368.67 1263.66 C 1372.52 1255.82 1375.9 1245.75 1384.05 1241.73 C 1387.51 1240.03 1393.09 1240.22 1396.57 1241.63 C 1412.9 1248.25 1428.06 1257.57 1444.65 1263.79 C 1466.49 1272.64 1488.75 1278.47 1510.53 1286.75 C 1521.06 1266.59 1534.33 1245.16 1545.75 1225.25 C 1558.53 1202.96 1572.93 1177.92 1588.65 1157.75 C 1599.96 1143.26 1614.38 1136.98 1632.61 1135.4 z" fill="rgb(93,238,227)" transform="translate(0,0)"></path>
<path d="M 1343.61 794.15 C 1365.93 796.942 1364.16 813.145 1367.74 831.484 C 1338.63 824.154 1314.22 828.195 1292.28 850.149 L 1293.35 849.697 C 1299.74 846.94 1306.21 842.629 1312.38 839.151 C 1353.17 816.149 1399.56 842.208 1416.78 882.342 C 1421.56 893.491 1425.37 905.033 1428.16 916.839 C 1440.08 965.526 1446.41 1017.37 1455.51 1066.86 C 1459.68 1089.49 1427.46 1088.49 1413.14 1091.13 C 1361.99 1097.84 1311.34 1093.69 1260.27 1091.54 C 1259.66 1084.76 1259.16 1077.97 1258.78 1071.18 C 1276.67 1079.34 1293.22 1082.71 1312.88 1081.83 C 1385.6 1078.58 1417.3 1007.05 1426.45 945.941 L 1425.93 941.889 L 1424.78 941.026 L 1422.52 943.665 C 1421.5 949.478 1418.91 955.444 1416.31 960.724 C 1385.96 1022.55 1322.52 1084.4 1248.9 1048.28 C 1230.3 1016.76 1201.56 1002.96 1165.86 1002.16 C 1166.1 981.472 1166.73 958.083 1164.9 937.471 C 1164.57 933.788 1159.72 922.062 1158.74 917.349 L 1158.49 916.106 C 1173.44 921 1186.11 909.765 1193.6 898.185 C 1199.4 905.046 1213.95 917.61 1221.31 924.411 C 1235.78 937.786 1250.7 954.237 1266.66 965.472 C 1268.87 967.029 1282.11 969.576 1285.59 970.392 C 1292.42 961.981 1341.61 898.561 1342.45 894.685 C 1333.2 901.164 1293.47 955.56 1284.61 967.431 C 1262.2 962.358 1263.01 960.466 1245.35 943.314 C 1246.08 938.351 1246.84 933.393 1247.63 928.441 C 1250.32 911.69 1253.91 896.066 1258.51 879.747 C 1264.05 860.08 1268.37 847.903 1285.26 835.703 C 1282.02 825.885 1278.86 814.15 1287.18 804.531 C 1288.69 802.784 1289.48 803.311 1291.67 803.38 C 1295.75 806.278 1294.71 805.846 1297.12 810.785 C 1304.33 809.041 1337.71 803.995 1340.72 801.009 C 1341.18 797.483 1341.12 796.699 1343.61 794.15 z" fill="rgb(93,238,227)" transform="translate(0,0)"></path>
<path d="M 1247.84 720.96 C 1251.57 713.523 1253.79 709.293 1259.4 703.111 C 1269.79 691.557 1284.43 684.709 1299.96 684.131 C 1319.11 683.346 1332.12 690.602 1345.62 703.195 C 1346.23 703.513 1346.18 703.631 1346.55 704.273 C 1367.92 731.753 1362.97 762.109 1337.1 784.305 C 1286.67 813.348 1231.33 777.096 1247.84 720.96 z" fill="rgb(93,238,227)" transform="translate(0,0)"></path>
<path d="M 1069.94 823.425 C 1073.28 822.93 1081.48 822.767 1085.2 822.588 C 1086.24 831.614 1086.28 845.207 1086.91 854.821 C 1088.67 880.531 1090.65 906.225 1092.84 931.901 C 1068.07 933.064 1041.82 935.721 1016.75 937.193 L 1003.03 938.131 C 1000.71 901.889 996.855 865.477 994.692 829.271 C 1019.79 827.586 1044.88 825.637 1069.94 823.425 z" fill="rgb(247,248,243)" transform="translate(0,0)"></path>
<path d="M 1227.96 1141.92 C 1262.87 1141.95 1299.96 1142.84 1335.07 1143.29 C 1335.09 1162.05 1333.4 1183.4 1331.95 1202.22 C 1329.22 1200.85 1326.48 1199.53 1323.71 1198.24 C 1301.5 1187.95 1277.24 1190.11 1266.37 1214.41 C 1261.18 1238.97 1272.01 1251.31 1293.89 1260.01 C 1270.46 1260.14 1244.67 1257.7 1220.87 1256.86 C 1222.71 1218.61 1226.11 1180.3 1227.96 1141.92 z" fill="rgb(247,248,243)" transform="translate(0,0)"></path>
<path d="M 807.399 1239.38 C 809.641 1239.02 815.529 1239.07 818.075 1239.03 C 811.837 1265.04 806.596 1291.66 800.003 1317.37 C 806.402 1318.41 812.203 1318.9 818.634 1319.47 C 791.308 1333.3 778.882 1341.69 755.432 1361.28 L 746.255 1359.13 C 736.799 1358.17 731.007 1361.3 722.837 1365.45 C 723.079 1332.24 718.661 1303.71 741.345 1275.6 C 759.016 1253.71 779.77 1242.7 807.399 1239.38 z" fill="rgb(247,248,243)" transform="translate(0,0)"></path>
<path d="M 1295.15 1195.18 C 1330.23 1192.35 1354.57 1223.91 1379.06 1239.95 C 1374.52 1246.17 1356.29 1283.48 1355.21 1284.2 C 1340.16 1271.82 1336.52 1266.77 1317.51 1263.39 C 1296.94 1259.09 1266.28 1251.92 1267.55 1225.05 C 1268.41 1206.9 1278.6 1198.71 1295.15 1195.18 z" fill="rgb(247,248,243)" transform="translate(0,0)"></path>
<path d="M 1041.51 823.101 C 1041.51 821.669 1041.53 820.237 1041.57 818.806 C 1041.74 812.042 1041.8 807.603 1047.66 802.899 C 1066.48 787.773 1101.53 784.804 1118.53 804.123 L 1119.39 805.301 C 1140.38 832.746 1162.18 859.351 1183.19 886.712 C 1178.31 899.283 1167.77 905.596 1155.98 910.816 C 1137.65 870.098 1110.53 871.101 1088.54 843.009 C 1088.16 838.449 1088.22 832.281 1088.13 827.578 C 1095.45 828.904 1102.75 830.297 1110.05 831.758 C 1104.5 820.986 1097.94 817.22 1091.11 807.653 C 1083.63 807.15 1068.11 804.911 1062.45 809.298 C 1058.75 812.173 1058.95 817.359 1058.64 821.803 C 1053.15 821.992 1047.05 822.634 1041.51 823.101 z" fill="rgb(93,238,227)" transform="translate(0,0)"></path>
<path d="M 605.472 1064.59 C 609.958 1068.23 615.885 1081.24 617.525 1086.86 C 622.559 1104.13 622.945 1124.55 614.109 1140.66 C 608.916 1150.35 599.948 1157.46 589.33 1160.32 C 573.967 1164.48 562.364 1160.21 549.273 1152.67 C 535.726 1144.07 528.132 1128.28 523.206 1113.67 C 538.743 1114.4 553.233 1112.71 567.503 1106.06 C 585.256 1097.95 598.959 1082.99 605.472 1064.59 z" fill="rgb(247,248,243)" transform="translate(0,0)"></path>
<path d="M 841.35 1208.04 C 867.299 1212.49 893.886 1216.58 919.691 1221.33 C 914.895 1241.86 910.28 1262.42 905.846 1283.03 C 895.978 1280.69 887.22 1279.73 877.173 1278.48 C 864.708 1275.86 852.266 1274.33 840.195 1271.84 L 827.611 1269.7 C 831.856 1251.57 836.098 1224.52 841.35 1208.04 z" fill="rgb(247,248,243)" transform="translate(0,0)"></path>
<path d="M 840.195 1271.84 C 842.178 1264 844.915 1255.08 852.69 1251.62 C 874.041 1242.11 876.691 1265.81 877.173 1278.48 C 864.708 1275.86 852.266 1274.33 840.195 1271.84 z" fill="rgb(25,155,104)" transform="translate(0,0)"></path>
<path d="M 871.955 1298.97 C 875.91 1298.77 878.135 1299.56 881.281 1301.88 C 884.916 1312.26 860.892 1325.06 852.811 1330.88 C 864.325 1332.45 875.218 1334.14 886.568 1336.63 C 874.786 1342.13 855.299 1354.62 844.236 1358.41 C 816.808 1367.8 818.207 1365.73 797.279 1386.84 L 790.247 1393.69 C 779.038 1383.7 768.857 1373.01 757.424 1363 C 763.595 1358.05 769.778 1353.18 776.011 1348.31 C 804.683 1325.92 839.343 1314.33 871.955 1298.97 z" fill="rgb(247,248,243)" transform="translate(0,0)"></path>
<path d="M 915.937 1311.96 L 961.38 1311.98 L 961.913 1391.92 L 942.75 1392 L 898.818 1391.91 L 898.964 1338.75 L 909.136 1339.95 C 911.802 1331.21 913.887 1320.98 915.937 1311.96 z" fill="rgb(247,248,243)" transform="translate(0,0)"></path>
<path d="M 1535.13 1009.67 C 1542.23 1017.08 1548.61 1023.9 1556.34 1030.65 C 1562.32 1036.33 1591.52 1059.98 1598.74 1062.61 C 1604.31 1066.94 1615.38 1072.03 1621.99 1075.06 C 1613.58 1084.58 1602.96 1093.35 1590.9 1097.47 C 1529.94 1118.32 1513.6 1053.86 1535.13 1009.67 z" fill="rgb(247,248,243)" transform="translate(0,0)"></path>
<path d="M 830.938 1192.73 L 935.508 1211.25 C 927.578 1249.65 917.39 1299.75 907.082 1336.93 C 891.958 1334.83 875.53 1331.38 860.187 1328.93 C 864.969 1325.48 868.518 1323.11 873.574 1320.1 C 882.157 1322.15 890.78 1324.04 899.437 1325.76 C 905.074 1300.97 910.523 1276.13 915.785 1251.26 C 917.972 1240.76 920.744 1229.66 923.169 1219.16 C 900.269 1214.37 861.682 1208.32 838.706 1205.32 C 831.378 1239.52 823.797 1273.66 815.965 1307.75 C 822.797 1309.02 828.68 1310.36 835.408 1312.01 L 823.541 1317.56 L 803.947 1315.71 C 812.541 1274.45 822.333 1234.05 830.938 1192.73 z" fill="rgb(93,238,227)" transform="translate(0,0)"></path>
<path d="M 1648.49 1097.14 L 1650.24 1097.41 C 1652.66 1101.5 1659.01 1132.42 1660.53 1139.12 C 1634.64 1126.44 1607.77 1132.97 1588.2 1153.55 L 1581.99 1161.61 C 1580.15 1148.36 1576.24 1131.11 1573.61 1117.69 C 1598.41 1110.29 1623.38 1103.43 1648.49 1097.14 z" fill="rgb(68,198,177)" transform="translate(0,0)"></path>
<path d="M 827.35 1272.94 C 846.566 1278.08 883.262 1280.9 905.57 1285.7 C 902.604 1298 899.708 1310.31 896.882 1322.64 L 877.661 1318.5 L 877.486 1317.72 C 879.566 1315.91 884.788 1311.28 884.775 1309.05 C 884.083 1280.88 853.159 1307.53 840.727 1309.14 C 834.859 1309.9 824.932 1306.7 819.005 1305.17 C 821.951 1294.53 824.296 1283.73 827.35 1272.94 z" fill="rgb(25,155,104)" transform="translate(0,0)"></path>
<path d="M 1260.9 859.995 C 1261.03 863.095 1255.34 880.96 1254.17 884.979 C 1248.76 903.689 1245.4 921.291 1242.59 940.52 C 1235.2 933.387 1227.73 926.345 1220.16 919.396 C 1213.06 912.871 1205.89 906.426 1198.64 900.062 C 1218.86 887.872 1241.57 873.555 1260.9 859.995 z" fill="rgb(93,238,227)" transform="translate(0,0)"></path>
<path d="M 541.014 1150.29 C 550.861 1157 550.569 1157.03 561.969 1162.16 C 555.425 1173.82 551.158 1186.42 545.01 1197.95 C 544.755 1198.43 542.942 1197.48 542.781 1197.4 C 532.304 1193.6 529.731 1192.82 518.881 1191.48 C 529.915 1176.76 534.614 1167.67 541.014 1150.29 z" fill="rgb(247,248,243)" transform="translate(0,0)"></path>
<path d="M 1623.9 1075.78 C 1627.88 1077.02 1631.75 1078.49 1635.66 1079.89 C 1636.34 1085.67 1636.91 1091.47 1637.38 1097.27 C 1623.7 1100.3 1610.42 1104.31 1597.02 1108.34 C 1593.44 1109.26 1585.06 1113.65 1585.06 1108.05 C 1585.05 1103.28 1582.91 1102.32 1588.4 1100.82 C 1604.09 1096.52 1614.01 1088.13 1623.9 1075.78 z" fill="rgb(247,248,243)" transform="translate(0,0)"></path>
<path d="M 1568.93 1378.13 C 1571.88 1381.37 1576.09 1403.21 1577.71 1408.93 L 1578.72 1412.56 C 1571.32 1409.17 1562.39 1405.54 1554.73 1402.36 C 1547.53 1399.05 1540.37 1396.41 1533.14 1393.3 L 1532.49 1393.02 C 1548.52 1388.98 1554.31 1386.21 1568.93 1378.13 z" fill="rgb(247,248,243)" transform="translate(0,0)"></path>
<path d="M 1063.69 810.294 C 1072.79 810.023 1081.87 809.817 1090.94 810.656 C 1090.84 813.245 1091.17 822.301 1089.16 823.507 C 1077.51 813.638 1053.48 832.187 1063.69 810.294 z" fill="rgb(93,238,227)" transform="translate(0,0)"></path>
<path d="M 1093.05 815.721 C 1096.64 818.693 1101.99 823.606 1104.65 827.261 C 1092.21 826.08 1092.82 826.631 1093.05 815.721 z" fill="rgb(247,248,243)" transform="translate(0,0)"></path>
<path d="M 826.137 346.721 C 877.731 330.208 913.26 315.177 959.603 285.521 C 996.185 262.112 1026.16 237.066 1060.23 210.768 C 1126.55 159.577 1196.77 113.387 1279.56 94.0407 C 1375.46 71.6338 1475.44 87.1248 1564.98 126.259 C 1590.52 137.421 1614.25 151.49 1637.84 165.927 C 1638.08 166.082 1638.32 166.237 1638.56 166.391 C 1640.59 167.93 1641.33 168.099 1642.52 170.197 C 1612.09 158.223 1586.21 149.699 1552.57 146.295 C 1483.74 139.332 1414.37 159.935 1354.14 192.377 C 1331.24 204.71 1311.37 220.298 1286.05 228.341 C 1262.96 236.672 1240.98 238.828 1216.97 243.58 C 1160.07 254.845 1115.34 273.993 1069.28 309.038 C 982.967 372.196 896.445 401.433 789.652 398.66 L 788.765 397.411 C 793.065 390.166 821.416 351.072 826.137 346.721 z" fill="rgb(20,35,28)" transform="translate(0,0)"></path>
<metadata><recraft-signature>{"signed_by": "recraft", "signature_b64": "C6kDz2NeJC4QuMyxEJSLeYVh70bts1mMJDGhL8eccqhFaeyENfO0cQ67XIviJeAF0Cud6PXOv8eh82lgzw8XBw==", "signing_algo": "Ed25519", "generation_timestamp": 1783309054, "identifier": "cdc8085a-ac6d-4485-8edf-34d0ab84980f"}</recraft-signature></metadata></svg>