<svg xmlns="http://www.w3.org/2000/svg" height="896" preserveAspectRatio="none" style="display: block;" version="1.1" viewBox="0 0 2048 1509" width="1216">
<defs>
	<linearGradient gradientUnits="userSpaceOnUse" id="Gradient1" x1="1712.98" x2="1642.77" y1="1055.76" y2="991.508">
		<stop class="stop0" offset="0" stop-color="rgb(211,245,226)" stop-opacity="1"></stop>
		<stop class="stop1" offset="1" stop-color="rgb(238,248,240)" stop-opacity="1"></stop>
	</linearGradient>
</defs>
<path d="M 0 0 L 2048 0 L 2048 1509 L 0 1509 L 0 0 z" fill="rgb(247,248,243)" transform="translate(0,0)"></path>
<path d="M 671.638 343.944 C 671.642 335.884 671.734 327.559 671.451 319.463 C 670.839 305.127 671.519 290.45 689.714 289.489 C 714.803 288.165 741.102 288.557 766.209 289.414 C 792.583 290.315 781.856 327.401 784.443 345.184 L 783.99 348.075 C 784.091 353.23 785.002 356.015 782.856 360.069 C 778.492 362.337 777.259 361.15 774.407 362.64 C 775.702 370.542 775.158 387.75 775.272 396.777 C 799.708 407.763 817.754 423.199 827.526 448.989 C 836.154 471.934 835.277 497.373 825.088 519.669 C 820.73 529.168 816.42 535.285 809.354 542.731 C 836.784 570.132 835.423 591.876 835.627 627.943 L 835.954 678.486 C 873.973 667.266 877.29 668.727 916.331 669.674 C 925.906 635.382 933.118 599.525 942.702 564.524 L 941.633 563.44 C 907.067 569.281 879.691 553.735 882.919 515.975 C 869.294 491.752 875.37 474.27 894.71 456.072 C 891.994 448.561 890.108 443.186 890.267 435.201 C 890.441 424.556 894.859 414.422 902.539 407.05 C 914.074 396.038 926.989 394.586 942.02 394.824 C 946.828 375.687 953.779 360.957 972.411 351.662 C 981.896 345.807 1004.41 345.43 1013.1 352.077 C 1036.46 369.939 1040.64 363.326 1062.05 348.861 C 1069.63 343.738 1087.68 344.463 1097.82 347.805 C 1110.75 351.966 1121.46 361.17 1127.52 373.333 C 1135.03 388.339 1133.76 400.425 1128.79 415.655 C 1149.66 424.749 1157.65 442.648 1153.49 464.609 C 1150.66 479.57 1151.25 493.756 1139.22 505.286 C 1129.72 514.387 1118.77 516.879 1105.97 515.441 C 1106.78 527.634 1108.33 538.249 1107.39 550.596 C 1105.11 580.527 1082.73 608.039 1051.95 610.869 C 1051.32 610.871 1050.68 610.872 1050.04 610.874 C 1049.33 617.936 1051.67 636.398 1052.49 644.29 C 1053.39 650.088 1053.79 663.15 1054.13 669.49 C 1091.75 669.392 1114.63 667.789 1149.55 684.194 C 1158.27 669.013 1167.12 657.916 1177.15 644.24 C 1188.87 628.255 1205.76 626.399 1215.69 616.448 C 1230.78 601.332 1244.64 577.423 1258.89 561.028 C 1267.76 550.832 1271.41 539.905 1285.48 535.523 C 1286.43 501.98 1284.6 468.294 1286.26 434.845 C 1286.87 422.578 1299.2 408.771 1311.68 408.464 C 1361.56 407.237 1411.71 408.25 1461.64 408.074 C 1474.26 408.02 1489.42 419.267 1490.95 432.006 C 1492.82 447.542 1491.55 465.985 1491.4 481.894 C 1491.23 511.032 1491.22 540.17 1491.38 569.308 C 1514.96 568.777 1549.22 570.893 1521.75 602.645 C 1521.15 603.336 1527.63 611.57 1528.31 612.599 C 1534.82 622.501 1527.13 630.241 1518.42 634.58 C 1519.92 642.315 1529.98 647.495 1524.23 656.324 C 1520.79 661.599 1514.71 665.075 1509.28 667.972 C 1523.23 685.438 1511.12 697.487 1491.55 698.342 C 1491.4 724.149 1497.9 762.998 1460.38 763.606 C 1456.24 780.872 1450.28 801.649 1445.04 818.735 C 1448.28 821.098 1452.91 823.871 1453.81 828.079 C 1455.63 836.529 1424.57 945.402 1419.82 964.582 C 1452.6 959.437 1482.28 963.597 1507.64 986.835 C 1544.38 955.428 1605.51 953.084 1641 987.359 C 1664.93 968.337 1691.18 959.409 1722.03 963.026 C 1741.82 965.264 1760.46 973.518 1775.42 986.675 C 1820.26 952.216 1884.33 952.752 1920.11 999.658 C 1934.03 1017.63 1940.02 1040.51 1936.67 1063 C 1933.13 1087.11 1920.16 1106.58 1900.73 1120.97 C 1878.73 1137.18 1851.18 1143.94 1824.18 1139.75 C 1812.05 1137.87 1802.42 1134.27 1791.99 1127.87 L 1791.33 1127.56 C 1785.28 1124.52 1779.77 1120.18 1774.3 1116.16 C 1732.6 1148.31 1680.97 1150.48 1640.27 1115.01 C 1625.64 1128.56 1607.23 1137.32 1587.48 1140.14 C 1553.86 1145 1532.1 1134.76 1506.34 1115.39 C 1491.9 1129.42 1468.36 1138.74 1448.48 1140.66 C 1419.45 1143.46 1394.55 1133.44 1372.4 1115.26 C 1358.39 1129.59 1336.19 1138.42 1316.5 1140.41 C 1286.46 1143.43 1261.24 1133.53 1238.31 1115.01 C 1222.83 1130.64 1200.15 1139.23 1178.45 1140.79 C 1152.33 1142.53 1126.58 1133.85 1106.84 1116.65 C 1103.35 1113.73 1102.76 1113.13 1099.98 1109.37 C 1095.85 1105.91 1092.82 1100.86 1089.79 1096.35 C 1079.12 1109 1069.39 1119.15 1055.57 1128.67 C 1000.92 1166.3 924.03 1170.12 865.239 1140.24 C 860.502 1145.73 855.532 1151.01 850.343 1156.07 C 802.754 1201.76 740.536 1222.81 674.591 1221.99 C 568.231 1220.66 467.648 1147.23 451.428 1038.97 C 448.746 1021.07 450.575 1000.34 449.898 982.134 C 449.531 972.257 454.586 960.765 462.193 954.411 C 523.107 904.077 647.702 901.76 720.963 905.181 L 720.862 878.065 C 705.231 877.865 689.188 878.305 673.55 878.356 C 652.994 878.422 639.849 877.71 633.184 855.44 C 626.506 861.535 618.745 872.839 613.24 877.12 C 579.975 902.99 499.726 862.133 477.462 837.674 C 477.274 837.648 477.088 837.584 476.9 837.597 C 472.342 837.895 374.147 936.157 362.263 947.827 C 384.164 972.296 405.657 1003.69 411.174 1036.72 C 416.612 1066.83 398.969 1075.54 382.645 1093.89 C 321.011 1163.19 261.541 1135.21 197.841 1084.75 C 188.623 1093.1 183.042 1101.42 170.24 1102.84 C 162.048 1103.74 153.839 1101.29 147.481 1096.05 C 141.608 1091.24 137.485 1084.16 136.978 1076.55 C 135.918 1060.65 145.622 1053.91 154.764 1043.22 C 106.096 979.934 80.3658 928.854 148.055 871.063 C 159.569 859.001 166.032 847.572 184.451 846.117 C 224.779 842.932 268.285 865.754 299.439 890.555 C 334.664 854.429 376.367 814.948 412.84 779.887 C 392.786 750.942 376.637 731.64 370.879 695.184 C 364.434 654.383 378.294 652.53 399.52 627.332 C 452.244 564.744 506.459 581.574 564.768 624.703 C 573.211 630.996 579.372 635.998 587.286 642.947 C 596.372 631.148 603.65 625.923 618.658 626.39 C 619.223 626.407 622.212 626.237 622.193 626.285 C 623.258 623.614 622.754 611.052 622.78 608.97 C 623.144 579.847 629.533 563.56 649.251 543.125 C 643.095 535.616 638.485 529.261 634.425 520.352 C 624.274 497.6 623.497 471.765 632.262 448.444 C 642.115 422.671 659.918 407.268 684.368 396.187 C 685.085 385.077 684.452 372.3 684.142 361.034 C 680.172 361.179 676.179 361.866 672.928 359.987 C 670.894 356.839 671.666 352.369 671.812 348.331 L 671.638 343.944 z" fill="rgb(20,35,28)" transform="translate(0,0)"></path>
<path d="M 671.638 343.944 C 671.642 335.884 671.734 327.559 671.451 319.463 C 670.839 305.127 671.519 290.45 689.714 289.489 C 714.803 288.165 741.102 288.557 766.209 289.414 C 792.583 290.315 781.856 327.401 784.443 345.184 L 783.99 348.075 C 749.552 348.15 705.274 346.844 671.812 348.331 L 671.638 343.944 z" fill="rgb(20,35,28)" transform="translate(0,0)"></path>
<path d="M 671.638 343.944 L 745.674 344.391 C 754.644 344.461 776.137 344.235 784.443 345.184 L 783.99 348.075 C 749.552 348.15 705.274 346.844 671.812 348.331 L 671.638 343.944 z" fill="rgb(25,155,104)" transform="translate(0,0)"></path>
<path d="M 1791.47 1124.94 C 1769.77 1113.42 1795.12 1101.87 1794.98 1118.98 C 1794.96 1120.91 1799.29 1129.72 1794.86 1126.83 L 1791.47 1124.94 z" fill="rgb(247,248,243)" transform="translate(0,0)"></path>
<path d="M 1099.98 1109.37 C 1103.77 1112 1104.64 1112.81 1106.84 1116.65 C 1103.35 1113.73 1102.76 1113.13 1099.98 1109.37 z" fill="rgb(91,107,97)" transform="translate(0,0)"></path>
<path d="M 1791.47 1124.94 L 1794.86 1126.83 L 1791.99 1127.87 L 1791.33 1127.56 L 1791.47 1124.94 z" fill="rgb(91,107,97)" transform="translate(0,0)"></path>
<path d="M 826.969 684.808 C 839.546 678.812 862.057 673.288 875.909 671.187 C 875.41 733.777 922.202 776.542 983.284 779.288 C 986.527 780.278 991.136 780.047 994.477 779.496 L 1001.94 778.741 L 1003.67 778.45 C 1059.39 771.778 1100.69 729.268 1101.38 672.515 C 1116.48 673.889 1135 679.705 1148.6 686.318 C 1135.98 709.823 1122.83 733.047 1109.18 755.972 C 1102.82 766.852 1090.79 786.238 1086.07 796.901 C 1076.8 793.123 1071.99 793.826 1065.37 802.363 C 1027.33 851.419 986.211 901.281 949.997 951.525 C 937.013 918.098 928.278 882.958 915.583 849.406 C 912.764 841.957 910.736 827.928 905.415 823.152 C 904.529 826.088 944.013 942.996 948.96 956.736 C 977.299 920.437 1005.38 883.934 1033.19 847.23 C 1062.16 865.133 1091.38 882.613 1120.86 899.665 C 1139.74 910.624 1161.63 922.57 1179.23 934.939 C 1167.83 955.459 1155.24 978.696 1144.92 999.685 C 1095.52 1100.12 1045.04 1170.66 920.604 1155.63 L 918.942 1155.31 C 900.289 1152.93 883.406 1146.82 866.751 1138.37 C 888.656 1115.06 908.779 1069.15 911.557 1037.14 C 911.033 1023.67 916.28 986.6 912.139 974.715 C 892.96 919.677 763.373 909.244 723.092 905.721 L 723.177 864.656 C 724.425 860.342 723.968 833.117 723.971 826.978 L 724.311 820.625 C 725.102 818.916 724.994 816.065 725.09 814.008 L 725.387 812.083 L 725.647 810.414 L 726.548 805.712 C 734.034 766.039 762.522 720.84 798.097 700.464 C 808.021 694.475 816.592 690.049 826.969 684.808 z" fill="rgb(72,150,41)" transform="translate(0,0)"></path>
<path d="M 1040.68 888.266 C 1061.73 886.746 1067.71 887.807 1079.56 905.537 C 1087.51 917.436 1097.17 910.648 1106.21 915.094 C 1107.25 918.069 1107.18 916.79 1105.7 920.277 C 1102.93 923.074 1100.22 923.203 1096.29 924.103 C 1074.49 923.267 1074.83 907.56 1059.87 899.878 C 1054.9 897.327 1035.62 900.981 1029.22 896.339 C 1028.57 889.526 1035.7 889.05 1040.68 888.266 z" fill="rgb(205,235,221)" transform="translate(0,0)"></path>
<path d="M 686.679 360.981 C 696.705 360.853 769.853 360.039 772.962 362.572 C 772.782 374.517 772.783 386.464 772.964 398.41 C 781.67 402.235 788.122 405.179 795.978 410.898 C 797.009 411.28 797.008 411.183 797.468 412.124 C 835.192 444.507 843.976 499.129 810.513 537.768 C 809.039 539.484 807.526 541.165 805.974 542.81 C 823.977 559.875 832.816 578.258 833.11 603.346 C 833.407 628.688 833.383 654.179 833.49 679.529 L 821.876 684.618 C 817.453 686.618 802.118 694.207 798.75 697.29 C 762.048 718.537 732.917 760.793 724.915 802.234 C 719.828 823.926 720.885 852.774 720.825 875.341 C 699.958 874.893 676.506 877.36 655.804 875.077 C 643.847 873.758 638.394 864.394 634.859 853.774 C 642.116 846.555 651.417 837.949 657.756 830.271 C 690.405 790.724 667.931 733.277 639.015 698.287 C 635.229 693.706 631.686 688.591 627.225 684.909 C 627.485 682.731 637.907 671.711 640.441 666.694 C 649.39 648.978 642.332 636.91 625.493 628.162 C 624.933 592.325 624.415 569.711 652.961 543.375 C 644.964 534.221 639.835 527.287 635.246 515.832 C 626.327 493.331 626.594 468.229 635.987 445.922 C 646.167 422.401 663.538 407.201 687.014 397.811 C 686.983 385.534 686.872 373.257 686.679 360.981 z" fill="rgb(247,248,243)" transform="translate(0,0)"></path>
<path d="M 795.978 410.898 C 797.009 411.28 797.008 411.183 797.468 412.124 C 796.466 411.562 796.68 411.763 795.978 410.898 z" fill="rgb(91,107,97)" transform="translate(0,0)"></path>
<path d="M 452.909 991.805 C 485.811 1035.15 551.633 1043 602.161 1050.91 C 674.521 1062.23 867.232 1062.4 910.751 991.956 C 909.78 1005.54 910.637 1041.4 906.616 1051.79 C 887.464 1136.72 819.169 1194.96 735.895 1213.6 C 671.543 1228.36 603.959 1216.75 548.223 1181.35 C 500.986 1151.38 467.641 1103.82 455.564 1049.19 C 454.864 1047.21 454.075 1041.02 453.704 1038.62 C 453.911 1036.97 453.716 1037.06 453.337 1035.33 C 452.913 1020.82 452.77 1006.31 452.909 991.805 z" fill="rgb(205,235,221)" transform="translate(0,0)"></path>
<path d="M 452.909 991.805 C 485.811 1035.15 551.633 1043 602.161 1050.91 C 674.521 1062.23 867.232 1062.4 910.751 991.956 C 909.78 1005.54 910.637 1041.4 906.616 1051.79 L 905.752 1050.72 C 896.612 1057.38 881.656 1068.18 871.172 1072.61 C 769.59 1115.55 615.937 1113.67 511.835 1079.65 C 497.707 1074.53 484.438 1067.85 471.673 1059.98 C 467.318 1057.3 459.288 1050.36 455.564 1049.19 C 454.864 1047.21 454.075 1041.02 453.704 1038.62 C 453.911 1036.97 453.716 1037.06 453.337 1035.33 C 452.913 1020.82 452.77 1006.31 452.909 991.805 z" fill="rgb(25,155,104)" transform="translate(0,0)"></path>
<path d="M 1302.16 619.383 L 1302.62 508.832 C 1302.59 487.269 1302.15 465.703 1302.98 444.164 C 1303.92 419.857 1324.84 423.197 1342.51 423.677 C 1343.24 430.77 1345.42 434.118 1349.01 440.006 C 1369.7 441.488 1391.22 440.405 1412.01 440.62 C 1427.46 440.78 1430.99 438.366 1435.51 423.713 C 1454.29 423.399 1472.83 419.231 1474.17 444.227 C 1474.89 457.683 1474.44 470.924 1474.5 484.384 C 1474.75 512.571 1474.8 540.759 1474.63 568.946 C 1450.83 568.957 1442.01 579.99 1456.35 601.173 C 1458.86 604.876 1435.96 611.388 1452.99 631.912 L 1455.36 633.598 C 1450.01 641.544 1438.65 652.469 1451.13 662.266 C 1455.44 665.654 1463.32 664.083 1467.07 667.589 C 1465.02 675.067 1457.11 668.011 1461.46 689.014 L 1464.64 692.168 C 1465.26 692.486 1465.18 692.597 1465.52 693.265 C 1469.47 696.292 1470.52 696.575 1475.02 698.168 C 1475.15 710.561 1478.01 729.79 1469.53 739.451 C 1467.28 742.02 1461.41 745.426 1457.91 745.526 C 1414.85 746.75 1371.61 745.842 1328.51 746.001 C 1321.54 746.027 1318.33 745.548 1312.94 740.926 L 1312.19 739.179 C 1315.43 732.548 1319.56 727.905 1323.48 721.833 C 1327.32 715.134 1333.9 688.425 1331.39 681.972 C 1326.63 669.68 1328.62 676.137 1329.79 662.179 C 1328.69 659.012 1326.59 655.912 1325.49 653.033 C 1318.69 635.26 1317 630.661 1302.16 619.383 z" fill="rgb(247,248,243)" transform="translate(0,0)"></path>
<path d="M 1452.99 631.912 L 1455.36 633.598 C 1450.01 641.544 1438.65 652.469 1451.13 662.266 C 1455.44 665.654 1463.32 664.083 1467.07 667.589 C 1465.02 675.067 1457.11 668.011 1461.46 689.014 C 1458.04 695.728 1458.95 713.089 1459.01 721.143 L 1420.93 721.935 C 1420.74 696.922 1419.83 657.647 1421.47 633.182 C 1428.08 633.275 1447.63 634.018 1452.99 631.912 z" fill="rgb(205,235,221)" transform="translate(0,0)"></path>
<path d="M 1329.79 662.179 L 1330.13 663.503 C 1330.19 663.732 1330.55 665.304 1330.98 665.321 C 1342.35 665.767 1353.99 665.378 1365.43 665.448 C 1365.17 684.247 1365.08 703.048 1365.16 721.848 C 1351.27 721.669 1337.37 721.664 1323.48 721.833 C 1327.32 715.134 1333.9 688.425 1331.39 681.972 C 1326.63 669.68 1328.62 676.137 1329.79 662.179 z" fill="rgb(205,235,221)" transform="translate(0,0)"></path>
<path d="M 1374.1 648.183 L 1412.87 648.096 L 1412.83 697.813 C 1412.84 702.949 1413.24 717.304 1412.61 721.816 C 1399.42 721.715 1386.23 721.724 1373.05 721.844 C 1373.23 697.742 1373.34 672.264 1374.1 648.183 z" fill="rgb(205,235,221)" transform="translate(0,0)"></path>
<path d="M 1342.66 471.874 C 1348.81 470.154 1355.8 470.892 1362.46 470.702 C 1363.11 474.969 1363.5 483.903 1361.96 487.975 C 1361.68 489.46 1361.59 489.512 1361.81 490.944 C 1362.4 497.08 1362.05 502.12 1362.58 508.016 C 1356.04 507.754 1349.46 507.875 1342.9 507.822 C 1341.69 504.036 1341.7 494.692 1342.87 490.87 C 1343.32 489.452 1343.43 489.493 1343.33 488.144 L 1342.77 486.87 C 1341.93 483.83 1341.63 474.779 1342.66 471.874 z" fill="rgb(20,35,28)" transform="translate(0,0)"></path>
<path d="M 1342.66 471.874 C 1348.81 470.154 1355.8 470.892 1362.46 470.702 C 1363.11 474.969 1363.5 483.903 1361.96 487.975 C 1355.74 488.093 1349.62 487.982 1343.33 488.144 L 1342.77 486.87 C 1341.93 483.83 1341.63 474.779 1342.66 471.874 z" fill="rgb(56,193,132)" transform="translate(0,0)"></path>
<path d="M 1342.66 471.874 C 1348.81 470.154 1355.8 470.892 1362.46 470.702 C 1363.11 474.969 1363.5 483.903 1361.96 487.975 C 1355.74 488.093 1349.62 487.982 1343.33 488.144 L 1342.77 486.87 C 1345.84 486.234 1355.69 487.598 1361.03 486.722 C 1361 482.18 1360.99 477.814 1360.79 473.273 C 1358.74 472.984 1358.14 473.002 1356.25 472.305 C 1354.33 475.372 1355.06 475.799 1355.46 479.804 C 1353.41 480.924 1349.31 484.155 1347.17 483.573 L 1347.06 483.363 C 1348.14 480.391 1362.65 473.77 1344.39 472.899 L 1342.66 471.874 z" fill="rgb(20,35,28)" transform="translate(0,0)"></path>
<path d="M 1342.66 471.874 L 1344.39 472.899 C 1344.15 484.195 1341.32 485.179 1351.11 485.862 L 1352.31 485.934 C 1356.19 485.958 1357.18 486.072 1361.03 486.722 C 1355.69 487.598 1345.84 486.234 1342.77 486.87 C 1341.93 483.83 1341.63 474.779 1342.66 471.874 z" fill="rgb(91,107,97)" transform="translate(0,0)"></path>
<path d="M 1343.33 488.144 C 1349.62 487.982 1355.74 488.093 1361.96 487.975 C 1361.68 489.46 1361.59 489.512 1361.81 490.944 C 1355.49 490.955 1349.18 490.931 1342.87 490.87 C 1343.32 489.452 1343.43 489.493 1343.33 488.144 z" fill="rgb(205,235,221)" transform="translate(0,0)"></path>
<path d="M 1344.12 492.359 C 1350.97 493.738 1348.62 492.366 1351.91 497.972 C 1353.62 499.273 1355.19 496.755 1355.69 495.921 C 1361.17 486.727 1360.16 501.785 1360.19 503.143 C 1358.87 507.117 1348.31 505.429 1344.11 505.605 L 1344.12 492.359 z" fill="rgb(56,193,132)" transform="translate(0,0)"></path>
<path d="M 1351.93 500.211 C 1352.26 500.063 1352.58 499.915 1352.91 499.767 C 1353.14 500.126 1353.05 500.478 1353.06 500.98 C 1352.3 501.301 1352.6 501.224 1352.14 501.296 L 1352.01 501.197 C 1351.91 500.81 1351.95 501.089 1351.93 500.211 z" fill="rgb(205,235,221)" transform="translate(0,0)"></path>
<path d="M 1353.11 493.914 C 1353.31 493.864 1353.5 493.814 1353.7 493.764 C 1353.81 493.943 1353.92 494.121 1354.03 494.3 C 1353.42 494.298 1353.52 494.256 1353.11 493.914 z" fill="rgb(56,193,132)" transform="translate(0,0)"></path>
<path d="M 1317.77 470.4 C 1324.22 470.735 1331.98 470.355 1337.92 471.033 C 1337.62 476.734 1337.76 482.165 1337.86 487.872 C 1332.81 488.156 1325.78 488.01 1320.64 487.86 L 1320.21 488.153 C 1319.61 489.75 1319.81 489.678 1321.01 490.843 C 1325.48 489.899 1331.73 490.103 1336.23 490.75 C 1336.86 490.846 1337.48 490.952 1338.11 491.023 C 1337.96 496.496 1337.97 501.973 1338.13 507.446 C 1330.55 507.967 1324.98 507.231 1317.34 508.407 C 1317.98 503.103 1318.18 490.073 1317.64 484.729 C 1317.87 480.047 1317.77 475.113 1317.77 470.4 z" fill="rgb(20,35,28)" transform="translate(0,0)"></path>
<path d="M 1320.22 492.963 C 1322.52 492.972 1323.01 492.693 1324.95 493.725 L 1329.88 494.014 C 1331.29 493.231 1331.66 493.064 1333.27 492.848 L 1335.65 492.535 C 1335.74 496.976 1335.76 501.418 1335.71 505.86 C 1329.65 505.626 1326.09 505.634 1320.03 505.842 C 1319.99 501.548 1320.05 497.254 1320.22 492.963 z" fill="rgb(56,193,132)" transform="translate(0,0)"></path>
<path d="M 1329.88 494.014 C 1334.48 502.605 1324.88 505.01 1323.74 502.995 C 1324.33 501.831 1326.62 501.25 1327.61 500.12 C 1328.45 499.942 1329.73 496.822 1328.51 496.553 C 1326.23 496.049 1322.57 499.533 1324.95 493.725 L 1329.88 494.014 z" fill="rgb(20,35,28)" transform="translate(0,0)"></path>
<path d="M 1320.21 488.153 C 1320.17 484.88 1319.14 477.781 1320.88 475.412 C 1321.48 474.598 1327.56 474.114 1328.51 475.461 C 1329.79 477.269 1325.11 480.119 1327.98 481.028 C 1328.85 480.632 1329.13 480.428 1330.01 480.313 C 1330.78 480.745 1331.05 481.712 1332 481.711 C 1333.91 480.204 1330.74 473.924 1334.72 473.457 C 1336.64 474.284 1335.84 483.866 1335.83 486.039 C 1330.34 485.936 1324.25 484.509 1320.64 487.86 L 1320.21 488.153 z" fill="rgb(56,193,132)" transform="translate(0,0)"></path>
<path d="M 1323.58 479.686 C 1324.08 479.379 1324.98 478.469 1325.65 478.721 L 1325.72 478.881 C 1325.53 479.943 1324.46 481.476 1323.94 482.492 C 1320.67 482.632 1321.79 481.105 1323.58 479.686 z" fill="rgb(20,35,28)" transform="translate(0,0)"></path>
<path d="M 1321.01 490.843 C 1325.48 489.899 1331.73 490.103 1336.23 490.75 C 1335.04 490.889 1330.3 491.195 1329.39 491.53 L 1329.45 491.585 L 1329.54 491.559 C 1331.26 492.037 1333.76 492.197 1335.65 492.535 L 1333.27 492.848 C 1331.66 493.064 1331.29 493.231 1329.88 494.014 L 1324.95 493.725 C 1323.01 492.693 1322.52 492.972 1320.22 492.963 C 1320.62 492.079 1320.71 491.781 1321.01 490.843 z" fill="rgb(91,107,97)" transform="translate(0,0)"></path>
<path d="M 1413.52 558.552 C 1416.66 555.452 1441.81 538.764 1446.27 537.464 L 1448.23 538.168 C 1442.27 546.937 1418.44 555.348 1412.54 563.53 C 1410.31 569.71 1407.07 570.418 1401.36 569.078 C 1393.6 572.638 1372.59 592.198 1364.56 598.87 C 1358.38 595.477 1351.88 591.51 1345.74 587.928 C 1337.13 594.694 1330.47 603.642 1320.38 609.094 C 1321.16 605.611 1340.38 588.379 1344.68 584.156 L 1364.48 594.432 C 1375.64 584.529 1386.88 574.572 1399.09 565.996 L 1399.74 564.949 L 1397.89 561.433 C 1398.02 558.03 1397.44 559.494 1399.76 556.919 C 1405.04 555.059 1408.63 556.251 1413.52 558.552 z" fill="rgb(56,193,132)" transform="translate(0,0)"></path>
<path d="M 1317.23 449.25 C 1324.66 449.474 1330.81 449.357 1338.17 449.382 C 1337.95 455.546 1338 461.584 1337.63 467.725 C 1332.16 468.046 1322.5 468.146 1317.08 467.749 C 1317.28 461.54 1317.19 455.457 1317.23 449.25 z" fill="rgb(20,35,28)" transform="translate(0,0)"></path>
<path d="M 1335.11 465.487 C 1332.02 465 1329.61 465.693 1326.5 465.944 C 1317.47 466.804 1320.04 464.211 1319.93 456.991 C 1319.84 451.08 1320.69 452.269 1326.1 452.261 C 1333.66 452.925 1329.43 455.655 1331.57 457.227 C 1332.85 456.618 1332.49 454.402 1333.08 453.571 C 1337 447.984 1336.39 463.923 1335.11 465.487 z" fill="rgb(56,193,132)" transform="translate(0,0)"></path>
<path d="M 1326.1 452.261 C 1328.11 457.028 1331.41 458.137 1331.85 459.973 C 1323.87 460.915 1326.11 461.864 1326.1 452.261 z" fill="rgb(20,35,28)" transform="translate(0,0)"></path>
<path d="M 1368.01 487.994 C 1374.06 488.059 1379.66 487.868 1385.71 488.293 C 1385.95 489.21 1386.22 490.023 1386.51 490.924 C 1387.11 496.432 1386.7 502.772 1386.89 508.475 C 1380.82 507.639 1373.34 507.561 1367.28 508.521 C 1366.84 503.791 1366.42 495.254 1367.88 490.709 C 1368.16 489.239 1368.3 489.237 1368.01 487.994 z" fill="rgb(20,35,28)" transform="translate(0,0)"></path>
<path d="M 1368.01 487.994 C 1374.06 488.059 1379.66 487.868 1385.71 488.293 C 1385.95 489.21 1386.22 490.023 1386.51 490.924 C 1380.31 490.826 1374.03 491.003 1367.88 490.709 C 1368.16 489.239 1368.3 489.237 1368.01 487.994 z" fill="rgb(205,235,221)" transform="translate(0,0)"></path>
<path d="M 1378.79 501.932 C 1379.19 498.181 1377.08 493.059 1380.05 492.696 C 1386.32 491.931 1384.59 501.324 1383.17 505.163 C 1379.32 506.098 1373.33 505.886 1369.13 505.981 C 1369.15 504.453 1366.55 488.644 1375.39 493.398 C 1378.65 495.154 1373.37 500.472 1378.79 501.932 z" fill="rgb(56,193,132)" transform="translate(0,0)"></path>
<path d="M 1440.29 449.941 C 1447.45 449.999 1454.62 450.006 1461.79 449.961 C 1461.62 455.524 1461.37 461.702 1461.09 467.26 C 1454.46 467.906 1448.08 467.668 1441.41 467.89 C 1439.95 464.418 1440.38 454.394 1440.29 449.941 z" fill="rgb(20,35,28)" transform="translate(0,0)"></path>
<path d="M 1443.03 452.1 C 1452.02 453.481 1448.17 455.834 1448.14 465.874 C 1440.12 466.091 1443.04 459.739 1443.03 452.1 z" fill="rgb(56,193,132)" transform="translate(0,0)"></path>
<path d="M 1457.16 457.632 C 1463.06 459.68 1457.31 465.116 1454.33 467.097 C 1445.94 463.508 1451.14 462.596 1457.16 457.632 z" fill="rgb(130,218,170)" transform="translate(0,0)"></path>
<path d="M 1453.59 451.208 C 1461.28 453.427 1456.71 454.703 1451.61 459.982 C 1448.93 463.955 1449.96 454.921 1453.59 451.208 z" fill="rgb(56,193,132)" transform="translate(0,0)"></path>
<path d="M 1366.24 449.95 L 1387.24 449.81 C 1387.19 455.006 1388.27 464.71 1385.64 468.255 C 1380.04 467.809 1373.36 467.572 1367.87 468.665 C 1365.68 463.383 1366.35 455.876 1366.24 449.95 z" fill="rgb(20,35,28)" transform="translate(0,0)"></path>
<path d="M 1368.81 452.429 C 1374.13 452.257 1379.46 452.166 1384.78 452.155 C 1384.87 456.714 1384.9 461.274 1384.87 465.834 C 1379.49 465.906 1374.3 465.838 1368.87 465.961 C 1368.82 461.45 1368.8 456.94 1368.81 452.429 z" fill="rgb(56,193,132)" transform="translate(0,0)"></path>
<path d="M 1380.89 456.187 C 1383.42 459.136 1379.79 460.138 1377.5 461.28 C 1375.27 457.001 1377.1 458.162 1380.89 456.187 z" fill="rgb(20,35,28)" transform="translate(0,0)"></path>
<path d="M 1441.27 510.377 C 1447.93 510.592 1454.38 510.558 1461.11 510.828 C 1461.82 516.96 1461.51 522.685 1461.51 528.856 C 1452.98 528.313 1449.4 528.335 1440.87 528.43 C 1440.9 523.064 1440.62 515.39 1441.27 510.377 z" fill="rgb(20,35,28)" transform="translate(0,0)"></path>
<path d="M 1443.25 512.246 C 1450.14 514.508 1445.36 513.563 1447.53 519.035 C 1451 515.731 1453.34 517.422 1450.71 520.47 C 1440.81 531.318 1442.81 523.939 1443.25 512.246 z" fill="rgb(56,193,132)" transform="translate(0,0)"></path>
<path d="M 1458.05 515.972 C 1459.02 517.082 1459.11 517.426 1459.11 518.97 C 1459.13 527.7 1459 525.828 1450.3 526.273 C 1448.01 523.287 1455.69 518.219 1458.05 515.972 z" fill="rgb(130,218,170)" transform="translate(0,0)"></path>
<path d="M 1448.38 513.4 C 1451.1 513.147 1456.29 511.848 1457.66 514.453 C 1452.65 516.825 1452.61 516.948 1448.38 513.4 z" fill="rgb(56,193,132)" transform="translate(0,0)"></path>
<path d="M 1317.96 510.201 C 1325.08 510.442 1331.18 510.413 1338.31 510.242 C 1338.07 516.302 1338.15 522.26 1338.18 528.32 C 1331.38 528.235 1324.57 528.244 1317.76 528.347 C 1317.82 522.4 1317.7 516.086 1317.96 510.201 z" fill="rgb(20,35,28)" transform="translate(0,0)"></path>
<path d="M 1320.04 528.806 C 1320.01 524.192 1317.26 508.469 1324.84 514.929 C 1332.21 510.732 1331.86 514.948 1327.63 520.341 C 1324.91 521.692 1322.15 526.182 1320.04 528.806 z" fill="rgb(56,193,132)" transform="translate(0,0)"></path>
<path d="M 1334.04 512.526 C 1335 513.402 1335.8 514.031 1335.83 515.494 C 1336.07 527.387 1337.66 525.879 1326.33 526.102 C 1325.63 525.597 1325.82 525.788 1325.58 525.497 C 1325.58 525.496 1331.94 519.358 1334.04 512.526 z" fill="rgb(56,193,132)" transform="translate(0,0)"></path>
<path d="M 1441.06 470.667 C 1447.89 470.787 1454.73 470.755 1461.56 470.57 C 1461.47 475.402 1461.63 483.775 1460.52 488.091 C 1454.78 487.888 1448.25 487.706 1442.62 488.672 C 1439.09 485.521 1439.59 474.107 1441.06 470.667 z" fill="rgb(20,35,28)" transform="translate(0,0)"></path>
<path d="M 1443.07 473.111 C 1446.91 473.03 1460.55 471.082 1458.82 475.955 C 1458.49 476.881 1458.74 477.266 1457.9 477.909 C 1455.81 477.59 1456 475.304 1454.56 474.812 C 1451.45 476.102 1448.96 479.743 1447.27 482.474 C 1448.15 482.072 1448.99 481.708 1449.85 481.259 C 1453.96 477.738 1453.27 477.268 1458.04 480.228 L 1459.57 482.402 C 1457.2 488.428 1449.72 486.08 1442.99 486.165 L 1443.07 473.111 z" fill="rgb(56,193,132)" transform="translate(0,0)"></path>
<path d="M 1449.85 481.259 C 1453.96 477.738 1453.27 477.268 1458.04 480.228 L 1459.57 482.402 C 1454.73 484.395 1452.7 483.404 1447.27 482.474 C 1448.15 482.072 1448.99 481.708 1449.85 481.259 z" fill="rgb(25,155,104)" transform="translate(0,0)"></path>
<path d="M 1449.85 481.259 C 1453.96 477.738 1453.27 477.268 1458.04 480.228 C 1454.48 482.243 1454.24 481.68 1449.85 481.259 z" fill="rgb(130,218,170)" transform="translate(0,0)"></path>
<path d="M 1342.25 449.881 C 1349.02 449.939 1355.8 449.902 1362.57 449.769 C 1362.46 455.432 1362.16 462.757 1362.86 468.305 C 1355.94 467.736 1348.98 467.729 1342.06 468.284 C 1342.57 462.418 1342.35 455.793 1342.25 449.881 z" fill="rgb(20,35,28)" transform="translate(0,0)"></path>
<path d="M 1344.56 452.002 C 1349.99 452.659 1354.75 452.463 1360.17 452.342 C 1360.12 456.818 1360.11 461.294 1360.13 465.77 C 1356.18 465.889 1352.37 466.002 1348.42 465.953 L 1344.44 466.078 C 1343.64 461.417 1343.68 456.649 1344.56 452.002 z" fill="rgb(56,193,132)" transform="translate(0,0)"></path>
<path d="M 1344.44 466.078 C 1343.64 461.417 1343.68 456.649 1344.56 452.002 C 1345.24 458.116 1345.23 459.97 1344.44 466.078 z" fill="rgb(25,155,104)" transform="translate(0,0)"></path>
<path d="M 1415.89 449.897 C 1422.68 449.922 1429.48 449.9 1436.27 449.831 C 1436.16 455.665 1435.85 462.182 1436.64 467.89 C 1429.41 467.711 1423.29 467.653 1416.07 468.146 C 1415.76 462.245 1415.89 455.845 1415.89 449.897 z" fill="rgb(20,35,28)" transform="translate(0,0)"></path>
<path d="M 1428.61 452.506 C 1440.67 450.85 1424.92 458.685 1422.72 464.747 C 1420.54 466.907 1418.15 465.978 1418.09 463.015 C 1417.87 450.125 1416.73 453.147 1428.61 452.506 z" fill="rgb(56,193,132)" transform="translate(0,0)"></path>
<path d="M 1432.81 456.969 C 1437.43 462.345 1432.16 465.305 1427.8 466.631 C 1424.88 462.639 1429.41 460.563 1432.81 456.969 z" fill="rgb(130,218,170)" transform="translate(0,0)"></path>
<path d="M 1391.5 449.597 C 1398.15 449.75 1404.8 449.792 1411.45 449.722 C 1411.5 453.097 1411.88 465.273 1411.09 467.935 C 1404.84 467.701 1398.59 467.807 1392.35 468.254 C 1391.06 463.77 1391.52 454.611 1391.5 449.597 z" fill="rgb(20,35,28)" transform="translate(0,0)"></path>
<path d="M 1393.91 466.047 C 1393.93 463.667 1393.64 454.327 1394.31 452.618 C 1394.98 452.054 1397.23 452.062 1398.05 452.026 C 1398.68 452.058 1399.57 451.989 1400.04 452.489 C 1400.29 452.759 1399.8 453.356 1399.74 453.475 C 1398.91 456.667 1398.96 456.757 1399.06 460.163 C 1403.35 458.205 1400.75 458.646 1401.08 456.621 C 1402.73 454.697 1403.72 458.374 1404.52 459.086 L 1404.64 459.071 C 1405.52 456.828 1404.61 454.92 1403.85 452.771 C 1411.35 450.273 1409.68 458.864 1408.88 464.134 C 1403.61 465.497 1399.35 465.564 1393.91 466.047 z" fill="rgb(56,193,132)" transform="translate(0,0)"></path>
<path d="M 1362.36 510.134 C 1363 513.214 1362.57 524.048 1362.63 528.147 L 1342.67 528.088 C 1342.67 524.634 1342.28 512.744 1342.92 510.354 C 1349.78 510.613 1355.5 510.588 1362.36 510.134 z" fill="rgb(20,35,28)" transform="translate(0,0)"></path>
<path d="M 1352.06 516.162 C 1353.19 517.885 1353.65 519.601 1355.37 520.465 C 1358.15 519.874 1355.53 515.401 1355.28 513.752 C 1362.22 508.493 1360.94 525.167 1358.92 525.658 C 1357.29 526.051 1351.6 525.757 1349.49 525.676 C 1348.29 525.719 1345.12 526.082 1344.96 524.017 C 1344.82 522.108 1344.66 514.965 1345.41 513.503 C 1346.73 512.599 1352.68 511.15 1352.06 516.162 z" fill="rgb(56,193,132)" transform="translate(0,0)"></path>
<path d="M 1353 522.968 C 1346.03 522.872 1348.03 516.835 1351.04 518.549 C 1352.17 520.31 1352.28 520.994 1353 522.968 z" fill="rgb(20,35,28)" transform="translate(0,0)"></path>
<path d="M 1367.36 510.488 C 1373.79 510.718 1380.23 510.709 1386.66 510.461 C 1387.21 515.37 1386.94 522.92 1386.96 528.147 C 1380.29 528.059 1373.63 528.03 1366.96 528.06 C 1366.96 522.844 1366.7 515.411 1367.36 510.488 z" fill="rgb(20,35,28)" transform="translate(0,0)"></path>
<path d="M 1369.05 513.031 L 1384.74 513.018 C 1384.92 517.424 1384.94 521.589 1384.95 525.986 C 1379.71 525.906 1374.47 525.901 1369.23 525.97 C 1369.04 521.621 1369.07 517.381 1369.05 513.031 z" fill="rgb(56,193,132)" transform="translate(0,0)"></path>
<path d="M 1379.46 518.259 C 1379.93 518.577 1380.41 518.895 1380.88 519.213 C 1382.09 520.625 1377.26 521.867 1377.37 521.843 C 1369.38 523.64 1373.08 511.695 1379.07 516.819 L 1379.46 518.259 z" fill="rgb(20,35,28)" transform="translate(0,0)"></path>
<path d="M 1379.07 516.819 L 1379.46 518.259 C 1376.01 520.968 1372.75 519.789 1379.07 516.819 z" fill="rgb(91,107,97)" transform="translate(0,0)"></path>
<path d="M 1416.39 470.667 C 1423.12 470.752 1429.61 470.533 1436.34 471.001 C 1436.14 476.259 1436.6 483.521 1435.42 488.156 C 1429.5 487.946 1423.58 487.941 1417.67 488.139 C 1414.76 484.952 1415.79 474.655 1416.39 470.667 z" fill="rgb(20,35,28)" transform="translate(0,0)"></path>
<path d="M 1418.06 473.042 C 1424.48 473.142 1427.41 473.11 1433.81 472.839 C 1433.83 476.251 1434.32 481.839 1433.47 484.994 C 1433.11 486.332 1424.89 486.276 1423.77 485.397 C 1423.65 485.118 1423.67 485.277 1423.75 484.912 C 1424.83 483.84 1426.52 483.647 1427.92 483.179 C 1427.06 479.324 1427.96 476.42 1427.24 474.129 L 1427.36 474.482 L 1426.72 474.277 C 1426.23 474.915 1424.53 481.874 1423.82 482.83 C 1416.11 493.306 1418.14 474.895 1418.06 473.042 z" fill="rgb(56,193,132)" transform="translate(0,0)"></path>
<path d="M 1441.84 491.011 C 1448.42 490.878 1454.79 490.962 1461.39 490.708 C 1461.08 496.366 1460.89 502.631 1461.63 508.233 C 1454.81 507.753 1447.71 507.473 1440.97 508.509 C 1440.71 503.861 1440.14 495.071 1441.84 491.011 z" fill="rgb(20,35,28)" transform="translate(0,0)"></path>
<path d="M 1443.1 503.192 C 1443.78 489.242 1441.87 493.369 1458.91 492.879 C 1458.91 506.299 1461.23 507.252 1446.02 505.379 C 1443.75 505.975 1443.63 505.247 1443.1 503.192 z" fill="rgb(56,193,132)" transform="translate(0,0)"></path>
<path d="M 1451.65 498.041 C 1455.88 492.488 1456.9 501.535 1448.19 503.6 C 1449.54 501.57 1450.46 500.149 1451.65 498.041 z" fill="rgb(20,35,28)" transform="translate(0,0)"></path>
<path d="M 1366.77 470.887 C 1373.41 471.026 1379.99 470.855 1386.7 471.026 C 1387.05 474.751 1387.64 485.11 1385.71 488.293 C 1379.66 487.868 1374.06 488.059 1368.01 487.994 C 1366.16 483.916 1366.94 476.102 1366.77 470.887 z" fill="rgb(20,35,28)" transform="translate(0,0)"></path>
<path d="M 1369.1 473.021 C 1374.24 473.049 1378.82 473.06 1383.98 472.951 L 1384.04 485.94 C 1379.1 486.093 1374.16 486.177 1369.22 486.191 C 1369.22 481.801 1369.18 477.411 1369.1 473.021 z" fill="rgb(56,193,132)" transform="translate(0,0)"></path>
<path d="M 1378 474.975 C 1389.75 481.571 1368.47 486.863 1373.15 480.487 C 1373.34 480.141 1373.52 479.795 1373.71 479.448 L 1374.38 479.099 C 1374.45 478.893 1374.53 478.687 1374.6 478.481 L 1374.68 478.538 C 1374.29 486.46 1381.82 478.383 1377.54 476.925 C 1376.96 476.727 1375.97 476.375 1375.84 475.731 C 1376.58 475.317 1377.12 475.192 1378 474.975 z" fill="rgb(32,92,62)" transform="translate(0,0)"></path>
<path d="M 1391.63 490.833 C 1398.26 490.725 1404.56 490.618 1411.19 490.74 C 1411.5 496.454 1411.54 502.179 1411.31 507.897 C 1404.95 507.824 1398.7 507.762 1392.35 508.177 C 1391.31 503.816 1391.74 495.768 1391.63 490.833 z" fill="rgb(20,35,28)" transform="translate(0,0)"></path>
<path d="M 1393.93 492.787 C 1410.36 494.623 1409.11 487.958 1408.97 505.59 C 1404.01 505.52 1398.8 505.639 1393.82 505.688 C 1393.9 501.388 1393.94 497.087 1393.93 492.787 z" fill="rgb(130,218,170)" transform="translate(0,0)"></path>
<path d="M 1402.49 502.495 C 1398.59 508.432 1394.93 497.311 1399.03 494.102 C 1400.81 492.716 1409.65 500.671 1403.75 500.46 L 1402.49 502.495 z" fill="rgb(91,107,97)" transform="translate(0,0)"></path>
<path d="M 1402.49 502.495 C 1397.09 499.363 1401.64 493.904 1403.75 500.46 L 1402.49 502.495 z" fill="rgb(205,235,221)" transform="translate(0,0)"></path>
<path d="M 1391.52 470.9 C 1397.92 471.006 1404.31 470.967 1410.7 470.781 C 1412.03 476.765 1411.04 481.862 1411.94 488.494 C 1405.25 487.738 1399 487.836 1392.29 488.281 C 1391.27 483.837 1391.78 476.115 1391.52 470.9 z" fill="rgb(20,35,28)" transform="translate(0,0)"></path>
<path d="M 1408.18 472.135 C 1408.56 473.861 1408.76 474.692 1408.83 476.498 L 1409.13 485.955 C 1404.13 485.962 1399.12 486.022 1394.12 486.133 C 1394.01 481.524 1394.05 476.914 1394.25 472.308 C 1398.48 473.845 1401.15 473.671 1399.13 479.037 C 1396.44 483.951 1408.14 484.368 1402.69 479.895 C 1396.94 475.163 1406.26 472.647 1408.18 472.135 z" fill="rgb(56,193,132)" transform="translate(0,0)"></path>
<path d="M 1391.62 510.767 C 1393.89 510.789 1409 510.291 1410.96 511.527 C 1411.66 511.967 1411.5 517.185 1411.6 518.747 C 1411.53 520.505 1411.71 527.072 1410.85 527.363 C 1407.82 528.39 1395.04 527.988 1391.92 528.014 C 1391.9 522.221 1391.97 516.557 1391.62 510.767 z" fill="rgb(20,35,28)" transform="translate(0,0)"></path>
<path d="M 1394.07 513.171 C 1396.1 513.186 1398.13 513.23 1400.16 513.303 C 1403.23 513.44 1405.73 513.262 1408.76 513.187 C 1408.88 518.142 1409.23 520.711 1408.89 525.872 C 1404 525.867 1399.11 525.822 1394.22 525.735 C 1394.01 521.63 1394.03 517.292 1394.07 513.171 z" fill="rgb(56,193,132)" transform="translate(0,0)"></path>
<path d="M 1406.24 515.957 C 1407.02 519.004 1404.83 521.339 1402.13 522.394 C 1399.15 520.656 1403.91 518.212 1406.24 515.957 z" fill="rgb(20,35,28)" transform="translate(0,0)"></path>
<path d="M 1417.8 490.415 C 1424.05 490.767 1429.59 490.563 1435.9 491.108 C 1436 496.543 1435.73 502.998 1436.08 508.247 C 1429.69 507.792 1423.28 507.79 1416.9 508.241 C 1416.6 504.136 1415.98 493.887 1417.8 490.415 z" fill="rgb(20,35,28)" transform="translate(0,0)"></path>
<path d="M 1425.11 498.755 C 1425.98 499 1426.99 499.44 1427.92 499.277 C 1428.33 498.913 1428.21 499.141 1428.27 498.587 C 1422.95 495.315 1428.7 490.948 1432.37 493.688 C 1433.54 494.559 1433.22 503.893 1433.24 505.655 C 1428.53 505.959 1424.21 505.765 1419.43 506.289 C 1419.12 503.935 1416.13 490.123 1423.41 493.34 C 1425.34 494.192 1422.6 496.156 1425.11 498.755 z" fill="rgb(56,193,132)" transform="translate(0,0)"></path>
<path d="M 1419.43 506.289 C 1419.12 503.935 1416.13 490.123 1423.41 493.34 C 1425.34 494.192 1422.6 496.156 1425.11 498.755 C 1421.29 503.948 1425.42 503.756 1419.43 506.289 z" fill="rgb(130,218,170)" transform="translate(0,0)"></path>
<path d="M 1419.43 506.289 C 1425.42 503.756 1421.29 503.948 1425.11 498.755 L 1425.36 499.792 C 1426.96 506.535 1421.97 503.795 1433.24 505.655 C 1428.53 505.959 1424.21 505.765 1419.43 506.289 z" fill="rgb(91,107,97)" transform="translate(0,0)"></path>
<path d="M 1417.32 510.637 C 1423.4 510.897 1429.48 510.917 1435.56 510.698 C 1436.11 516.234 1435.2 522.321 1434.52 527.914 C 1427.71 528.457 1423.67 528.702 1416.87 528.532 C 1416.86 523.618 1416.65 515.184 1417.32 510.637 z" fill="rgb(20,35,28)" transform="translate(0,0)"></path>
<path d="M 1419.21 513.532 L 1433.29 513.379 C 1433.05 517.557 1432.88 521.739 1432.77 525.923 C 1418.46 526.549 1417.99 528.326 1419.21 513.532 z" fill="rgb(130,218,170)" transform="translate(0,0)"></path>
<path d="M 1429.98 515.62 C 1433.36 518.054 1424.87 520.135 1425 521.513 C 1425.84 522.692 1426.91 521.63 1427.74 520.991 C 1427.43 521.614 1426.18 522.697 1425.71 523.141 C 1421.35 524.43 1420.74 517.602 1424.03 517.573 C 1427.09 517.545 1427.48 517.016 1429.98 515.62 z" fill="rgb(20,35,28)" transform="translate(0,0)"></path>
<path d="M 944.231 565.91 C 947.147 557.639 953.096 565.368 958.494 562.498 C 932.566 553.678 909.385 533.798 935.969 505.463 C 948.249 492.374 969.401 504.326 983.246 506.252 C 998.288 508.345 1002.16 487.551 1010.85 479.834 C 1024.84 467.504 1039.96 476.918 1055.39 478.007 C 1070.3 479.06 1081.3 471.062 1091.73 461.276 C 1096.6 478.897 1100.68 496.73 1103.94 514.72 C 1104.7 528.646 1105.66 541.381 1103.83 555.347 C 1099.97 584.705 1076.97 608.198 1046.52 609.262 C 1019.7 600.597 989.299 590.036 962.38 582.626 C 990.506 605.106 1024.6 627.664 1051.35 650.766 L 1051.26 654.373 C 1053 660.403 1052.52 660.732 1051.87 667.273 L 1052.08 670.452 C 1055.58 672.99 1071.48 671.993 1077.19 672.061 C 1073.07 783.055 901.349 782.274 900.615 671.949 L 918.492 671.953 C 924.474 640.329 936.93 598.593 944.231 565.91 z" fill="rgb(247,248,243)" transform="translate(0,0)"></path>
<path d="M 1051.26 654.373 C 1053 660.403 1052.52 660.732 1051.87 667.273 C 1050.93 661.612 1051 660.091 1051.26 654.373 z" fill="rgb(91,107,97)" transform="translate(0,0)"></path>
<path d="M 1037.79 508.339 C 1038.62 508.752 1040.72 509.678 1041.39 510.144 C 1042.85 511.145 1043.83 512.708 1044.09 514.458 L 1044.55 517.611 C 1045.59 525.239 1045.26 526.934 1040.66 532.429 C 1029.97 527.705 1029.87 514.813 1037.79 508.339 z" fill="rgb(20,35,28)" transform="translate(0,0)"></path>
<path d="M 1075.99 510.773 C 1078.94 510.67 1085.54 509.799 1086 514.482 C 1086.78 522.354 1087.71 525.257 1083.44 531.591 C 1080.36 531.575 1076.51 531.695 1075.29 527.991 C 1073.92 523.802 1074.57 514.852 1075.99 510.773 z" fill="rgb(20,35,28)" transform="translate(0,0)"></path>
<path d="M 1040.65 555.864 C 1043.88 556.897 1043.47 557.219 1046.24 559.29 C 1055.63 566.291 1064.11 561.897 1072.92 557.098 C 1073.39 556.843 1074.63 558.579 1074.5 558.434 C 1063.66 567.445 1053.17 568.022 1041.58 559.511 C 1040.76 558.906 1040.43 557.998 1040.55 557.027 L 1040.65 555.864 z" fill="rgb(20,35,28)" transform="translate(0,0)"></path>
<path d="M 947.155 523.103 C 955.762 524.731 966.758 531.17 971.938 538.266 C 969.506 537.66 948.824 525.573 947.155 523.103 z" fill="rgb(20,35,28)" transform="translate(0,0)"></path>
<path d="M 1088.2 798.405 C 1097.81 778.553 1114.37 752.246 1125.62 732.337 C 1139.39 707.955 1158.11 671.042 1175.22 650.127 C 1183.39 640.167 1193.4 631.873 1204.7 625.697 C 1229.47 612.103 1258.98 606.448 1286.47 614.429 C 1303.9 622.26 1314.68 627.318 1320.08 646.713 C 1305.13 636.355 1291.74 626.236 1272.76 630.256 C 1267.34 631.404 1246.9 635.879 1243.08 638.598 C 1264.61 638.467 1280.97 623.797 1302.8 638.188 C 1312.41 644.522 1333.07 655.768 1325.69 671.385 C 1321.97 669.459 1319.44 666.494 1316.08 663.877 C 1309.55 658.787 1302.61 655.014 1294.73 652.592 C 1280.76 655.254 1270.28 658.654 1256.77 663.152 L 1256.68 663.799 C 1262.69 663.799 1267.21 662.523 1272.89 660.602 C 1295.92 652.807 1302.63 655.684 1320.98 670.867 C 1321.89 671.095 1322.07 671.194 1322.43 672.061 C 1327.12 677.72 1333.25 687.614 1327.99 694.742 C 1322.81 695.371 1310.47 683.132 1303.95 679.269 C 1295.27 680.186 1274.58 685.097 1267.31 689.253 L 1267.72 689.871 C 1276.06 689.091 1291.71 683.5 1302.05 681.633 C 1316.58 688.44 1333.23 700.519 1322.95 717.288 C 1316.13 728.419 1308.63 741.523 1296.22 747.546 C 1297.33 747.011 1273.2 748.815 1273.05 748.801 L 1271.4 747.68 C 1274.63 741.234 1286.12 725.907 1292.87 721.657 C 1293.98 720.955 1294.24 721.941 1295.82 719.406 C 1294.95 718.377 1294.86 718.709 1293.1 718.183 C 1286.28 721.181 1273.84 738.858 1269.67 745.429 L 1267.4 748.987 C 1261.27 761.309 1250.12 779.434 1242.96 791.946 C 1229.18 816.487 1215.24 840.938 1201.14 865.298 C 1165.25 842.933 1124.9 819.71 1088.2 798.405 z" fill="rgb(247,248,243)" transform="translate(0,0)"></path>
<path d="M 414.61 777.845 C 404.172 766.527 396.623 753.406 389.511 740.674 C 368.782 703.561 353.227 626.225 422.736 643.857 C 469.066 655.61 501.864 679.289 536.552 710.103 C 537.176 710.366 537.159 710.562 537.564 711.16 C 575.524 748.509 616.308 797.588 619.862 853.365 C 620.286 860.029 617.168 871.142 611.993 874.698 C 573.787 900.946 505.854 858.909 478.46 836.282 C 480.847 830.616 500.254 811.555 506.442 806.722 C 526.91 790.734 531.531 760.779 510.927 741.791 C 472.861 706.712 440.708 752.211 414.61 777.845 z" fill="rgb(247,248,243)" transform="translate(0,0)"></path>
<path d="M 184.74 848.306 C 229.397 845.774 262.837 868.159 298.219 891.492 C 283.702 905.776 262.275 919.748 261.131 942.304 C 259.511 974.26 296.334 1000.3 324.772 982.56 C 336.233 975.412 349.936 959.824 360.583 949.764 C 382.301 972.223 398.352 999.536 407.406 1029.44 C 410.653 1047.13 410.764 1076.51 386.505 1078.22 C 347.174 1080.98 300.068 1055.74 269.846 1032.45 C 221.839 995.448 171.215 941.184 158.717 880.055 C 154.576 859.812 166.544 850.833 184.74 848.306 z" fill="rgb(247,248,243)" transform="translate(0,0)"></path>
<path d="M 1265.82 850.678 C 1282.83 855.773 1309.88 860.878 1327.77 864.85 L 1437.03 889.055 C 1429.82 913.944 1424.13 940.724 1416.4 965.163 C 1401.83 969.535 1387.43 975.687 1375.62 985.393 C 1372.92 987.058 1369.67 983.073 1367.32 981.328 C 1329.27 953.127 1278.55 957.314 1242.19 985.356 C 1237.04 980.331 1235.1 978.934 1229.05 974.939 C 1233.6 960.689 1237.44 945.446 1241.86 931.005 C 1250.05 904.272 1258.3 877.607 1265.82 850.678 z" fill="rgb(72,150,41)" transform="translate(0,0)"></path>
<path d="M 685.952 906.176 C 688.616 906.112 691.436 905.672 693.796 906.699 C 749.175 908.405 859.165 918.366 900.442 959.857 C 905.886 965.329 911.094 973.527 910.484 981.606 C 909.934 988.886 904.945 996.811 899.76 1001.81 C 894.845 1007.17 892.91 1008.78 887.068 1013.15 C 887.627 1003.01 888.044 1001.47 885.646 991.246 C 872.118 947.943 821.263 932.016 782.123 952.834 C 765.823 942.279 752.711 940.662 736.92 953.093 L 736.052 952.071 C 715.597 928.172 679.129 937.428 658.025 955.729 C 640.072 947.96 619.79 942.55 608.238 963.577 C 603.977 962.663 599.698 962.137 595.383 961.53 C 594.627 958.174 592.736 950.036 590.657 947.623 C 570.232 923.924 542.773 933.618 538.241 963.371 L 536.759 964.067 C 530.739 961.728 531.161 951.987 525.947 946.4 C 524.703 945.689 524.666 945.787 523.897 944.643 C 508.071 934.669 489.666 936.92 481.361 955.396 C 478.041 962.782 478.666 968.012 478.911 975.959 C 466.934 983.318 464.436 987.558 463.402 1001.44 C 446.757 983.204 451.21 965.13 470.362 951.164 C 502.83 927.487 545.093 919.189 583.958 912.726 L 585.668 912.483 C 593.473 911.392 601.301 910.475 609.147 909.734 C 610.272 909.064 610.252 909.171 611.6 909.311 L 618.365 908.817 C 620.928 909.3 623.441 908.513 626.029 907.958 L 631.371 907.81 C 633.445 906.262 637.381 907.053 640.213 907.167 L 647.964 906.956 C 654.168 907.263 656.793 906.932 663.02 906.133 L 685.952 906.176 z" fill="rgb(25,155,104)" transform="translate(0,0)"></path>
<path d="M 885.646 991.246 C 886.997 991.706 897.515 1000.04 899.76 1001.81 C 894.845 1007.17 892.91 1008.78 887.068 1013.15 C 887.627 1003.01 888.044 1001.47 885.646 991.246 z" fill="rgb(205,235,221)" transform="translate(0,0)"></path>
<path d="M 631.371 907.81 C 633.445 906.262 637.381 907.053 640.213 907.167 C 636.443 907.958 635.202 908.304 631.371 907.81 z" fill="rgb(32,92,62)" transform="translate(0,0)"></path>
<path d="M 685.952 906.176 C 688.616 906.112 691.436 905.672 693.796 906.699 C 690.268 907.273 689.529 906.907 685.952 906.176 z" fill="rgb(32,92,62)" transform="translate(0,0)"></path>
<path d="M 609.147 909.734 C 610.272 909.064 610.252 909.171 611.6 909.311 C 610.58 909.993 610.577 909.825 609.147 909.734 z" fill="rgb(32,92,62)" transform="translate(0,0)"></path>
<path d="M 523.897 944.643 C 525.356 945.399 525.334 945.185 525.947 946.4 C 524.703 945.689 524.666 945.787 523.897 944.643 z" fill="rgb(32,92,62)" transform="translate(0,0)"></path>
<path d="M 155.599 867.141 C 155.6 867.988 155.607 868.835 155.619 869.682 C 156.369 919.881 203.886 975.804 237.995 1008.75 C 239.007 1009.23 239.017 1009.13 239.439 1010.11 L 247.951 1017.77 C 248.994 1018.24 249.003 1018.14 249.431 1019.13 C 285.924 1050.75 343.326 1086.6 393.683 1079.43 C 377.053 1096.5 369.543 1106.2 344.729 1107.3 C 342.85 1108.86 341.152 1108.78 339.265 1107.3 C 287.87 1105.3 233.072 1062.16 198.634 1026.53 C 170.618 997.557 133.075 949.512 133.307 907.021 C 133.416 886.964 142.28 879.847 155.599 867.141 z" fill="rgb(247,248,243)" transform="translate(0,0)"></path>
<path d="M 339.265 1107.3 C 341.825 1106.98 342.169 1106.98 344.729 1107.3 C 342.85 1108.86 341.152 1108.78 339.265 1107.3 z" fill="rgb(91,107,97)" transform="translate(0,0)"></path>
<path d="M 432.54 614.281 C 511.822 607.403 648.453 737.363 645.975 820.252 C 645.33 841.847 636.673 848.865 622.163 862.497 C 622.251 856.984 622.047 851.297 621.92 845.77 C 621.724 844.002 621.474 842.24 621.17 840.487 C 610.696 778.943 551.348 713.973 502.133 679.018 C 472.024 657.633 427.956 633.993 390.03 640.464 C 405.157 624.814 410.423 617.703 432.54 614.281 z" fill="rgb(247,248,243)" transform="translate(0,0)"></path>
<path d="M 1765.33 1001.32 C 1786.86 978.112 1805.82 966.647 1838.51 964.927 C 1887.09 962.37 1933.59 997.79 1935.09 1048.15 C 1935.85 1070.24 1927.62 1091.69 1912.28 1107.59 C 1903.14 1116.91 1892.45 1124.55 1880.68 1130.17 C 1880.1 1121.12 1880.58 1118.27 1871.64 1114.32 L 1869.64 1112.49 C 1868.41 1107 1868.49 1099.76 1869.43 1094.23 C 1900.28 1082.51 1894.94 1052.84 1891.42 1026.52 C 1900.18 1018.99 1898.7 1007.28 1890.73 999.47 C 1871.48 980.586 1856.7 975.082 1841.08 1001.18 C 1832.54 997.614 1824.56 994.189 1815.36 997.768 C 1805.04 1001.78 1802.82 1010.51 1803.96 1020.27 C 1786.26 1032.33 1782.27 1045.48 1802.29 1058.42 C 1806.99 1061.46 1811.97 1062.12 1815.84 1065.86 C 1813.79 1072.76 1799.33 1104.64 1795.26 1109.62 C 1793.28 1109.2 1791.07 1107.9 1788.45 1107.34 C 1783.65 1105.42 1781.64 1117.62 1778.21 1115.46 C 1770.1 1110.35 1757.96 1095.29 1754.29 1087.12 C 1760.22 1080.06 1759.97 1080.25 1763.43 1072.08 C 1767.43 1062.64 1766.44 1036.98 1762.19 1028.48 C 1761.28 1020.51 1770.8 1020.93 1765.33 1001.32 z" fill="rgb(205,235,221)" transform="translate(0,0)"></path>
<path d="M 468.268 588.564 C 470.258 587.067 474.718 587.133 476.748 588.505 C 513.011 592.61 533.899 605.601 562.926 626.159 C 588.412 646.31 604.264 661.21 625.796 685.471 C 662.834 731.124 697.716 790.349 644.826 840.245 C 670.708 757.206 542.201 638.23 469.359 616.55 C 448.933 610.47 434.4 609.956 414.402 616.167 C 431.527 598.688 443.737 591.169 468.268 588.564 z" fill="rgb(247,248,243)" transform="translate(0,0)"></path>
<path d="M 468.268 588.564 C 470.258 587.067 474.718 587.133 476.748 588.505 C 473.486 589.165 471.532 589.141 468.268 588.564 z" fill="rgb(91,107,97)" transform="translate(0,0)"></path>
<path d="M 132.875 889.901 C 132.927 891.359 131.707 898.67 131.511 901.061 C 130.472 913.513 132.054 926.044 136.156 937.846 C 160.913 1009.65 284.897 1133.93 367.268 1105.03 C 357.94 1114.25 354.155 1117.56 342.443 1124.2 C 332.209 1129.08 321.08 1131.81 309.748 1132.2 C 264.495 1134.11 222.876 1103.9 190.697 1074.79 C 155.944 1043.37 111.796 995.112 110.007 945.676 C 109.09 920.325 116.474 907.678 132.875 889.901 z" fill="rgb(247,248,243)" transform="translate(0,0)"></path>
<path d="M 1266.34 848.261 C 1271 834.572 1278.97 796.541 1286.26 788.501 C 1295.14 787.501 1441.28 819.535 1448.74 823.83 C 1449.41 824.448 1449.8 825.004 1450.38 825.722 C 1453.24 835.567 1440.82 874.187 1437.36 886.72 C 1423.97 882.671 1407.39 880.221 1393.59 876.7 C 1352.67 866.257 1306.64 859.177 1266.34 848.261 z" fill="rgb(205,235,221)" transform="translate(0,0)"></path>
<path d="M 1075.24 796.818 C 1075.44 796.82 1075.64 796.813 1075.84 796.823 C 1076.17 796.84 1076.49 796.878 1076.82 796.902 C 1077.06 796.919 1077.31 796.922 1077.55 796.945 C 1086.17 797.744 1200.77 866.095 1208.76 875.142 C 1210.3 883.878 1186.82 921.661 1180.8 932.63 L 1173.89 928.267 C 1130.69 900.295 1079.22 872.81 1034.62 845.374 C 1045.38 832.78 1063.27 805.071 1075.24 796.818 z" fill="rgb(205,235,221)" transform="translate(0,0)"></path>
<path d="M 1193.92 1031.02 C 1210.28 1035.16 1212.06 1035.08 1226.87 1028.6 C 1230.96 1047.81 1233.14 1076.04 1214.46 1088.66 L 1216.66 1089.9 C 1217.36 1089.67 1218.19 1089.3 1218.57 1089.45 C 1226.65 1100.24 1223.72 1100.61 1236.45 1113.14 C 1235.13 1114.52 1219.86 1128.74 1218.65 1125.63 C 1216.94 1121.21 1219.02 1121.68 1214.6 1117.16 L 1213.86 1116.95 L 1211.87 1117.69 C 1207.81 1116.95 1207.06 1117.2 1206.03 1121.43 L 1205.97 1124.82 L 1204.47 1125.87 L 1203.84 1131.13 C 1194.94 1143.7 1152 1137.24 1138.74 1132.7 C 1137.25 1127.43 1136.11 1120.97 1135.01 1115.5 C 1142.06 1099.62 1149.59 1083.6 1156.85 1067.79 C 1161.54 1069.15 1162.2 1069.26 1167.18 1069.19 C 1164.5 1067.17 1160.1 1066.47 1156.09 1064.85 C 1149.86 1052.87 1151.28 1039.88 1167.05 1042.61 C 1181.81 1045.17 1185.05 1044.3 1193.92 1031.02 z" fill="rgb(247,248,243)" transform="translate(0,0)"></path>
<path d="M 1214.46 1088.66 L 1216.66 1089.9 C 1217.36 1089.67 1218.19 1089.3 1218.57 1089.45 C 1226.65 1100.24 1223.72 1100.61 1236.45 1113.14 C 1235.13 1114.52 1219.86 1128.74 1218.65 1125.63 C 1216.94 1121.21 1219.02 1121.68 1214.6 1117.16 L 1213.86 1116.95 C 1210.12 1115.19 1208.16 1115.7 1206.78 1111.92 C 1208.15 1102.56 1204.01 1095.7 1212.14 1092.19 L 1211.61 1090.66 C 1212.79 1089.73 1213.19 1089.39 1214.46 1088.66 z" fill="rgb(205,235,221)" transform="translate(0,0)"></path>
<path d="M 1214.46 1088.66 L 1216.66 1089.9 C 1214.93 1090.92 1213.97 1091.39 1212.14 1092.19 L 1211.61 1090.66 C 1212.79 1089.73 1213.19 1089.39 1214.46 1088.66 z" fill="rgb(91,107,97)" transform="translate(0,0)"></path>
<path d="M 1165.91 1080.92 C 1181.43 1085 1199.19 1095.23 1211.61 1090.66 L 1212.14 1092.19 C 1204.01 1095.7 1208.15 1102.56 1206.78 1111.92 C 1208.16 1115.7 1210.12 1115.19 1213.86 1116.95 L 1211.87 1117.69 C 1207.81 1116.95 1207.06 1117.2 1206.03 1121.43 C 1205.27 1119.04 1205.06 1117.63 1204.62 1115.17 C 1204.77 1114.15 1204.91 1113.3 1205.01 1112.27 C 1196.21 1107.45 1176.6 1088.67 1165.91 1080.92 z" fill="rgb(20,35,28)" transform="translate(0,0)"></path>
<path d="M 1204.62 1115.17 C 1205.06 1117.63 1205.27 1119.04 1206.03 1121.43 L 1205.97 1124.82 L 1204.47 1125.87 C 1203.82 1121.3 1203.95 1119.68 1204.62 1115.17 z" fill="rgb(91,107,97)" transform="translate(0,0)"></path>
<path d="M 1193.76 1044.36 C 1201.09 1045.96 1200.95 1049.26 1198.88 1056.01 C 1192.19 1054.93 1192.93 1050.24 1193.76 1044.36 z" fill="rgb(20,35,28)" transform="translate(0,0)"></path>
<path d="M 1219.13 1044.39 C 1224.65 1046.31 1223.55 1050.82 1222.43 1055.84 C 1221.66 1055.64 1220.62 1055.44 1219.91 1055.23 C 1219.05 1054.97 1218.35 1054.36 1217.96 1053.55 C 1216.62 1050.67 1218.09 1047 1219.13 1044.39 z" fill="rgb(20,35,28)" transform="translate(0,0)"></path>
<path d="M 1200.13 1066.94 C 1202.86 1067.63 1205.93 1069.2 1208.52 1069.29 C 1211.56 1069.39 1212.01 1067.29 1214.41 1070.02 C 1208.18 1073.55 1203.9 1073.07 1200.13 1066.94 z" fill="rgb(20,35,28)" transform="translate(0,0)"></path>
<path d="M 1210.01 1047.51 C 1213 1049.79 1212.82 1054.51 1212.93 1058.15 C 1207.88 1054.62 1208.46 1053.64 1210.01 1047.51 z" fill="rgb(20,35,28)" transform="translate(0,0)"></path>
<path d="M 1163.54 1051.08 C 1166.71 1051.96 1172.21 1054.46 1172.86 1058.08 L 1173.12 1059.27 C 1170.88 1058.21 1164.14 1053.51 1163.54 1051.08 z" fill="rgb(20,35,28)" transform="translate(0,0)"></path>
<path d="M 1365.02 999.346 C 1374.77 989.749 1381.09 983.265 1393.43 976.814 C 1429.89 957.745 1474.87 960.671 1505.91 988.435 C 1502.88 991.89 1499.71 995.346 1496.95 999.009 C 1490.25 994.145 1487.59 995.35 1483.24 992.714 C 1465.67 982.058 1451.64 976.574 1441.11 1001.01 C 1422.76 994.603 1400.28 992.007 1402.4 1020.01 C 1394.89 1024.45 1389.58 1027.67 1387.34 1037.15 C 1386.15 1042.08 1387.06 1047.29 1389.85 1051.52 C 1400.86 1067.91 1418.64 1058.1 1422.01 1067.21 C 1417.18 1078.05 1407.59 1101.39 1401.1 1109.93 C 1389.43 1106.46 1387.51 1110.91 1384.55 1121.36 C 1371.28 1111.89 1361.78 1102.02 1354.61 1087.3 C 1368.26 1070.8 1370.03 1051.05 1363.16 1031.01 L 1361.72 1032.04 C 1361.11 1030.72 1360.48 1029.42 1359.82 1028.12 L 1361.9 1026.52 C 1370.76 1015.78 1370.06 1011.8 1365.02 999.346 z" fill="rgb(205,235,221)" transform="translate(0,0)"></path>
<path d="M 1359.82 1028.12 L 1361.9 1026.52 L 1363.16 1031.01 L 1361.72 1032.04 C 1361.11 1030.72 1360.48 1029.42 1359.82 1028.12 z" fill="rgb(91,107,97)" transform="translate(0,0)"></path>
<path d="M 1231.88 999.931 C 1242.23 988.685 1250.91 980.097 1265.31 974.05 C 1302.85 958.287 1341.25 962.124 1371.74 989.187 C 1368.43 992.596 1366.91 994.335 1364.05 998.159 C 1361.37 996.757 1355.72 993.993 1352.86 993.837 C 1342.75 993.285 1344.24 986.392 1334.38 984.41 C 1318.42 981.201 1311.32 989.052 1304.88 1001.82 C 1293.17 995.868 1278.84 990.631 1271.5 1003.63 C 1269.06 1007.95 1268.27 1014.75 1266.22 1019.37 C 1260.03 1027.58 1248.74 1033.39 1252.85 1045.94 C 1256.29 1056.44 1267.22 1061.73 1277.26 1062.63 C 1280.81 1062.7 1286.55 1061.91 1288.08 1065.44 C 1285.95 1071.53 1270.96 1107.77 1267.6 1109.74 L 1263.03 1107.69 C 1253.74 1108.1 1253.04 1114 1250.93 1121.9 C 1236.1 1109.87 1229.49 1104.38 1220.49 1087.32 C 1233.38 1070.99 1236.37 1047.22 1228.1 1028.13 C 1228.43 1027.18 1228.25 1027.56 1228.75 1026.69 C 1229.54 1025.36 1230.31 1024.01 1231.06 1022.66 C 1235.86 1013.96 1234.49 1008.92 1231.88 999.931 z" fill="rgb(205,235,221)" transform="translate(0,0)"></path>
<path d="M 1498.73 1000.19 C 1503.1 996.287 1506.87 990.83 1511.62 986.882 C 1548.93 955.894 1603.7 958.55 1639.68 989.12 C 1636.38 992.529 1633.85 995.457 1630.79 999.083 C 1621.81 991.089 1615.34 994.57 1613.29 992.589 C 1599.19 978.979 1585 978.938 1572.99 1001.28 C 1553.42 993.216 1533.97 993.203 1535.07 1020.32 C 1528.11 1024.73 1522.92 1028.45 1520.97 1037.34 C 1519.84 1042.44 1520.86 1047.78 1523.78 1052.12 C 1530.43 1062.1 1541.64 1063.13 1552.46 1061.99 C 1552.61 1062.22 1553.99 1064.26 1553.98 1064.51 C 1553.73 1071.25 1536.98 1107.98 1532.98 1109.7 C 1521.2 1106.2 1520.43 1111.68 1518.36 1121.62 C 1503.93 1110.84 1495.78 1103.4 1487.19 1087.6 C 1489.51 1085.32 1491.6 1082.82 1493.44 1080.14 C 1503.02 1066.13 1499.81 1042.14 1496.69 1026.22 C 1497.12 1025.39 1497.55 1024.56 1497.98 1023.72 C 1503.21 1013.42 1502.35 1011.15 1498.73 1000.19 z" fill="rgb(205,235,221)" transform="translate(0,0)"></path>
<path d="M 1236.15 808.962 C 1240.86 815.314 1249.45 824.653 1254.85 830.869 L 1255.7 832.139 C 1258.52 835.443 1262.6 839.971 1265.07 843.35 C 1252.81 886.69 1239.27 930.253 1226.56 973.511 C 1203.21 962.983 1192.83 962.159 1167.51 962.123 C 1176.11 946.238 1184.81 930.406 1193.6 914.627 C 1198.29 906.3 1208.45 889.293 1211.54 881.036 C 1212.23 878.558 1211.89 877.755 1211.44 875.262 C 1209.01 870.684 1206.95 869.39 1203.01 866.172 C 1208.03 859.369 1215.12 846.308 1219.48 838.737 C 1220.53 837.559 1223.54 831.96 1224.5 830.258 C 1228.44 823.19 1232.32 816.091 1236.15 808.962 z" fill="rgb(72,150,41)" transform="translate(0,0)"></path>
<path d="M 1632.56 999.844 C 1640.91 991.383 1647.49 984.58 1657.99 978.58 C 1694.08 957.947 1742.44 959.819 1773.48 988.807 C 1770.35 992.433 1766.84 996.01 1764.88 1000.34 C 1741.65 987.894 1717.83 971.392 1702.91 1002.2 C 1681.01 991.404 1666.12 994.221 1664.71 1019.76 C 1664.64 1021.07 1656.69 1026.47 1655.63 1027.93 C 1644.11 1049.19 1655.97 1060.14 1677.24 1061.82 C 1683.56 1062.31 1685.2 1061.52 1688.7 1066.91 C 1684.95 1073.26 1670.95 1107.71 1666.47 1109.34 C 1663.48 1110.44 1659.99 1107.28 1656.24 1109.89 C 1652.93 1112.19 1652.71 1117.23 1652.09 1120.91 C 1636.67 1109.81 1631.6 1102.76 1621.6 1087.25 C 1638.74 1068.9 1634.48 1052.18 1630.46 1029.46 C 1630.85 1023.33 1633.49 1020.22 1636.52 1015.05 C 1635.54 1009.58 1634.15 1005.17 1632.56 999.844 z" fill="url(#Gradient1)" transform="translate(0,0)"></path>
<path d="M 1854.11 1029.87 C 1871.85 1035.6 1871.38 1034.75 1887.9 1029.54 L 1889.91 1031 C 1890.8 1057.06 1898.28 1079.94 1868 1091.86 C 1857.98 1091.74 1839.01 1083.97 1827.86 1080.63 C 1833.75 1085.48 1865.22 1109.11 1866.13 1114.33 C 1866.24 1114.96 1866.17 1115.75 1866.14 1116.39 C 1865.21 1121.12 1865.23 1130.26 1865.08 1135.41 C 1843.54 1140.5 1823.08 1139.5 1802.59 1131.22 C 1799.8 1125.33 1798.81 1122.81 1796.92 1116.57 C 1799 1106.66 1812.82 1079.97 1817.88 1068.36 C 1820.62 1068.82 1823.4 1069.41 1825.81 1068.32 C 1822.6 1066.89 1820.33 1066.13 1816.98 1065.05 C 1813.87 1060.93 1809.31 1050.9 1813.81 1046.57 C 1821.31 1039.35 1834.36 1043.24 1843.78 1042.79 C 1850.2 1039.59 1851.04 1036.3 1854.11 1029.87 z" fill="rgb(247,248,243)" transform="translate(0,0)"></path>
<path d="M 1856.61 1044.43 C 1862.72 1047.11 1861.6 1050.11 1859.51 1056.07 C 1853.77 1052.81 1853.78 1050.22 1856.61 1044.43 z" fill="rgb(20,35,28)" transform="translate(0,0)"></path>
<path d="M 1880.72 1045.35 C 1887.49 1046.82 1885.24 1051.09 1883.13 1056.77 C 1877.57 1053.81 1878.4 1050.65 1880.72 1045.35 z" fill="rgb(20,35,28)" transform="translate(0,0)"></path>
<path d="M 1861.51 1067.84 C 1865.49 1068.61 1869.8 1071.45 1873.24 1069.54 C 1875.52 1068.28 1875.52 1067.77 1877.29 1069.61 C 1871.06 1075.02 1867.51 1073.91 1861.51 1067.84 z" fill="rgb(20,35,28)" transform="translate(0,0)"></path>
<path d="M 1822.58 1051.26 C 1828.41 1051.84 1830.94 1052.69 1833.21 1058.37 C 1830.07 1056.51 1823.09 1053.83 1822.58 1051.26 z" fill="rgb(20,35,28)" transform="translate(0,0)"></path>
<path d="M 1871.1 1046.6 C 1875.31 1049.05 1874.08 1050.81 1874.06 1055.62 C 1870.83 1054.27 1870.34 1053.53 1870.75 1049.76 L 1871.1 1046.6 z" fill="rgb(20,35,28)" transform="translate(0,0)"></path>
<path d="M 1359.82 1028.12 C 1360.48 1029.42 1361.11 1030.72 1361.72 1032.04 C 1366.69 1053.65 1366.03 1087.01 1338.72 1092.74 C 1325.29 1089.73 1313.76 1084.81 1300.8 1081.5 C 1307.61 1087 1334.62 1107.41 1338.77 1112.79 C 1337.88 1118.59 1337.38 1127.48 1336.82 1133.65 C 1314.49 1140.66 1294.81 1139.93 1272.83 1132.68 C 1270.84 1126.46 1269.3 1122.19 1268.56 1115.62 C 1276.11 1099.7 1283.37 1083.63 1290.33 1067.44 C 1294.1 1068.73 1295.88 1069.63 1299.92 1069.1 C 1291.92 1064.63 1290.04 1064.85 1286.94 1056.97 L 1286.5 1055.82 C 1291.44 1025.73 1312.66 1058.56 1327.38 1031.08 C 1341.41 1034.71 1347.14 1035.45 1359.82 1028.12 z" fill="rgb(247,248,243)" transform="translate(0,0)"></path>
<path d="M 1328.6 1044.3 C 1334.59 1047.17 1334.07 1049.83 1332.85 1056.07 C 1325.82 1055.38 1327.2 1050.54 1328.6 1044.3 z" fill="rgb(20,35,28)" transform="translate(0,0)"></path>
<path d="M 1353.63 1045.44 C 1354.2 1045.62 1354.77 1045.8 1355.34 1045.98 C 1356.38 1046.32 1357.21 1047.09 1357.64 1048.09 C 1358.6 1050.35 1357.25 1053.58 1356.49 1055.65 C 1350.34 1053.66 1350.96 1050.67 1353.63 1045.44 z" fill="rgb(20,35,28)" transform="translate(0,0)"></path>
<path d="M 1343.92 1046.49 C 1347.61 1049.45 1347.01 1053.99 1344.68 1057.66 C 1341.02 1053.1 1341.27 1051.85 1343.92 1046.49 z" fill="rgb(20,35,28)" transform="translate(0,0)"></path>
<path d="M 1334.9 1068.11 C 1339.35 1069.54 1347.18 1069.3 1348.5 1070.88 C 1341.9 1073.63 1339.28 1074.23 1334.9 1068.11 z" fill="rgb(20,35,28)" transform="translate(0,0)"></path>
<path d="M 1295.38 1050.94 C 1302.32 1050.98 1304.61 1052.09 1308.32 1058.28 C 1304.19 1057.03 1298.73 1053.52 1295.38 1050.94 z" fill="rgb(20,35,28)" transform="translate(0,0)"></path>
<path d="M 1615.78 1035.43 C 1619.06 1033.14 1623.52 1029.49 1627.2 1028.71 L 1629.08 1030.34 L 1629.1 1031.33 C 1629.7 1055.82 1638.89 1082.16 1606.42 1092.24 C 1595.77 1091.96 1583.23 1086.17 1573.06 1082.31 L 1569.42 1080.38 L 1568.51 1080.87 C 1570.01 1083.39 1569.99 1083.3 1572.25 1085.21 C 1579.13 1091.17 1603.07 1107.63 1604.77 1114.16 C 1604.17 1119.15 1604.13 1128.1 1603.93 1133.4 C 1580.05 1141.25 1563.12 1139.79 1539.73 1132.93 C 1537.72 1126.09 1536.55 1121.12 1535.16 1114.11 C 1542.35 1104.05 1548.79 1083.09 1555.32 1071.82 C 1556.56 1069.68 1562.29 1069.43 1565.13 1069.49 L 1566.27 1069.52 L 1565.92 1068.67 C 1558.89 1066.1 1557.86 1065.78 1554.17 1059.16 L 1553.61 1058.14 C 1551.83 1033.5 1570.02 1045.79 1583.57 1042.42 C 1588.64 1041.16 1590.95 1035.7 1593.18 1031.2 C 1599.76 1031.84 1609.1 1034.05 1615.78 1035.43 z" fill="rgb(247,248,243)" transform="translate(0,0)"></path>
<path d="M 1594.59 1044.15 C 1601.89 1046.81 1601.96 1048.31 1599.5 1055.65 C 1591.63 1052.66 1592.85 1051.59 1594.59 1044.15 z" fill="rgb(20,35,28)" transform="translate(0,0)"></path>
<path d="M 1620.75 1044.54 C 1626.94 1047.62 1624.28 1052.43 1621.34 1056.97 C 1616.62 1052.19 1617.25 1050.27 1620.75 1044.54 z" fill="rgb(20,35,28)" transform="translate(0,0)"></path>
<path d="M 1609.79 1046.69 C 1614.4 1050.39 1613.72 1052.09 1611.71 1057.41 C 1607.36 1054.76 1608.45 1051.23 1609.79 1046.69 z" fill="rgb(20,35,28)" transform="translate(0,0)"></path>
<path d="M 1601.46 1067.92 C 1602.35 1068.03 1604.19 1068.21 1604.99 1068.6 C 1610.88 1071.49 1611.03 1067.53 1615.78 1069.21 C 1610.84 1074.51 1606.17 1072.51 1601.46 1067.92 z" fill="rgb(20,35,28)" transform="translate(0,0)"></path>
<path d="M 1563.39 1050.88 C 1568.9 1051.35 1570.34 1053.05 1574.85 1057.15 C 1569.37 1056.57 1567.64 1055.08 1563.39 1050.88 z" fill="rgb(20,35,28)" transform="translate(0,0)"></path>
<path d="M 1461.54 1031.34 C 1482.87 1036.72 1478.04 1032.64 1494.83 1028.28 C 1496.75 1045.36 1501.06 1066.65 1489.96 1081.1 C 1484.81 1087.81 1476.76 1090.59 1474.15 1093.76 C 1462.76 1092.24 1444.78 1084.06 1433.26 1080.27 C 1438.72 1085.06 1468.72 1111.14 1473.19 1113.34 C 1472.95 1119.17 1470.96 1124.69 1470.78 1133.18 C 1447.3 1140.84 1428.82 1140.3 1405.85 1132.68 C 1405 1127.5 1403.13 1121.09 1401.77 1115.89 C 1409.97 1100.52 1417.27 1084.69 1423.61 1068.48 C 1426.65 1068.2 1429.78 1071.12 1433.83 1069.31 C 1426.78 1065.6 1414.46 1058.64 1418.89 1049.7 C 1424.25 1038.91 1437.44 1041.81 1445.23 1044.77 C 1454.44 1040.78 1455.62 1039.55 1461.54 1031.34 z" fill="rgb(247,248,243)" transform="translate(0,0)"></path>
<path d="M 1462.63 1044.4 C 1466.82 1046.42 1469.36 1049.16 1466.93 1053.97 L 1465.82 1056.15 C 1459.27 1054.07 1460.04 1049.7 1462.63 1044.4 z" fill="rgb(20,35,28)" transform="translate(0,0)"></path>
<path d="M 1486.89 1045.39 C 1492.3 1048.67 1491.38 1051.52 1488.43 1056.23 C 1482.23 1053.72 1483.6 1051.21 1486.89 1045.39 z" fill="rgb(20,35,28)" transform="translate(0,0)"></path>
<path d="M 1475.67 1047.07 C 1481.78 1049.12 1480.33 1050.63 1479.67 1056.94 C 1474.21 1056.75 1475.72 1051.74 1475.67 1047.07 z" fill="rgb(20,35,28)" transform="translate(0,0)"></path>
<path d="M 1467.4 1067.96 C 1471.42 1068.41 1472.05 1069.53 1475.01 1069.83 C 1477.82 1070.11 1477.95 1067.95 1481.68 1069.23 C 1477.58 1072.46 1471.76 1074.06 1468.25 1069.1 L 1467.4 1067.96 z" fill="rgb(20,35,28)" transform="translate(0,0)"></path>
<path d="M 1431.39 1050.99 C 1435.45 1052.52 1437.93 1054.14 1440.37 1057.71 C 1435.74 1056.61 1430.87 1056.32 1431.39 1050.99 z" fill="rgb(20,35,28)" transform="translate(0,0)"></path>
<path d="M 1750.23 1033.81 C 1753.2 1032.18 1758.26 1027.84 1760.66 1027.89 C 1764.5 1052.1 1769.34 1080.87 1741.07 1091.64 C 1728.42 1091.4 1711.58 1084.07 1698.63 1080.12 C 1711.66 1090.83 1725.39 1101.76 1737.77 1113.14 C 1737.12 1119.98 1737.05 1127 1736.86 1133.88 C 1715.08 1140.35 1695.1 1139.44 1673.65 1132.54 C 1671.45 1125.99 1670.35 1121.33 1668.84 1114.55 C 1675.76 1101.42 1681.04 1087.2 1687.5 1073.85 C 1689.48 1069.75 1695.64 1069.38 1699.39 1068.41 L 1697.85 1066.98 C 1693.61 1066.78 1692.69 1066.4 1689.08 1064.18 C 1685.98 1058.37 1683.71 1052.03 1687.25 1045.76 C 1699.54 1036.21 1712.28 1053.89 1726.99 1031.14 C 1736.34 1033.65 1740.53 1033.91 1750.23 1033.81 z" fill="rgb(247,248,243)" transform="translate(0,0)"></path>
<path d="M 1727.35 1044.23 C 1734.72 1047.07 1733.12 1048.74 1731.45 1056.1 C 1724.96 1055.59 1726.8 1049.38 1727.35 1044.23 z" fill="rgb(20,35,28)" transform="translate(0,0)"></path>
<path d="M 1753.31 1044.5 C 1757.76 1047.15 1757.25 1051.41 1755.67 1055.8 C 1748.82 1053.32 1750.39 1050.15 1753.31 1044.5 z" fill="rgb(20,35,28)" transform="translate(0,0)"></path>
<path d="M 1733.17 1066.74 C 1735.75 1067.84 1737.34 1069.24 1740.02 1070.08 C 1743.21 1071.07 1745.09 1067.79 1746.31 1067.52 C 1746.28 1067.99 1746.25 1068.45 1746.22 1068.91 L 1746.11 1070.04 C 1742.96 1076.29 1736 1071.36 1733.17 1066.74 z" fill="rgb(20,35,28)" transform="translate(0,0)"></path>
<path d="M 1741.92 1047.27 C 1747.73 1049.34 1746.32 1050.86 1745.21 1056.67 C 1741.03 1057.15 1742.06 1050.51 1741.92 1047.27 z" fill="rgb(20,35,28)" transform="translate(0,0)"></path>
<path d="M 1696.22 1051.9 C 1702.01 1052.29 1703.38 1053.66 1707.88 1058.2 C 1702.28 1057.61 1700.38 1056.18 1696.22 1051.9 z" fill="rgb(20,35,28)" transform="translate(0,0)"></path>
<path d="M 1300.31 762.082 C 1317.93 765.126 1333.43 763.46 1350.95 763.794 C 1385.43 764.453 1424.2 761.844 1458.2 764.004 C 1453.51 782.193 1447.63 800.25 1442.9 818.664 C 1394.4 806.796 1343.28 798.382 1295.19 785.909 C 1297.71 778.164 1299.43 770.18 1300.31 762.082 z" fill="rgb(247,248,243)" transform="translate(0,0)"></path>
<path d="M 878.184 671.6 L 897.967 672.049 C 897.948 674.202 897.99 676.356 898.091 678.508 C 899.243 700.937 909.373 720.039 925.918 734.892 C 926.781 735.201 927.061 735.328 927.423 736.17 C 939.841 746.008 950.964 752.278 966.664 755.635 C 1015.49 766.075 1068.13 738.818 1078.08 687.779 C 1079.07 682.71 1079.6 677.281 1080.15 672.111 C 1085.92 672.022 1093.34 671.697 1098.97 672.075 C 1098.76 733.422 1049.95 774.917 990.629 777.129 L 985.34 776.93 C 956.221 776.952 928.28 765.435 907.634 744.901 C 887.392 724.471 877.881 700.167 878.184 671.6 z" fill="rgb(205,235,221)" transform="translate(0,0)"></path>
<path d="M 925.918 734.892 C 926.781 735.201 927.061 735.328 927.423 736.17 C 926.493 735.594 926.632 735.72 925.918 734.892 z" fill="rgb(91,107,97)" transform="translate(0,0)"></path>
<path d="M 503.988 941.132 C 523.613 942.493 526.444 948.559 531.841 965.974 C 552.161 969.71 563.232 975.982 552.943 998.399 C 568.225 1021.21 550.566 1015.09 545.931 1034.21 C 545.523 1035.9 546.485 1035.91 544.6 1038.31 C 541.492 1038.4 528.651 1034.33 524.874 1033.24 L 522.096 1019.81 C 524.563 1017.3 529.62 1012.99 529.412 1009.5 C 525.944 1010.68 523.303 1014.27 520.673 1017.12 C 519.277 1008.97 517.819 1003.7 515.578 995.827 C 518.28 993.341 524.803 987.796 524.587 984.305 L 525.366 983.795 C 522.365 984.687 517.187 990.216 514.675 992.644 C 512.772 987.459 511.189 981.145 509.69 975.735 C 508.924 971.734 508.804 969.701 506.751 966.144 L 506.076 967.337 C 507.056 977.765 508.344 981.738 511.385 991.768 C 508.111 990.275 503.38 987.752 499.928 988.163 C 501.548 991.057 508.841 993.631 512.277 995.13 C 515.214 1002.29 516.893 1010.34 518.724 1017.9 C 515.906 1016.81 508.513 1013.35 506.064 1014.74 C 509.85 1017.98 514.764 1019.25 519.52 1020.91 L 522.128 1032.69 C 499.915 1025.28 436.981 1003.09 482.438 977.204 C 480.851 958.04 483.076 946.055 503.988 941.132 z" fill="rgb(205,235,221)" transform="translate(0,0)"></path>
<path d="M 540.864 965.122 C 543.333 945.2 556.419 929.624 579.025 940.601 C 588.335 945.121 590.762 954.45 593.317 963.773 L 607.991 966.54 C 610.662 969.475 612.378 972.091 614.63 975.323 C 601.775 991.967 612.186 1004.77 627.334 1013.34 C 625.067 1018.14 622.232 1023.71 620.717 1028.71 C 611.57 1022.32 608.449 1016.11 599.683 1010.48 C 595.1 1007.54 581.696 1009.04 579.115 1006.92 C 580.185 1004.8 580.516 1004.53 580.675 1002.13 L 579.177 1001.78 C 577.689 1003.12 577.568 1003.57 575.67 1003.88 C 573.613 1000.38 573.787 997.387 573.479 993.281 C 575.83 990.704 583.403 983.383 582.797 979.987 C 578.293 982.642 575.598 986.752 572.356 990.892 C 572.081 985.663 570.251 966.437 567.64 962.812 C 567.391 970.883 568.943 979.174 570.124 987.196 C 567.274 985.1 565.148 983.021 561.753 982.523 C 562.882 985.378 568.07 989.334 570.639 991.588 C 571.818 998.445 572.863 1004.8 573.741 1011.72 C 572.01 1012.41 572.124 1012.26 570.816 1013.42 C 559.391 1016.61 561.738 1008.72 556.348 998.869 L 559.46 982.294 C 555.916 970.137 552.481 968.083 540.864 965.122 z" fill="rgb(205,235,221)" transform="translate(0,0)"></path>
<path d="M 751.812 995.749 C 759.14 976.202 770.014 961.783 790.676 951.861 C 831.477 932.266 891.09 964.755 884.312 1013.15 C 883.694 1017.55 868.638 1023.23 864.021 1025.23 C 870.776 997.772 859.179 974.036 830.693 967.423 C 817.06 964.128 802.674 966.474 790.793 973.929 C 776.796 982.768 766.91 999.158 766.598 1015.81 C 764.286 1016.34 759.244 1015.32 756.629 1014.95 C 756.475 1009.38 753.54 1001.31 751.812 995.749 z" fill="rgb(205,235,221)" transform="translate(0,0)"></path>
<path d="M 1268.79 751.997 C 1276.37 751.226 1279.83 751.051 1287.41 751.436 C 1291.36 754.09 1296.25 757.304 1299.01 761.249 C 1294.09 784.232 1298.31 782.115 1284.01 787.108 C 1279.09 788.826 1268.65 832.799 1266.46 840.928 C 1256.97 830.476 1246.66 817.84 1237.13 806.96 C 1247.21 789.305 1258.2 769.045 1268.79 751.997 z" fill="rgb(247,248,243)" transform="translate(0,0)"></path>
<path d="M 665.249 997.397 C 674.071 994.974 680.189 993.178 689.542 992.881 C 701.921 992.488 714.243 998.719 705.812 1012.67 C 693.576 1032.92 653.777 1043.68 633.609 1030.92 C 631.192 1029.36 628.912 1027.6 626.793 1025.65 C 622.567 1011.35 655.296 1000.82 665.249 997.397 z" fill="rgb(205,235,221)" transform="translate(0,0)"></path>
<path d="M 674.272 1004.52 C 677.92 1007.71 672.661 1009.41 673.46 1011.16 C 675.261 1015.09 682.392 1010.88 686.56 1015.5 L 687.33 1016.29 C 684.415 1016.62 683.383 1016.33 680.505 1016.02 C 671.353 1015.04 667.409 1015.02 674.272 1004.52 z" fill="rgb(20,35,28)" transform="translate(0,0)"></path>
<path d="M 652.478 1013.33 C 663.657 1015.36 668.658 1014.34 661.457 1026.15 C 659.003 1023.6 662.504 1021.51 661.845 1019.07 C 660.513 1014.14 653.383 1019.48 652.478 1013.33 z" fill="rgb(20,35,28)" transform="translate(0,0)"></path>
<path d="M 784.864 1007.63 C 801.658 997.286 831.928 994.128 843.019 1013.44 C 846.961 1020.31 847.852 1024.63 849.442 1032.09 C 843.633 1033.9 836.741 1036.14 830.844 1037.29 L 828.889 1037.54 C 825.995 1038.27 819.004 1040.48 815.975 1039.86 C 815.351 1039.73 815.071 1038.13 813.583 1038.15 C 812.946 1038.65 812.94 1041.19 811.734 1041.46 C 806.751 1042.54 801.721 1043.64 796.721 1044.69 C 797.765 1042.66 803.141 1032.3 802.512 1030.99 C 800.397 1026.6 796.485 1043.73 794.385 1044.42 C 792.011 1045.19 786.712 1046.31 784.878 1046.71 C 783.394 1043.39 784.134 1037.26 783.928 1032.65 C 779.304 1025.18 780.501 1027.35 774.935 1021.18 L 774.419 1020.6 C 777.082 1015.69 778.373 1014.19 782.174 1010.23 C 783.095 1009.39 783.993 1008.52 784.864 1007.63 z" fill="rgb(205,235,221)" transform="translate(0,0)"></path>
<path d="M 828.889 1037.54 C 827.587 1036.75 820.79 1034.17 821.454 1033.13 C 824.484 1031.99 828.787 1035.32 830.844 1037.29 L 828.889 1037.54 z" fill="rgb(91,107,97)" transform="translate(0,0)"></path>
<path d="M 833.877 1008.94 C 837.267 1012.29 823.986 1019.56 820.846 1022.01 C 818.507 1019.48 831.067 1011.63 833.877 1008.94 z" fill="rgb(20,35,28)" transform="translate(0,0)"></path>
<path d="M 786.155 1011.6 C 788.329 1013.33 797.549 1020.31 797.348 1022.38 C 795.285 1024.27 787.112 1014.96 785.627 1013.35 L 786.155 1011.6 z" fill="rgb(20,35,28)" transform="translate(0,0)"></path>
<path d="M 800.679 1006.37 C 804.784 1009.13 803.912 1013.48 803.393 1018.14 C 800.607 1017.83 800.847 1008.78 800.679 1006.37 z" fill="rgb(20,35,28)" transform="translate(0,0)"></path>
<path d="M 1120.67 1050.82 C 1136.03 1071.41 1146.45 1055.86 1155.27 1065.69 C 1152.01 1073.52 1147.63 1081.02 1144.4 1088.97 C 1141.5 1096.12 1138.11 1103.86 1134.18 1110.34 C 1133.67 1110.66 1132.26 1110.01 1132.01 1109.85 C 1129.41 1108.2 1126.55 1108.05 1123.91 1109.76 C 1119.11 1112.88 1118.69 1117.26 1117.43 1122.18 C 1107.84 1114.49 1099.83 1107.69 1093.12 1097.04 L 1091.48 1094.42 C 1101.94 1080.11 1110.94 1065.58 1120.67 1050.82 z" fill="rgb(205,235,221)" transform="translate(0,0)"></path>
<path d="M 1285.22 537.55 C 1285.9 545.199 1287.06 594.076 1284.24 597.491 C 1283.66 598.203 1283.3 598.511 1282.59 599.212 C 1278.95 602.605 1277.94 603.454 1275.15 607.663 C 1273.07 608.289 1267.79 608.132 1265.3 608.159 C 1249.6 608.33 1235.36 611.443 1220.32 615.707 C 1221.73 613.559 1226.37 607.012 1228.08 605.239 C 1241.51 591.336 1268.91 543.725 1285.22 537.55 z" fill="rgb(247,248,243)" transform="translate(0,0)"></path>
<path d="M 657.309 960.941 C 673.683 942.527 703.092 934.389 725.28 946.448 C 731.06 949.59 724.523 961.525 721.787 964.854 C 710.065 979.12 681.946 984.98 665.14 979.361 C 660.655 970.971 651.173 973.172 657.309 960.941 z" fill="rgb(205,235,221)" transform="translate(0,0)"></path>
<path d="M 675.415 960.271 C 689.201 959.105 690.715 961.366 683.244 971.329 C 679.146 967.989 683.871 968.025 684.947 964.968 C 685.543 963.275 678.231 962.035 675.415 960.271 z" fill="rgb(20,35,28)" transform="translate(0,0)"></path>
<path d="M 697.497 949.662 C 698.83 954.058 696.066 954.319 696.362 956.978 C 696.793 960.86 703.171 958.51 706.356 962.65 C 696.712 961.625 688.83 961.362 697.497 949.662 z" fill="rgb(20,35,28)" transform="translate(0,0)"></path>
<path d="M 1459.96 603.041 C 1477.15 602.992 1496.14 602.344 1513.35 603.746 C 1516.75 604.425 1522.09 606.425 1524.08 609.458 C 1530.77 619.654 1526.62 627.943 1517.29 632.799 C 1500.26 633.076 1481.93 633.816 1464.86 632.99 C 1460.56 632.367 1453.68 630.017 1451.59 625.848 C 1445.91 614.544 1451.62 608.575 1459.96 603.041 z" fill="rgb(247,248,243)" transform="translate(0,0)"></path>
<path d="M 575.287 1012.24 C 597.159 1003.45 603.44 1019.07 618.528 1030.47 C 620.784 1040.22 622.832 1044.1 630.216 1051.22 C 619.508 1050.23 555.808 1043.26 549.559 1037.98 C 548.094 1032.68 552.044 1027.02 554.942 1022.66 C 555.984 1020.48 555.816 1020.33 557.899 1019.34 C 561.318 1017.62 567.999 1016.54 572.261 1015.34 L 570.816 1013.42 C 572.124 1012.26 572.01 1012.41 573.741 1011.72 L 575.287 1012.24 z" fill="rgb(205,235,221)" transform="translate(0,0)"></path>
<path d="M 570.816 1013.42 C 572.124 1012.26 572.01 1012.41 573.741 1011.72 L 575.287 1012.24 C 574.221 1013.28 573.279 1014.26 572.261 1015.34 L 570.816 1013.42 z" fill="rgb(91,107,97)" transform="translate(0,0)"></path>
<path d="M 554.942 1022.66 C 555.984 1020.48 555.816 1020.33 557.899 1019.34 C 557.339 1021.34 556.84 1021.38 554.942 1022.66 z" fill="rgb(91,107,97)" transform="translate(0,0)"></path>
<path d="M 1461.86 572.035 C 1478.32 571.395 1499.99 570.754 1516 572.594 C 1529.41 574.136 1535.12 592.509 1518.38 600.652 C 1502.29 601.028 1483.26 601.961 1467.39 600.57 C 1448.83 598.944 1446.89 582.828 1461.86 572.035 z" fill="rgb(247,248,243)" transform="translate(0,0)"></path>
<path d="M 768.28 1016.58 C 768.525 1015.4 768.779 1014.22 769.041 1013.04 C 772.598 997.18 779.161 983.997 793.414 975.149 C 804.321 968.377 817.509 966.32 829.96 969.449 C 843.229 972.68 851.688 979.589 858.682 990.915 L 851.207 991.277 C 850.217 993.267 838.498 1000.05 836.232 1001.12 L 836.143 1001.89 C 832.484 1000.35 827.907 998.969 824.085 997.694 L 821.315 998.19 C 818.786 997.319 817.145 997.39 816.445 995.045 C 814.783 989.476 814.115 985.406 812.05 979.811 C 811.931 986.506 812.921 990.49 814.612 996.791 C 810.947 997.043 806.194 997.229 802.644 997.726 C 800.004 994.475 798.225 991.531 794.45 990.015 C 794.471 992.867 798.638 995.982 800.773 997.953 C 783.661 1003.55 790.954 996.945 782.333 997.227 L 780.294 998.52 L 780.571 999.59 C 783.722 1000.08 786.224 999.796 787.757 1001.77 C 781.653 1010.26 776.906 1007.44 772.861 1019.82 L 768.28 1016.58 z" fill="rgb(205,235,221)" transform="translate(0,0)"></path>
<path d="M 836.232 1001.12 C 838.334 996.326 846.294 991.64 851.207 991.277 C 850.217 993.267 838.498 1000.05 836.232 1001.12 z" fill="rgb(20,35,28)" transform="translate(0,0)"></path>
<path d="M 824.218 992.675 C 825.426 990.804 832.343 979.838 834.217 980.48 C 835.092 982.262 826.886 992.301 825.521 993.926 L 824.218 992.675 z" fill="rgb(20,35,28)" transform="translate(0,0)"></path>
<path d="M 824.218 992.675 L 825.521 993.926 C 824.781 995.518 824.542 995.978 824.085 997.694 L 821.315 998.19 C 823.048 995.656 823.189 995.558 824.218 992.675 z" fill="rgb(91,107,97)" transform="translate(0,0)"></path>
<path d="M 625.586 1026.34 C 639.725 1047.03 679.248 1039 696.219 1026.19 C 706.271 1018.6 710.602 1012.84 711.777 1000.12 C 725.236 1016.39 721.22 1034.21 706.196 1047.04 C 692.109 1059.06 651.669 1053.2 633.98 1051.52 C 626.865 1044.3 623.119 1040.42 621.912 1029.85 C 623.13 1027.43 623.266 1027.57 625.586 1026.34 z" fill="rgb(205,235,221)" transform="translate(0,0)"></path>
<path d="M 1519.5 639.868 C 1536.58 676.767 1475.72 662.39 1457.24 662.649 C 1446.4 662.801 1447.24 637.538 1456.49 636.919 C 1468.18 636.137 1508.57 633.226 1517.75 637.934 C 1518.74 638.792 1518.79 638.795 1519.5 639.868 z" fill="rgb(247,248,243)" transform="translate(0,0)"></path>
<path d="M 1166.21 965.074 C 1192.46 965.027 1220.02 967.024 1239.97 986.737 L 1240.63 987.405 C 1237.89 990.303 1232.21 995.985 1230.31 999.057 C 1227.61 995.773 1224.84 994.329 1220.82 993.199 C 1210.12 990.189 1200.25 980.123 1188.21 984.315 C 1180.61 986.959 1177.02 993.955 1173.63 1000.75 C 1163.46 996.683 1161.16 995.64 1150.3 996.055 L 1166.21 965.074 z" fill="rgb(72,150,41)" transform="translate(0,0)"></path>
<path d="M 711.959 996.68 C 731.924 985.271 730.339 983.916 749.473 998.053 L 754.601 1013.99 C 745.129 1018.7 736.083 1018.4 731.241 1031.01 C 728.41 1038.38 729.401 1042.97 732.501 1049.9 L 733.85 1052.07 C 730.869 1052.64 703.017 1054.65 701.15 1053.49 C 701.316 1052.79 703.504 1051.41 704.095 1051.02 C 724.989 1035.85 730.32 1016.48 711.959 996.68 z" fill="rgb(205,235,221)" transform="translate(0,0)"></path>
<path d="M 1472.12 667.084 C 1476.77 666.566 1500.88 666.305 1504.5 668.138 C 1516.91 674.434 1514.68 688.814 1502.55 694.511 C 1490.19 696.651 1458.72 700.899 1462.92 677.498 C 1463.84 672.398 1468.15 669.807 1472.12 667.084 z" fill="rgb(247,248,243)" transform="translate(0,0)"></path>
<path d="M 754.404 947.298 C 767.231 946.951 768.911 948.577 779.639 954.674 C 765.018 965.993 758.699 973.725 750.709 990.612 C 749.456 994.254 748.381 994.665 745.418 991.633 C 742.996 988.107 736.332 986.399 733.03 985.21 C 732.363 984.97 741.835 972.222 740.723 966 C 739.787 960.761 740.102 959.992 738.523 954.659 C 745.226 950.285 746.288 949.164 754.404 947.298 z" fill="rgb(205,235,221)" transform="translate(0,0)"></path>
<path d="M 692.104 983.738 C 708.099 979.262 727.4 971.689 730.013 952.397 C 730.111 951.67 730.139 951.241 730.635 950.682 C 735.651 949.62 742.056 971.02 732.506 980.068 C 724.741 987.426 719.207 989.64 709.654 995.195 C 706.62 993.572 704.458 992.467 701.376 990.983 C 698.2 988.22 692.629 986.553 692.104 983.738 z" fill="rgb(205,235,221)" transform="translate(0,0)"></path>
<path d="M 1741.45 1093.28 C 1746.52 1092.02 1747.43 1090.99 1751.85 1089.13 C 1759.5 1100.99 1762.69 1104.68 1773.2 1114.34 C 1765 1120.31 1761.18 1123.17 1752.38 1128.03 C 1750.75 1120.93 1751.4 1117.36 1743.23 1114.63 C 1740.25 1113.63 1740.82 1110.84 1740.55 1108.32 C 1740.31 1104.4 1738.71 1095.83 1741.45 1093.28 z" fill="rgb(205,235,221)" transform="translate(0,0)"></path>
<path d="M 858.682 990.915 C 863.115 1000.56 865.839 1010.67 862.738 1021.43 C 861.343 1026.28 855.58 1029.71 851.721 1032.66 C 848.12 1016.84 848.456 1013.89 836.143 1001.89 L 836.232 1001.12 C 838.498 1000.05 850.217 993.267 851.207 991.277 L 858.682 990.915 z" fill="rgb(247,248,243)" transform="translate(0,0)"></path>
<path d="M 1619.65 1088.75 C 1626.64 1100.67 1629.61 1103.97 1638.89 1113.88 C 1613.34 1135.47 1625.16 1121.97 1609.1 1113.8 C 1607.47 1110.53 1607.86 1098.7 1607.95 1094.54 C 1613.11 1092.53 1614.86 1091.45 1619.65 1088.75 z" fill="rgb(205,235,221)" transform="translate(0,0)"></path>
<path d="M 1352.29 1089.21 L 1352.95 1090.31 C 1354.83 1093.34 1357.21 1098.22 1359.55 1100.78 C 1372.7 1115.16 1374.31 1115.3 1353.88 1125.87 L 1353.49 1125.24 C 1346.41 1113.75 1348.75 1119.81 1342.06 1113.51 C 1341.82 1108.4 1340.69 1098.03 1341.58 1093.96 C 1346.44 1093.25 1348 1091.77 1352.29 1089.21 z" fill="rgb(247,248,243)" transform="translate(0,0)"></path>
<path d="M 1474.92 1094.92 C 1478.41 1093.42 1481.64 1091.32 1484.9 1089.37 C 1492.08 1101.4 1494.03 1104.04 1504.31 1114.3 C 1497.72 1120.14 1495.73 1121.17 1487.94 1125.5 C 1480.38 1113.37 1481.08 1119.24 1474.7 1112.71 C 1475.11 1106.62 1474.76 1101.01 1474.92 1094.92 z" fill="rgb(205,235,221)" transform="translate(0,0)"></path>
<path d="M 610.036 963.767 C 622.718 949.558 639.685 947.16 655.112 958.953 C 653.826 961.266 652.105 964.803 650.809 966.833 C 638.603 964.57 625.635 962.618 616.297 973.189 C 614.145 969.654 612.425 967.105 610.036 963.767 z" fill="rgb(205,235,221)" transform="translate(0,0)"></path>
<path d="M 664.543 982.311 C 673.897 984.198 682.519 985.462 692.104 983.738 C 692.629 986.553 698.2 988.22 701.376 990.983 C 694.642 990.632 686.684 989.945 680.014 991.124 C 674.142 992.162 671.739 995.272 665.117 995.332 C 665.033 991.949 664.242 984.667 664.543 982.311 z" fill="rgb(130,218,170)" transform="translate(0,0)"></path>
<path d="M 1125.55 1110.44 C 1135.08 1111.37 1131.31 1115.92 1134.11 1123.51 C 1134.49 1124.54 1136.02 1129.82 1135.01 1130.65 C 1134 1130.84 1133.75 1130.63 1132.63 1130.32 C 1120.6 1124.48 1115.57 1122.19 1125.55 1110.44 z" fill="rgb(247,248,243)" transform="translate(0,0)"></path>
<path d="M 1395.1 1109.58 C 1399.33 1112.62 1406.78 1132.58 1399.56 1129.95 C 1389.4 1124.7 1379.81 1118.04 1395.1 1109.58 z" fill="rgb(247,248,243)" transform="translate(0,0)"></path>
<path d="M 1259.2 1109.76 C 1263.6 1110.23 1266.4 1110.45 1265.88 1115.99 C 1265.38 1121.28 1272.79 1131.65 1266.58 1130.23 C 1254.63 1124.58 1249.03 1122.88 1259.2 1109.76 z" fill="rgb(247,248,243)" transform="translate(0,0)"></path>
<path d="M 1524.75 1110.5 C 1529.96 1110.68 1531.65 1110.39 1532.88 1116 C 1533.71 1119.87 1534.67 1123.72 1535.76 1127.53 C 1536.43 1129.84 1537.03 1130.36 1535.13 1131.15 C 1533.76 1130.4 1532.38 1129.68 1530.99 1128.98 C 1520.36 1123.51 1518.3 1121.43 1524.75 1110.5 z" fill="rgb(247,248,243)" transform="translate(0,0)"></path>
<path d="M 1659.07 1110.37 C 1663.36 1111.15 1666.85 1111.91 1666.73 1116.99 C 1666.61 1121.78 1672.8 1129.43 1667.91 1130.11 C 1656.91 1124.9 1649.44 1122.26 1659.07 1110.37 z" fill="rgb(247,248,243)" transform="translate(0,0)"></path>
<path d="M 1369.1 424.794 C 1374.21 424.049 1380.01 424.397 1385.5 424.397 C 1387.51 424.397 1403.63 421.604 1399.3 428.8 C 1398.51 430.112 1395.4 429.496 1394.08 429.339 C 1387.12 429.898 1377.15 430.185 1370.18 429.424 C 1369.31 429.33 1369.18 425.451 1369.1 424.794 z" fill="rgb(25,155,104)" transform="translate(0,0)"></path>
<path d="M 1868.39 1116.88 C 1869.77 1116.73 1871.14 1116.59 1872.52 1116.46 C 1876.65 1120.15 1879.31 1123.81 1877.75 1130.42 C 1877.4 1131.95 1872.04 1133.27 1870.41 1133.82 L 1867.37 1134.83 C 1867.61 1128.84 1867.71 1122.83 1868.39 1116.88 z" fill="rgb(247,248,243)" transform="translate(0,0)"></path>
<path d="M 1740.29 1116.24 C 1746.59 1118.19 1754.15 1125.84 1747.02 1130.04 C 1734.78 1135.17 1738.57 1128.46 1740.29 1116.24 z" fill="rgb(247,248,243)" transform="translate(0,0)"></path>
<path d="M 1608.2 1115.84 C 1613.75 1118.99 1615.31 1122 1619.18 1126.8 L 1618.46 1127.21 C 1613.71 1129.98 1611.4 1130.54 1606.42 1132.53 C 1606.54 1127.1 1606.82 1121.74 1606.93 1116.34 L 1608.2 1115.84 z" fill="rgb(247,248,243)" transform="translate(0,0)"></path>
<path d="M 1213.86 1116.95 L 1214.6 1117.16 C 1214.55 1118.64 1214.76 1119.58 1214.98 1121.06 C 1217.19 1127.58 1214.78 1129.49 1208.58 1131.55 C 1208.28 1131.64 1207.08 1131.78 1206.73 1131.43 C 1206.26 1130.48 1206.09 1125.9 1205.97 1124.82 L 1206.03 1121.43 C 1207.06 1117.2 1207.81 1116.95 1211.87 1117.69 L 1213.86 1116.95 z" fill="rgb(247,248,243)" transform="translate(0,0)"></path>
<path d="M 1213.86 1116.95 L 1214.6 1117.16 C 1214.55 1118.64 1214.76 1119.58 1214.98 1121.06 C 1213.93 1119.95 1212.89 1118.83 1211.87 1117.69 L 1213.86 1116.95 z" fill="rgb(91,107,97)" transform="translate(0,0)"></path>
<path d="M 1475.33 1116.71 C 1480.89 1119.91 1489.2 1123.41 1481.82 1129.32 C 1481.15 1129.52 1480.49 1129.73 1479.83 1129.96 C 1469.55 1133.57 1473.63 1122.79 1475.33 1116.71 z" fill="rgb(247,248,243)" transform="translate(0,0)"></path>
<path d="M 1341.29 1116.72 C 1346.28 1119.06 1354.61 1124.1 1347.55 1129.68 C 1336.11 1133.56 1339.45 1128.94 1341.29 1116.72 z" fill="rgb(247,248,243)" transform="translate(0,0)"></path>
<path d="M 1284.82 600.246 C 1285.71 604.2 1285.56 607.529 1284.99 611.547 C 1282.19 610.617 1279.37 609.729 1276.54 608.884 C 1279.5 605.003 1280.78 603.259 1284.82 600.246 z" fill="rgb(247,248,243)" transform="translate(0,0)"></path>
<path d="M 1409.54 424.694 C 1410.31 423.791 1411.51 423.376 1412.67 423.608 C 1413.84 423.841 1414.79 424.685 1415.16 425.815 C 1415.52 426.946 1415.25 428.186 1414.44 429.059 C 1413.23 430.373 1411.19 430.473 1409.85 429.284 C 1408.51 428.095 1408.37 426.054 1409.54 424.694 z" fill="rgb(56,193,132)" transform="translate(0,0)"></path>
<metadata><recraft-signature>{"signed_by": "recraft", "signature_b64": "YhkjeHv1sA71Z8IczOwN3RCVJ1/SMfWDjnzTc1fE3xHArRo/LGb269buXn6UJaYZPIx2olu8xA7l+jXJu8/TDQ==", "signing_algo": "Ed25519", "generation_timestamp": 1783309033, "identifier": "8afd2e94-1862-4ad1-bbf3-659e4f53d156"}</recraft-signature></metadata></svg>