<svg xmlns="http://www.w3.org/2000/svg" height="896" preserveAspectRatio="none" style="display: block;" version="1.1" viewBox="0 0 2048 1509" width="1216">
<defs>
	<linearGradient gradientUnits="userSpaceOnUse" id="Gradient1" x1="1248.96" x2="1249.05" y1="561.589" y2="556.965">
		<stop class="stop0" offset="0" stop-color="rgb(0,0,0)" stop-opacity="1"></stop>
		<stop class="stop1" offset="1" stop-color="rgb(27,28,13)" stop-opacity="1"></stop>
	</linearGradient>
</defs>
<path d="M 0 0 L 2048 0 L 2048 1509 L 0 1509 L 0 0 z" fill="rgb(247,248,243)" transform="translate(0,0)"></path>
<path d="M 1203.01 25.8784 C 1315.27 25.4199 1431 24.6666 1543.05 25.9348 L 1543.12 102.966 C 1552.05 101.88 1552.05 101.52 1558.95 106.755 C 1587.4 128.335 1585.79 162.467 1597.66 192.334 C 1600.75 200.105 1620.76 222.609 1627.76 231.873 C 1637.52 228.023 1646.61 224.356 1656.18 220.079 C 1683.78 287.164 1723.39 359.788 1692.86 432.509 C 1676.68 471.036 1645 500.5 1606.58 516.092 C 1583.06 525.554 1557.9 530.24 1532.55 529.878 C 1511.44 529.659 1483.33 523.841 1473.45 548.684 C 1465.73 568.11 1474.38 590.281 1479.53 609.977 L 1495.69 671.088 C 1498.84 682.944 1509.3 725.511 1513.26 735.202 L 1337.02 735.203 L 1337.11 874.909 C 1337.12 892.598 1338.22 933.443 1335.31 947.947 C 1333 959.385 1327.29 969.859 1318.93 977.996 C 1306.4 990.346 1294.76 993.49 1278.15 995.779 C 1313.47 1032.35 1340.93 1060.21 1392.48 1072.94 C 1398.71 1074.48 1412.4 1077.66 1418.34 1077.67 C 1419.28 1077.68 1420.21 1077.63 1421.14 1077.54 C 1422.56 1074.76 1421.94 1074.26 1421.77 1070.6 C 1413.52 1060.16 1371.63 1072.56 1396.06 1035.81 C 1389.95 1022.01 1388.9 1016.02 1392.4 1000.74 L 1384.91 994.761 C 1393.55 985.903 1403.39 976.246 1410.63 966.365 C 1410.72 956.73 1411.76 947.508 1419.3 940.452 C 1429.04 931.353 1444.02 927.358 1457.09 927.664 C 1487.82 927.976 1518.03 950.691 1527.56 979.76 C 1532.25 993.926 1527.62 1008.94 1532.36 1022.77 C 1537.07 1036.48 1560.91 1049.89 1546.71 1065.78 C 1545.01 1067.35 1541.19 1069.47 1538.92 1069.77 C 1521.39 1072.02 1503.49 1075.56 1485.88 1076.41 C 1472.7 1077.04 1471.28 1057.9 1469.75 1048.72 C 1468.72 1042.56 1468.03 1036.52 1466.64 1030.48 C 1463.68 1029.06 1461.83 1028.77 1460.16 1026.36 C 1465.47 1026.47 1476.06 1027.21 1479.64 1023.39 C 1492.38 1009.8 1478.48 995.303 1461.75 1002.96 C 1459.59 999.257 1456.44 994.243 1454.59 990.515 C 1426.33 933.728 1418.9 965.866 1389.4 995.085 L 1396.05 999.59 C 1391.84 1020.17 1392.14 1037.59 1416.11 1044.28 C 1424.68 1046.67 1440.65 1041.3 1443.6 1042.36 C 1435.99 1046.7 1432.75 1047.07 1424.12 1048.4 C 1425.75 1105.01 1420 1131.68 1485.95 1089.32 C 1488.02 1087.99 1498.91 1092.14 1501.04 1092.9 C 1567.42 1116.61 1566.23 1185.35 1573.14 1243.55 C 1575.74 1265.45 1578.57 1288.4 1581.26 1310.39 C 1584.72 1337.54 1578.98 1357.46 1553.3 1370.2 C 1571.49 1409.33 1570.35 1439.23 1545.76 1474.61 C 1558.52 1474.8 1655.89 1474.31 1658.57 1475.96 C 1654.83 1477.57 1651.76 1478.06 1647.69 1478.07 L 543.489 1477.41 C 508.826 1477.35 294.21 1479.73 285.58 1475.98 C 285.259 1475.84 284.945 1475.69 284.627 1475.54 C 290.548 1474.07 312.95 1474.49 320.004 1474.5 L 384.33 1474.61 C 384.66 1447.59 385.141 1420.56 385.775 1393.54 C 386.45 1368.26 383.579 1347.09 400.762 1326.52 C 392.502 1329.88 383.108 1334.4 375.697 1339.37 C 371.561 1346.8 368.345 1352.45 362.306 1358.56 C 346.239 1364.34 344.299 1365.62 333.738 1351.22 C 357.013 1299.42 351.183 1307.35 398.325 1274.71 C 402.576 1263.75 406.574 1252.69 410.316 1241.55 C 405.46 1239.69 400.32 1237.62 395.448 1235.91 L 429.599 1131.15 L 451.524 1062.86 C 469.218 1008.24 480.426 966.197 535.836 937.246 C 546.499 931.795 557.78 927.648 569.435 924.897 L 571.497 908.788 C 559.553 905.931 529.442 900.598 522.425 889.689 C 515.416 878.792 539.094 866.48 542.173 857.442 C 546.442 846.634 545.526 839.165 546.852 828.01 C 550.021 805.53 569.173 786.557 588.867 777.494 C 606.662 769.278 626.982 768.426 645.402 775.124 C 660.624 780.816 688.859 798.33 666.699 814.535 C 672.569 821.375 689.136 839.796 693.545 846.59 L 684.466 852.329 C 690.48 879.908 680.477 898.359 650.676 898.474 C 651.689 906.503 652.613 915.645 654.302 923.47 C 696.619 927.273 724.511 934.027 763.358 950.567 C 759.428 944.502 753.492 935.469 752.617 928.309 C 749.895 906.044 750.984 879.553 751.037 857.049 L 751 729.813 L 645.256 729.721 C 626.6 729.623 595.307 730.237 577.811 726.874 C 557.594 724.907 532.038 713.928 515.872 702.15 C 488.657 682.679 470.525 652.983 465.636 619.878 C 460.234 583.269 473.055 540.445 495.507 511.409 C 537.555 457.03 599.462 431.391 665.229 421.679 L 664.999 378.057 L 678.845 378.21 C 679.4 372.619 679.385 365.108 680.857 359.889 C 666.695 354.39 671.328 352.971 663.473 347.356 C 660.347 345.122 640.492 346.645 635.904 335 C 632.636 326.704 632.584 322.372 633.713 314.007 C 628.286 308.898 623.395 303.524 622.482 295.229 C 621.865 289.624 631.335 276.735 631.383 272.984 C 631.631 253.707 633.22 248.505 654.464 240.899 C 659.754 224.5 673.788 216.851 690.269 222.666 L 691.291 223.035 C 702.378 219.33 708.974 207.67 722.953 214.507 C 729.56 217.738 731.817 220.527 736.342 226.094 C 746.718 225.676 754.434 225.933 762.787 233.274 C 768.443 238.3 771.765 245.444 771.964 253.009 C 772.217 262.869 767.764 269.968 761.075 276.617 C 759.921 277.777 758.74 278.91 757.534 280.015 C 771.731 307.128 781.199 343.583 747.331 360.534 C 745.135 361.619 742.913 362.651 740.668 363.629 L 742.227 378.016 L 772.456 377.878 L 772.407 421.814 C 791.182 424.523 809.41 427.628 827.811 432.231 C 831.599 433.179 835.644 434.129 839.503 434.67 C 863.021 424.883 889.149 408.646 912.644 397.78 C 925.683 399.951 938.696 402.274 951.68 404.748 C 955.151 408.204 958.169 411.166 961.331 414.922 C 980.237 398.573 994.074 391.46 1019.96 393.021 L 1021.38 394.221 L 1020.3 395.549 C 994.378 396.778 983.961 398.796 963.786 417.176 C 977.74 433.145 991.73 447.85 1006.37 463.217 C 1001.69 470.8 993.836 482.846 990.937 490.928 C 1001.43 505.479 1012.76 518.96 1024.01 532.91 L 1012.32 557.23 L 1224.71 557.278 C 1219.51 540.147 1219.92 532.764 1221.19 515.229 C 1103.49 498.43 1046.91 433.063 1065.94 312.893 C 1071.84 275.616 1083.56 249.776 1096.75 215.336 C 1105.25 219.12 1115.24 223.861 1123.78 227.213 C 1140.25 207.492 1152.33 198.81 1157.37 173.052 C 1160.15 158.833 1164.27 140.234 1171.22 127.666 C 1173.65 123.782 1191.73 103.077 1194.92 101.688 C 1198.14 101.74 1200.45 102.426 1202.41 100.752 C 1204.35 86.4696 1202.73 42.9463 1203.01 25.8784 z" fill="rgb(20,35,28)" transform="translate(0,0)"></path>
<path d="M 911.226 996.006 L 1166.09 995.883 C 1207.44 1064.7 1274.85 1161.82 1354.17 1188.06 C 1350.56 1206.74 1349.56 1215.91 1351.16 1234.63 L 1344.69 1242.41 C 1313.38 1229.13 1284.37 1212.03 1253.49 1198.25 L 1248.02 1204.63 C 1240.73 1199.35 1225.78 1190.09 1219.72 1184.42 C 1209.75 1175.1 1209.58 1168.53 1196.28 1160.14 C 1181.66 1160 1167.05 1159.73 1152.44 1159.32 L 1146.17 1167.42 C 1140.2 1166.69 1135.29 1166.3 1129.74 1166.23 C 1122.67 1166.14 1113.65 1175.79 1116.19 1181.52 C 1125.55 1202.67 1167.99 1204.07 1185.8 1214.96 C 1200.25 1223.78 1212.03 1232.7 1225.13 1241.31 C 1219.88 1249.63 1214.4 1257.94 1209.05 1266.2 C 1243.34 1284.7 1291.51 1319.66 1325.72 1332.74 C 1344.42 1338.18 1353.02 1339.66 1372.85 1338.75 C 1374.89 1341.57 1377.25 1345.02 1379.4 1347.68 L 1322.24 1334.33 C 1309.45 1331.66 1296.69 1328.82 1283.97 1325.81 C 1258.95 1320.09 1235.22 1313.32 1211.62 1328.2 C 1201.98 1334.27 1194.27 1342.98 1189.41 1353.29 C 1184.75 1363.42 1180.94 1387.41 1178.4 1399.7 C 1173.33 1424.77 1168.01 1449.8 1162.43 1474.76 L 922.387 1474.73 C 916.763 1421.29 908.996 1365.21 902.425 1311.64 L 895.965 1257.73 C 893.509 1237.2 893.374 1218.83 879.03 1202.44 C 871.939 1194.3 862.772 1188.24 852.507 1184.91 C 840.208 1181.03 811.977 1180.11 798.205 1179.26 C 772.705 1177.82 747.216 1176.19 721.741 1174.38 C 714.71 1155.07 705.858 1115.61 700.793 1094.31 C 709.585 1076.19 713.651 1064.32 715.77 1044.54 C 744.429 1052.14 779.752 1060.65 808.797 1065.63 C 858.574 1074.18 886.733 1032.17 911.226 996.006 z" fill="rgb(247,248,243)" transform="translate(0,0)"></path>
<path d="M 991.807 1118.8 C 1021.85 1118.26 1053.92 1118.82 1084.12 1118.88 C 1084.23 1143.06 1084.22 1167.24 1084.09 1191.42 L 992.139 1191.81 C 991.364 1168.04 991.784 1142.69 991.807 1118.8 z" fill="rgb(20,35,28)" transform="translate(0,0)"></path>
<path d="M 994.759 1121.8 L 1081.24 1121.79 C 1080.63 1142.48 1082.22 1168.42 1080.83 1188.28 C 1052.25 1188.11 1023.68 1188.36 995.104 1189.01 L 994.759 1121.8 z" fill="rgb(192,86,122)" transform="translate(0,0)"></path>
<path d="M 1059.32 1334.46 C 1064.54 1332.98 1070.15 1334.46 1073.97 1338.32 C 1077.78 1342.18 1079.19 1347.81 1077.64 1353.01 C 1076.09 1358.22 1071.84 1362.16 1066.53 1363.31 C 1058.68 1365.02 1050.89 1360.18 1048.95 1352.38 C 1047 1344.58 1051.59 1336.65 1059.32 1334.46 z" fill="rgb(20,35,28)" transform="translate(0,0)"></path>
<path d="M 1059.82 1337.53 C 1065.89 1335.56 1072.42 1338.8 1074.52 1344.82 C 1076.62 1350.85 1073.51 1357.45 1067.53 1359.67 C 1063.55 1361.15 1059.08 1360.36 1055.84 1357.61 C 1052.61 1354.85 1051.12 1350.57 1051.94 1346.4 C 1052.77 1342.24 1055.78 1338.84 1059.82 1337.53 z" fill="rgb(242,165,26)" transform="translate(0,0)"></path>
<path d="M 1246.36 560.062 C 1247.95 560.32 1248.17 560.304 1249.81 560.252 C 1266.56 561.714 1280.35 565.606 1292.8 577.714 C 1308.72 593.202 1309.72 610.235 1309.81 631.263 L 1309.88 835.35 L 1309.89 890.222 C 1309.92 907.279 1311.75 922.71 1304.29 938.572 C 1293.95 960.581 1274.08 969.086 1250.74 969.003 C 1241.31 960.249 1232.23 950.27 1222.87 941.148 C 1221.17 941.099 1220.64 941.515 1219.22 942.408 C 1201.27 928.101 1201.78 916.211 1190.01 901.118 L 1189.2 900.089 C 1183.62 897.514 1155.83 889.768 1149.63 889.959 C 1146.64 891.208 1145.51 894.086 1143.74 897.039 C 1133.8 894.132 1112.33 885.702 1110.54 902.519 C 1110.23 905.653 1111.15 908.784 1113.11 911.25 C 1120.66 920.952 1150.35 933.719 1161.36 943.052 C 1171.87 951.956 1175.92 957.239 1184.69 967.779 C 1157.07 968.748 1124.63 967.989 1096.65 968.006 L 929.824 968.049 C 939.056 953.159 951.533 934.576 961.901 920.521 C 959.528 918.694 956.277 916.623 953.741 914.898 C 957.518 910.224 967.287 897.734 971.066 894.403 C 984.859 882.245 1001.71 870.021 1016.39 858.803 L 1013.36 876.736 C 1055.55 877.435 1095.88 881.937 1138.94 881.975 C 1132.37 853.082 1123.03 810.691 1118.63 781.875 C 1111.98 781.408 1104.55 781.412 1097.83 781.269 C 1097.81 777.512 1097.86 772.113 1097.18 768.525 C 1092.38 743.251 1055.3 742.444 1048.45 766.831 C 1047.43 770.452 1047.62 777.091 1047.6 780.968 L 1031.15 780.942 C 1029.28 791.722 1028.38 799.177 1025.41 809.776 C 1009.26 820.974 989.92 831.945 972.801 842.175 C 978.197 835.351 993.915 820.989 991.647 812.057 C 984.334 804.252 974.501 815.729 968.346 821.032 C 967.19 772.993 968.089 722.676 967.986 674.369 C 956.616 662.641 940.823 643.026 929.922 630.215 C 921.153 630.288 912.061 630.083 903.265 630.003 C 902.921 612.103 899.799 586.72 913.068 572.52 C 927.442 557.138 950.497 560.223 970.072 560.281 L 1025.47 560.444 C 1097.22 560.568 1175.03 562.309 1246.36 560.062 z" fill="rgb(247,248,243)" transform="translate(0,0)"></path>
<path d="M 1198.07 672.139 C 1226.75 667.068 1254.07 686.331 1258.93 715.047 C 1263.78 743.763 1244.31 770.935 1215.56 775.571 C 1187.11 780.158 1160.29 760.941 1155.49 732.531 C 1150.69 704.121 1169.7 677.156 1198.07 672.139 z" fill="rgb(20,35,28)" transform="translate(0,0)"></path>
<path d="M 1198.64 675.163 C 1225.52 670.356 1251.18 688.321 1255.87 715.222 C 1260.55 742.124 1242.47 767.704 1215.54 772.263 C 1188.8 776.791 1163.42 758.851 1158.77 732.125 C 1154.11 705.399 1171.94 679.939 1198.64 675.163 z" fill="rgb(192,86,122)" transform="translate(0,0)"></path>
<path d="M 1198.79 688.32 C 1211.53 685.33 1224.89 689.419 1233.78 699.028 C 1242.67 708.637 1245.7 722.28 1241.72 734.749 C 1237.75 747.217 1227.38 756.586 1214.57 759.277 C 1195.09 763.369 1175.94 751.029 1171.61 731.596 C 1167.29 712.163 1179.41 692.87 1198.79 688.32 z" fill="rgb(20,35,28)" transform="translate(0,0)"></path>
<path d="M 1199.41 691.328 C 1217.13 687.143 1234.9 698.074 1239.15 715.779 C 1243.41 733.483 1232.55 751.295 1214.86 755.618 C 1197.07 759.965 1179.14 749.03 1174.86 731.228 C 1170.59 713.425 1181.59 695.537 1199.41 691.328 z" fill="rgb(192,86,122)" transform="translate(0,0)"></path>
<path d="M 1201.76 703.283 C 1213.3 700.242 1225.11 707.171 1228.08 718.726 C 1231.06 730.282 1224.07 742.054 1212.49 744.967 C 1201.01 747.857 1189.35 740.93 1186.4 729.464 C 1183.45 717.998 1190.31 706.3 1201.76 703.283 z" fill="rgb(20,35,28)" transform="translate(0,0)"></path>
<path d="M 1203.14 706.283 C 1212.85 704.124 1222.49 710.164 1224.78 719.84 C 1227.07 729.515 1221.16 739.236 1211.52 741.656 C 1205.16 743.251 1198.44 741.302 1193.92 736.555 C 1189.41 731.808 1187.79 724.997 1189.7 718.729 C 1191.61 712.461 1196.75 707.705 1203.14 706.283 z" fill="rgb(192,86,122)" transform="translate(0,0)"></path>
<path d="M 1040.69 638.945 C 1058.45 639.047 1076.22 639.005 1093.99 638.819 L 1094 692.014 L 1040.84 692.193 C 1040.67 674.444 1040.62 656.694 1040.69 638.945 z" fill="rgb(20,35,28)" transform="translate(0,0)"></path>
<path d="M 1043.56 641.978 C 1059.36 642.117 1075.15 642.123 1090.94 641.996 C 1091.1 657.474 1091.05 673.603 1090.93 689.102 C 1076.91 689.858 1058.15 689.314 1043.67 689.407 C 1043.75 673.597 1043.71 657.787 1043.56 641.978 z" fill="rgb(242,165,26)" transform="translate(0,0)"></path>
<path d="M 811.007 974.416 C 820.62 969.225 831.47 961.367 840.808 955.39 C 864.186 940.422 897.517 918.878 911.488 894.14 C 924.355 901.71 944.937 914.564 958.174 920.083 C 934.658 951.522 894.979 1022.74 868.702 1044.74 C 857.125 1054.5 843.047 1060.83 828.059 1063.01 C 826.773 1063.19 825.484 1063.35 824.192 1063.48 C 819.543 1062.9 817.914 1063.08 813.393 1063.45 C 790.498 1061.99 698.761 1033.8 686.801 1036.08 C 689.446 1038.59 707.688 1042.48 712.414 1043.65 C 711.73 1062.96 705.334 1077.45 697.279 1094.36 L 717.945 1174.38 C 701.783 1180.21 686.126 1187.36 669.793 1193.13 C 642.205 1203.11 613.759 1201.18 585.013 1200.34 C 559.105 1199.35 532.517 1201.19 506.724 1199.65 C 493.788 1198.4 483.722 1195.86 477.703 1183.4 C 470.695 1168.88 475.471 1152.64 478.365 1137.6 C 480.651 1125.72 483.589 1113.66 486.241 1101.81 L 501.889 1031.67 C 503.042 1026.49 507.166 1012.64 505.884 1008.58 C 503.502 1010.5 502.585 1013.67 501.998 1016.77 C 492.664 1066.08 477.566 1114.98 470.877 1164.63 C 469.942 1171.58 473.123 1182.22 476.859 1188.04 C 482.425 1196.7 488.219 1198.8 497.665 1200.81 C 487.64 1221.01 478.05 1241.42 468.902 1262.03 C 445.699 1252.41 423.216 1244.09 399.999 1233.9 C 407.994 1202.76 423.151 1162.18 433.191 1130.7 L 456.429 1057.4 C 466.107 1027.5 475.506 995.975 496.739 971.841 C 520.044 945.353 551.947 928.045 587.463 925.702 C 594.846 926.115 633.078 926.415 639.536 925.725 C 708.322 927.444 763.972 950.208 822.171 984.363 C 824.805 985.909 829.49 988.687 832.252 989.111 C 828.152 982.57 817.939 978.058 811.007 974.416 z" fill="rgb(91,107,97)" transform="translate(0,0)"></path>
<path d="M 1655.03 227.456 C 1659.75 234.819 1667.71 254.088 1671.17 262.534 C 1686.83 300.772 1702.03 337.278 1700.91 379.389 C 1699.95 418.529 1683.19 455.616 1654.45 482.204 C 1615.9 518.453 1567.44 528.515 1516.29 526.889 C 1510.67 525.57 1504.46 525.815 1498.79 526.733 C 1467.38 533.907 1462.96 557.209 1470.25 585.76 C 1482.75 634.661 1496.21 683.331 1509.01 732.157 L 1337.14 732.116 L 1337.11 655.229 C 1337.08 641.522 1337.99 616.26 1334.99 603.768 C 1332.5 593.44 1327.21 583.999 1319.71 576.482 C 1305.36 562.039 1284.43 555.57 1264.33 558.157 C 1266.99 560.102 1275.45 557.08 1272.33 562.277 C 1271.83 562.4 1271.53 562.009 1271.01 561.817 C 1264.68 559.495 1256.07 559.899 1249.81 560.252 C 1248.17 560.304 1247.95 560.32 1246.36 560.062 C 1242.72 559.034 1227.06 559.028 1226.81 558.525 C 1227.03 558.146 1227.49 557.998 1227.91 557.786 C 1217.45 516.699 1228.26 479.662 1259.71 450.973 C 1259.6 487.186 1300.13 492.465 1327.96 488.622 C 1376.16 481.966 1414.77 458.77 1444.52 420.989 C 1475.58 420.739 1538.42 424.66 1564.43 412.459 C 1578.99 405.626 1591.17 393.099 1596.59 377.84 C 1609.61 341.2 1584.32 295.859 1568.74 263.472 C 1594.8 251.329 1627.02 240.049 1655.03 227.456 z" fill="rgb(91,107,97)" transform="translate(0,0)"></path>
<path d="M 1227.91 557.786 C 1237.18 556.475 1254.93 557.029 1264.33 558.157 C 1266.99 560.102 1275.45 557.08 1272.33 562.277 C 1271.83 562.4 1271.53 562.009 1271.01 561.817 C 1264.68 559.495 1256.07 559.899 1249.81 560.252 C 1248.17 560.304 1247.95 560.32 1246.36 560.062 C 1242.72 559.034 1227.06 559.028 1226.81 558.525 C 1227.03 558.146 1227.49 557.998 1227.91 557.786 z" fill="url(#Gradient1)" transform="translate(0,0)"></path>
<path d="M 1235.76 183.13 L 1512.82 183.044 C 1538.35 208.929 1554.77 223.501 1571.92 257.378 L 1565.03 261.97 C 1566.67 265.298 1568.27 268.643 1569.84 272.006 C 1586.01 306.77 1605.86 343.746 1591.9 381.893 C 1556.44 384.288 1554.63 372.974 1535.1 348.719 C 1519.64 329.511 1498.55 338.932 1479.53 340.665 C 1462.66 342.202 1450.43 325.379 1441.71 313.81 C 1428.34 298.045 1406.07 305.42 1389.71 304.977 L 1388.55 304.939 C 1369.54 299.794 1366.7 284.065 1354.84 279.014 C 1318.08 263.359 1254.27 270.698 1269.32 324.705 C 1266.59 330.258 1258.44 343.373 1257.39 348.164 C 1259.1 348.453 1260.47 348.768 1262.14 349.159 C 1267.44 354.018 1267.07 366.052 1267.85 373.977 C 1238.03 436.189 1297.74 413.429 1305.31 422.908 C 1302.48 427.364 1286.79 425.393 1281.89 425.32 C 1234.38 424.607 1180.68 408.275 1163.66 358.864 C 1151.32 323.023 1174.1 289.926 1189.65 258.916 L 1178.23 255.046 C 1195.93 224.4 1210.24 207.421 1235.76 183.13 z" fill="rgb(247,248,243)" transform="translate(0,0)"></path>
<path d="M 1488.66 1095.17 C 1490.27 1095.18 1491.84 1095.33 1493.44 1095.54 C 1512.68 1098.07 1529.5 1109.85 1541.05 1125.07 C 1549.6 1136.34 1555 1149 1558.65 1162.59 C 1564 1182.47 1581.05 1316.42 1578.52 1332.96 C 1576.76 1344.5 1570.28 1355.71 1560.76 1362.57 C 1557.14 1365.18 1553.21 1366.38 1548.84 1367.03 C 1535.82 1368.96 1521.68 1367.6 1508.5 1367.41 C 1484.07 1367.07 1459.4 1367.74 1435.19 1364.03 C 1414.5 1360.86 1388.26 1355.61 1375.33 1337.97 C 1425.08 1327.99 1454.03 1288.21 1486.01 1252.56 C 1490.01 1248.1 1505.68 1231.37 1507.77 1226.92 L 1506.75 1226.4 C 1503.19 1227.63 1457.73 1279.6 1450.86 1287.3 C 1432.14 1306.93 1408.98 1326.34 1382.22 1333.36 C 1339.25 1344.62 1305.88 1320.89 1271.28 1299.87 L 1213.88 1264.93 C 1225.2 1245.6 1242.23 1221.34 1254.84 1201.8 L 1331.12 1240.02 C 1339.05 1243.99 1361.32 1255.8 1368.29 1257.88 L 1367.98 1256.86 C 1360.32 1250.84 1355.58 1248.67 1346.98 1244.33 C 1355.57 1232.99 1370.19 1218.07 1380.05 1207.36 C 1394.99 1190.97 1409.84 1174.48 1424.6 1157.92 L 1458.92 1119.63 C 1468.59 1108.85 1474.29 1098.75 1488.66 1095.17 z" fill="rgb(91,107,97)" transform="translate(0,0)"></path>
<path d="M 433.758 1315.33 C 439.955 1314.43 456.251 1314.99 463.165 1314.81 C 487.108 1314.17 511.169 1315.35 535.006 1315.8 C 573.014 1315.63 608.235 1316.79 646.539 1315.01 C 673.629 1313.75 700.203 1319.68 708.441 1350.41 C 711.9 1363.32 710.498 1387.79 710.611 1402.3 L 711.504 1474.53 L 666.5 1474.39 L 387.2 1474.49 C 389.244 1449.18 388.709 1419.51 389.035 1393.94 C 389.47 1359.71 388.117 1319.02 433.758 1315.33 z" fill="rgb(91,107,97)" transform="translate(0,0)"></path>
<path d="M 743.399 381.955 C 746.034 380.312 765.006 380.739 769.355 380.698 C 769.794 395.532 769.651 410.037 769.965 424.755 C 778.155 426.188 787.269 428.003 795.466 428.82 C 793.586 429.208 740.562 439.439 740.447 439.434 C 717.814 438.316 635.863 532.931 629.335 532 L 627.605 530.135 C 623.634 531.428 616.914 539.727 613.879 543.133 C 613.828 537.714 613.978 515.314 612.276 511.221 C 609.91 520.123 610.75 536.746 610.467 546.447 C 602.159 554.477 562.648 590.086 560.335 597.23 C 565.864 594.916 619.657 542.519 627.441 535.001 L 627.609 536.345 C 629.255 548.962 634.649 567.776 637.943 580.349 C 643.137 599.865 648.035 619.458 652.637 639.122 C 655.131 649.672 658.862 662.875 659.071 673.535 C 659.671 704.107 629.344 720.482 603.165 723.476 C 599.691 723.856 596.208 724.15 592.72 724.356 C 529.032 722.981 472.417 677.469 468.097 611.726 C 460.996 503.67 572.724 432.832 668.746 424.886 C 668.333 410.351 668.049 395.814 667.896 381.274 C 679.25 381.741 694.054 381.977 705.153 381.214 C 708.668 398.512 714.888 416.523 720.402 433.374 C 726.759 415.659 733.578 398.105 743.399 381.955 z" fill="rgb(91,107,97)" transform="translate(0,0)"></path>
<path d="M 1206.25 29.0854 L 1539.84 29.0763 L 1540.02 103.879 C 1531.17 104.05 1526.31 104.301 1517.46 105.477 C 1499.35 131.867 1521.58 128.329 1541.11 127.825 C 1541.03 137.591 1542.51 172.488 1540.76 179.773 C 1501.63 181.496 1451.44 179.939 1411.81 179.835 L 1206.35 179.796 C 1205.95 170.01 1204.61 137.512 1207.41 129.668 C 1213.2 123.97 1223.84 130.828 1233.68 126.771 C 1239.84 119.898 1233.26 111.669 1229.4 105.049 C 1222.15 105.369 1213.45 104.338 1206.11 103.694 L 1206.25 29.0854 z" fill="rgb(242,165,26)" transform="translate(0,0)"></path>
<path d="M 1438.35 48.1633 C 1469.97 42.5042 1500.18 63.5867 1505.77 95.2174 C 1511.37 126.848 1490.22 157.012 1458.58 162.541 C 1427.03 168.054 1396.97 146.984 1391.4 115.445 C 1385.82 83.9068 1406.83 53.806 1438.35 48.1633 z" fill="rgb(20,35,28)" transform="translate(0,0)"></path>
<path d="M 1440.28 51.325 C 1470.04 46.7588 1497.9 67.0761 1502.66 96.8086 C 1507.41 126.541 1487.27 154.535 1457.57 159.477 C 1427.6 164.463 1399.3 144.102 1394.5 114.103 C 1389.71 84.1031 1410.25 55.9322 1440.28 51.325 z" fill="rgb(242,165,26)" transform="translate(0,0)"></path>
<path d="M 1440.97 66.0075 C 1462.9 61.8318 1484.04 76.3015 1488.08 98.2551 C 1492.12 120.209 1477.53 141.257 1455.55 145.165 C 1433.76 149.039 1412.93 134.593 1408.92 112.828 C 1404.92 91.0635 1419.23 70.1473 1440.97 66.0075 z" fill="rgb(20,35,28)" transform="translate(0,0)"></path>
<path d="M 1443.26 69.1409 C 1463.45 66.2751 1482.14 80.3361 1484.97 100.531 C 1487.81 120.725 1473.72 139.39 1453.52 142.198 C 1433.37 145 1414.75 130.947 1411.92 110.793 C 1409.08 90.6396 1423.11 72.0009 1443.26 69.1409 z" fill="rgb(242,165,26)" transform="translate(0,0)"></path>
<path d="M 1443.77 82.4456 C 1456.43 79.9568 1468.74 88.115 1471.39 100.749 C 1474.03 113.383 1466.03 125.795 1453.43 128.596 C 1445.14 130.439 1436.5 127.681 1430.81 121.376 C 1425.12 115.071 1423.26 106.192 1425.94 98.1343 C 1428.62 90.0761 1435.43 84.0832 1443.77 82.4456 z" fill="rgb(20,35,28)" transform="translate(0,0)"></path>
<path d="M 1446.14 85.5549 C 1457.2 84.4485 1467.07 92.4659 1468.26 103.511 C 1469.45 114.556 1461.51 124.493 1450.48 125.766 C 1439.32 127.052 1429.25 119.006 1428.05 107.842 C 1426.85 96.6788 1434.97 86.6731 1446.14 85.5549 z" fill="rgb(242,165,26)" transform="translate(0,0)"></path>
<path d="M 803.914 561.155 C 816.515 560.322 834.494 560.8 847.357 560.825 L 924.047 561.013 C 895.016 576.325 899.762 601.545 900.112 629.891 L 869.097 630.279 C 856.064 643.453 842.914 660.39 829.169 674.58 L 829.3 831.335 L 956.045 831.734 C 934.477 849.056 946.223 846.684 934.998 868.566 C 933.268 871.939 920.921 887.766 917.608 892.453 L 916.362 893.362 L 909.572 890.682 C 891.743 923.98 843.866 948.625 813.015 969.481 C 796.416 970.327 761.166 952.666 757.6 934.745 C 752.055 906.879 754.122 873.25 754.096 844.525 L 754.03 734.614 L 754.045 659.55 C 754.11 609.86 748.223 578.068 803.914 561.155 z" fill="rgb(247,248,243)" transform="translate(0,0)"></path>
<path d="M 1097.41 222.557 C 1105.93 227.728 1177 259.03 1185.5 260.687 C 1174.6 280.836 1159.34 307.687 1157.35 330.595 C 1153.38 376.176 1191.55 410.542 1232.39 422.031 C 1250.71 427.185 1269.32 427.924 1288.28 429.006 C 1265.66 440.037 1254.75 447.696 1240.14 468.311 C 1230.06 483.229 1226.06 495.308 1221.8 512.248 C 1191.31 507.191 1181 506.931 1151.01 492.912 C 1117.95 477.459 1086.99 452.089 1074.87 416.478 C 1054.51 356.65 1070.78 277.78 1097.41 222.557 z" fill="rgb(91,107,97)" transform="translate(0,0)"></path>
<path d="M 1221.3 945.731 C 1227.68 947.237 1306.93 1032.34 1324.13 1043.34 C 1345.92 1057.27 1366 1070.59 1392.99 1076.16 C 1399.75 1077.56 1417.15 1080.32 1422.14 1082.65 C 1424.09 1088.89 1415.16 1093.25 1410.99 1096.45 C 1383.88 1117.17 1368.46 1143.05 1357.61 1174.51 L 1354.75 1185.23 C 1291.16 1164.08 1233.46 1093.56 1197.72 1040.02 C 1186.39 1023.04 1176.15 1005.33 1164.98 988.927 C 1175.35 980.898 1185.79 972.979 1196.33 965.173 C 1203.54 959.87 1215.36 951.861 1221.3 945.731 z" fill="rgb(91,107,97)" transform="translate(0,0)"></path>
<path d="M 877.446 633.534 C 884.654 633.12 892.825 633.123 900.116 632.957 C 900.592 650.769 898.699 643.865 886.476 653.56 C 880.827 658.04 886.498 668.17 891.499 671.961 C 894.68 674.357 898.706 675.341 902.633 674.682 C 907.102 673.912 911.033 671.279 913.446 667.44 C 919.155 658.216 913.024 650.877 904.589 647.03 L 903.402 646.496 L 903.341 633.085 C 911.473 633.19 919.767 633.114 927.913 633.118 C 940.416 646.833 952.46 661.852 964.943 675.854 L 964.738 808.5 C 964.933 814.468 966.256 821.337 961.823 826.004 C 957.533 830.521 847.559 828.28 832.291 828.7 C 832.441 779.959 833.87 724.408 832.244 675.983 C 843.667 664.426 853.444 651.361 864.685 639.634 C 870.001 634.088 870.308 633.933 877.446 633.534 z" fill="rgb(192,86,122)" transform="translate(0,0)"></path>
<path d="M 868.468 702.279 C 881.547 699.827 894.14 708.432 896.609 721.507 C 899.079 734.582 890.492 747.186 877.42 749.674 C 864.323 752.166 851.688 743.559 849.214 730.458 C 846.74 717.357 855.365 704.735 868.468 702.279 z" fill="rgb(20,35,28)" transform="translate(0,0)"></path>
<path d="M 869.384 705.398 C 880.681 703.579 891.335 711.198 893.265 722.476 C 895.195 733.754 887.681 744.482 876.423 746.523 C 865.007 748.592 854.095 740.95 852.138 729.514 C 850.181 718.079 857.93 707.243 869.384 705.398 z" fill="rgb(242,165,26)" transform="translate(0,0)"></path>
<path d="M 869.536 714.919 C 884.882 716.217 888.277 727.157 877.333 737.301 C 867.232 737.377 862.658 734.956 863.463 722.829 C 863.722 718.927 866.341 716.875 869.536 714.919 z" fill="rgb(20,35,28)" transform="translate(0,0)"></path>
<path d="M 867.5 718.879 C 879.096 718.158 883.389 722.219 877.724 733.413 C 865.611 735.938 864.597 729.384 867.5 718.879 z" fill="rgb(192,86,122)" transform="translate(0,0)"></path>
<path d="M 918.267 747.566 C 930.848 743.53 944.309 750.509 948.261 763.117 C 952.213 775.724 945.144 789.138 932.51 793.006 C 919.995 796.838 906.734 789.85 902.819 777.36 C 898.905 764.871 905.804 751.564 918.267 747.566 z" fill="rgb(20,35,28)" transform="translate(0,0)"></path>
<path d="M 920.658 750.372 C 931.76 747.698 942.927 754.529 945.604 765.63 C 948.281 776.73 941.454 787.9 930.354 790.58 C 919.249 793.261 908.074 786.43 905.396 775.325 C 902.718 764.22 909.552 753.047 920.658 750.372 z" fill="rgb(242,165,26)" transform="translate(0,0)"></path>
<path d="M 921.024 760.866 C 926.311 758.421 932.577 760.732 935.01 766.024 C 937.443 771.316 935.118 777.578 929.821 779.999 C 924.54 782.413 918.302 780.096 915.877 774.821 C 913.451 769.546 915.754 763.303 921.024 760.866 z" fill="rgb(20,35,28)" transform="translate(0,0)"></path>
<path d="M 921.598 763.905 C 925.137 761.899 929.63 763.078 931.73 766.562 C 933.829 770.046 932.773 774.568 929.347 776.761 C 927.046 778.234 924.129 778.341 921.727 777.042 C 919.325 775.743 917.817 773.242 917.791 770.511 C 917.764 767.78 919.222 765.251 921.598 763.905 z" fill="rgb(192,86,122)" transform="translate(0,0)"></path>
<path d="M 924.065 703.743 C 929.279 703.767 934.405 704.611 939.577 705.31 C 936.373 711.161 924.352 726.417 919.936 732.263 L 872.591 794.145 C 868.141 794.185 861.928 792.9 857.378 792.122 C 861.756 784.568 875.252 767.617 881.173 759.787 C 895.226 740.92 909.524 722.237 924.065 703.743 z" fill="rgb(20,35,28)" transform="translate(0,0)"></path>
<path d="M 925.401 706.953 C 929.244 707.197 931.521 706.609 934.007 708.649 C 913.629 734.436 890.535 764.451 871.126 791.038 C 868.004 790.823 865.551 791.063 863.154 789.255 C 865.23 785.767 867.653 782.563 870.145 779.367 C 888.812 755.425 906.619 730.803 925.401 706.953 z" fill="rgb(242,165,26)" transform="translate(0,0)"></path>
<path d="M 912.728 401.075 C 924.001 401.454 941.552 405.176 951.788 409.962 C 953.841 410.922 957.534 415.185 959.167 417.042 C 954.823 421.276 949.21 425.961 944.588 430.029 C 921.789 410.675 898.001 445.803 923.073 456.249 C 928.513 458.527 934.647 458.492 940.061 456.152 C 950.305 451.626 950.159 441.729 946.204 432.83 C 951.239 429.097 956.698 424.091 961.486 419.919 L 1002.45 463.722 C 998.53 469.442 990.153 486.458 987.25 489.485 C 985.257 488.284 985.261 488.045 982.995 487.884 C 979.774 491.289 972.751 504.843 970.049 509.773 C 968.89 504.486 963.741 464.982 946.096 486.536 C 942.149 491.357 951.197 522.425 953.431 531.465 C 947.205 538.41 937.057 556.334 930.024 557.892 L 802.011 558.049 C 789.718 546.024 769.649 527.903 758.266 514.195 C 757.493 513.263 758.068 512.741 758.615 511.341 C 771.05 503.73 793.297 538.717 810.199 527.883 C 812.185 525.415 812.48 523.175 812.812 520.038 C 813.57 512.861 816.727 514.563 823.912 509.456 C 826.334 505.425 825.493 503.288 825.855 498.478 C 839.329 492.943 832.656 491.702 837.42 482.026 C 838.209 480.424 844.224 480.383 848.026 476.021 C 853.348 462.619 831.468 453.594 821.551 447.805 C 849.119 435.373 885.668 415.226 912.728 401.075 z" fill="rgb(192,86,122)" transform="translate(0,0)"></path>
<path d="M 788.328 433.205 C 789.18 433.055 790.024 432.921 790.893 432.903 C 795.753 432.802 835.552 459.51 840.386 464.31 C 843.197 467.101 844.976 469.673 845.007 473.698 C 839.24 484.326 828.807 474.353 822.523 470.998 C 807.38 462.916 789.247 446.249 773.331 441.16 L 772.742 440.979 C 785.975 454.317 810.851 465.833 826.303 476.914 C 830.132 479.66 832.623 484.465 833.161 489.005 C 832.731 490.375 832.694 491.682 831.472 492.563 C 820.137 500.732 781.634 463.439 768.022 461.295 L 767.75 462.61 C 782.06 474.528 804.276 483.957 818.006 495.49 C 831.006 506.411 816.601 516.845 801.367 505.315 C 795.804 501.104 763.785 479.684 759.909 479.355 L 758.468 481.158 C 761.108 485.036 806.115 507.812 810.307 516.546 C 811.302 518.619 810.128 522.094 809.525 524.305 C 797.868 531.672 772.074 510.031 760.265 503.313 C 749.903 516.186 739.673 532.618 729.746 546.139 C 705.53 579.124 682.433 614.76 657.785 647.249 C 648.243 610.628 639.088 573.907 630.319 537.093 C 652.024 516.229 710.891 454.085 734.427 444.648 C 751.235 437.908 770.626 436.834 788.328 433.205 z" fill="rgb(247,248,243)" transform="translate(0,0)"></path>
<path d="M 1283.64 306.093 C 1314.23 303.62 1315.73 310.761 1328.5 334.587 C 1331.65 336.461 1337.14 339.011 1340.59 340.73 C 1359.99 328.004 1369.69 346.204 1357.87 360.621 C 1356.09 362.792 1344.9 363.185 1342.36 365.988 C 1344.58 369.153 1348.57 367.606 1349.43 368.956 C 1354.71 377.252 1366.46 412.456 1369.54 421.06 L 1440.68 420.778 C 1420.93 450.005 1385.97 469.35 1353.29 480.417 C 1329.36 486.979 1263.12 496.439 1263.72 452.559 C 1264.19 440.643 1281.11 437.72 1287.48 433.076 C 1295.43 427.277 1306.33 429.031 1308.37 427.878 C 1309.66 422.755 1309.52 399.562 1309.67 392.907 C 1318.16 390.265 1326.93 385.392 1333.36 379.21 L 1333.15 378.298 C 1323.57 379.976 1317.13 391.803 1299.82 389.866 C 1284.28 388.128 1273.73 378.459 1269.82 363.21 C 1268.24 357.064 1270.47 352.407 1266.85 348.053 C 1264.6 347.865 1263.36 348.034 1261.69 346.557 C 1262.26 342.956 1280.86 309.084 1283.64 306.093 z" fill="rgb(247,248,243)" transform="translate(0,0)"></path>
<path d="M 1351.6 344.33 C 1352.43 344.641 1353.66 344.883 1354.36 345.514 C 1354.53 345.492 1354.76 346.239 1354.65 346.304 C 1350.55 348.803 1346.9 352.09 1344.05 355.392 C 1343.28 356.08 1343.03 356.621 1342.07 355.968 C 1340.44 351.326 1348.34 346.336 1351.6 344.33 z" fill="rgb(20,35,28)" transform="translate(0,0)"></path>
<path d="M 754.129 517.652 C 757.407 518.376 793.796 554.075 799.083 559.083 C 787.527 562.896 779.018 566.255 769.994 574.897 C 761.9 582.671 756.167 592.573 753.457 603.463 C 750.158 616.477 751.22 643.112 751.305 657.415 C 751.631 680.569 751.566 703.727 751.11 726.878 L 651.75 726.962 C 637.621 726.987 625.081 726.766 611.027 725.607 C 611.648 725.449 612.268 725.288 612.888 725.124 C 651.73 714.772 669.175 691.91 658.512 652.35 C 668.66 639.324 680.67 620.755 690.454 606.851 C 711.484 576.979 732.709 547.245 754.129 517.652 z" fill="rgb(91,107,97)" transform="translate(0,0)"></path>
<path d="M 1273.41 560.765 C 1290.21 561.237 1305.64 566.247 1317.55 578.489 C 1336.12 597.584 1334.26 618.336 1334.28 642.611 L 1334.18 683.489 C 1332.58 706.623 1334.1 742.553 1334.06 766.79 C 1334.03 784.031 1332.78 822.142 1334.3 837.545 C 1335.73 852.022 1335.36 932.591 1332.83 945.372 C 1331.03 954.605 1327.06 963.277 1321.24 970.669 C 1308.56 986.773 1294.15 990.894 1275.1 993.253 C 1269.01 986.068 1261.3 978.938 1254.5 972.319 C 1287.54 971.132 1310.94 950.053 1312.61 916.432 C 1313.33 901.833 1313.08 887.52 1313.07 872.9 L 1312.99 797.462 L 1312.94 683.836 C 1312.93 664.114 1312.85 644.114 1312.76 624.4 C 1312.6 592.293 1301.76 575.47 1273.41 560.765 z" fill="rgb(91,107,97)" transform="translate(0,0)"></path>
<path d="M 692.354 290.333 L 693.117 289.445 C 696.606 285.333 697.11 284.041 699.163 279.072 C 710.84 277.146 712.517 282.877 727.751 274.715 C 733.493 271.638 735.443 278.934 747.154 268.807 C 765.406 296.446 784.591 346.446 738.777 360.119 C 729.524 362.881 721.431 357.405 712.488 358.535 L 712.867 359.461 C 722.782 363.292 726.319 363.637 737.105 364.254 C 737.539 367.481 739.636 381.425 739.354 383.772 C 735.11 387.146 723.064 416.84 720.502 422.819 C 715.766 409.132 710.604 392.111 707.402 377.98 C 698.836 378.251 690.265 378.372 681.695 378.342 L 683.394 359.288 L 685.597 337.33 C 671.952 337.245 663.88 334.347 662.97 318.694 C 662.843 316.507 664.171 314.003 665.915 312.686 C 676.089 306.092 688.57 318.83 690.808 303.768 C 691.428 299.597 691.753 294.575 692.354 290.333 z" fill="rgb(247,248,243)" transform="translate(0,0)"></path>
<path d="M 672.07 318.064 C 680.259 317.422 685.279 320.976 686.519 329.261 C 682.797 327.069 678.477 320.835 672.756 318.539 C 672.528 318.381 672.299 318.223 672.07 318.064 z" fill="rgb(20,35,28)" transform="translate(0,0)"></path>
<path d="M 770.793 1301.47 C 778.115 1299.4 820.178 1286.93 824.341 1288.5 C 815.194 1293.07 783.18 1300.42 771.576 1303.31 C 771.075 1307.39 777.005 1336.99 778.003 1342.77 L 801.146 1474.65 L 745.092 1474.76 L 744.067 1400.36 C 743.532 1358.06 749.105 1330.89 703.11 1313.61 C 721.028 1311.77 753.718 1306.61 770.793 1301.47 z" fill="rgb(247,248,243)" transform="translate(0,0)"></path>
<path d="M 1081.86 784.044 C 1081.51 788.191 1080.64 794.557 1085.26 796.371 C 1087.13 795.599 1088.01 793.962 1089.27 792.29 C 1089.08 788.997 1087.84 789.371 1085.16 785.761 L 1086.35 784.462 C 1091.28 783.303 1103.37 783.943 1108.99 784.051 C 1109.87 809.713 1110.55 835.381 1111.04 861.053 L 1111.34 878.861 C 1080.13 876.715 1048.83 875.446 1017.59 873.642 C 1020.04 844.456 1029.03 813.318 1033.41 784.033 L 1047.73 784.049 C 1047.22 788.341 1045.76 792.982 1049.66 795.618 C 1053.25 795.039 1052.27 795.689 1054.76 793.559 C 1054.91 788.955 1051 789.141 1051.13 784.744 C 1056.58 783.147 1075.1 783.964 1081.86 784.044 z" fill="rgb(242,165,26)" transform="translate(0,0)"></path>
<path d="M 1551.36 105.429 C 1554.43 105.445 1559.15 112.313 1561.41 114.203 C 1586.31 134.039 1582.79 170.809 1595.68 195.792 C 1599.81 203.802 1620.49 227.536 1627.1 235.988 C 1616.12 241.77 1588.7 251.839 1575.75 257.155 C 1560.5 232.555 1554.37 219.021 1533.17 198.981 C 1527.95 193.62 1522.39 188.278 1517.05 183.011 C 1526.78 183.073 1535.31 183.123 1545.03 182.502 L 1553.37 166.864 C 1552.09 157.324 1548.96 136.217 1544.19 127.833 C 1540.24 120.889 1519.22 128.889 1513.39 121.493 C 1514.46 115.097 1519.04 114.805 1524.51 114.938 C 1532.58 115.136 1540.86 115.092 1548.89 114.338 C 1553.15 120.263 1564.38 142.199 1567.1 143.616 C 1568.37 137.693 1554.49 118.887 1551.96 110.468 C 1546.29 111.53 1524.31 113.503 1519.42 110.615 L 1518.94 110.752 C 1525.61 107.383 1542.83 106.608 1551.36 105.429 z" fill="rgb(247,248,243)" transform="translate(0,0)"></path>
<path d="M 1196.05 104.877 C 1203.12 106.476 1224.29 108.252 1227.92 110.784 L 1224.99 111.355 L 1227.45 110.385 L 1226.93 110.186 L 1225.75 111.378 C 1215.87 111.995 1206.2 111.594 1196.32 111.35 C 1191.7 119.732 1180.55 135.946 1180.03 143.667 L 1181.03 144.01 C 1183.02 141.85 1194.49 120.171 1198.43 114.544 C 1206.25 114.58 1227.86 113.049 1232.2 117.252 C 1233.16 120.739 1233.35 119.456 1231.96 122.286 C 1225.81 126.121 1212.47 125.043 1204.78 125.017 C 1199.06 142.009 1197.63 151.006 1196.03 168.504 C 1199.02 173.138 1201.82 177.889 1204.43 182.746 C 1212.17 183.299 1222.39 183.074 1230.35 183.11 C 1226.59 187.746 1222.24 192.155 1218.11 196.486 C 1196.31 217.617 1191.4 228.609 1175.5 253.871 C 1158.38 246.736 1140.87 238.779 1123.85 231.291 C 1133.32 219.218 1145.37 208.205 1153.34 195.93 C 1156 191.822 1159.58 176.879 1160.67 172.077 C 1170.19 130.123 1168.71 134.171 1196.05 104.877 z" fill="rgb(247,248,243)" transform="translate(0,0)"></path>
<path d="M 927.99 970.954 C 1009 969.017 1092.73 971.575 1173.95 971.255 C 1174.48 971.253 1183.17 971.102 1182.02 970.868 C 1180.89 973.076 1164.86 985.034 1161.72 987.462 C 1162.17 988.949 1162.61 990.44 1163.03 991.934 C 1160.05 993.67 936.249 992.994 912.794 993.004 L 927.99 970.954 z" fill="rgb(91,107,97)" transform="translate(0,0)"></path>
<path d="M 655.834 816.594 C 658.842 816.134 660.159 816.06 663.205 816.063 C 666.371 817.777 686.262 842.143 689.623 846.538 L 680.256 851.152 C 680.786 852.636 681.274 854.134 681.721 855.645 C 689.029 880.781 671.073 899.958 645.873 894.301 C 643.278 893.719 638.444 891.659 636.297 892.172 L 636.491 893.446 C 640.177 896.108 643.249 896.673 647.604 897.947 C 648.708 907.045 649.779 914.058 651.558 923.047 C 631.68 922.629 611.797 922.576 591.918 922.887 C 584.973 922.926 579.485 923.398 572.628 924.031 C 573.451 919.279 574.461 914.367 575.369 909.612 C 584.98 910.856 594.413 912.263 604.076 913.153 C 634.444 915.95 631.944 882.694 627.429 862.384 C 622.677 862.26 616.361 862.415 612.596 859.518 C 597.974 848.266 612.129 824.897 629.186 838.429 C 637.525 830.883 638.271 829.134 639.275 818.16 C 644.747 817.73 650.357 817.122 655.834 816.594 z" fill="rgb(247,248,243)" transform="translate(0,0)"></path>
<path d="M 615.97 843.062 C 623.237 844.139 626.688 846.584 628.224 853.877 C 625.154 852.119 616.845 846.437 615.97 843.062 z" fill="rgb(20,35,28)" transform="translate(0,0)"></path>
<path d="M 1421.81 1092.02 C 1423.49 1094.25 1422.43 1099.85 1424.14 1102.56 C 1435.92 1121.18 1456.39 1110.31 1470.45 1102.85 C 1440.59 1134.78 1411.25 1167.2 1382.46 1200.09 C 1372.92 1209.99 1363.28 1220.8 1353.87 1230.91 C 1352.96 1222.25 1353.15 1213.57 1354.4 1205 C 1362.03 1152.78 1380.83 1124.1 1421.81 1092.02 z" fill="rgb(91,107,97)" transform="translate(0,0)"></path>
<path d="M 1153.18 1162.77 C 1167.6 1162.81 1182.35 1162.67 1196.73 1163.36 C 1206.29 1170.69 1209.01 1178.26 1216.38 1185.51 C 1223.13 1192.14 1238.76 1201.56 1247.25 1207.05 C 1240.8 1217.99 1234.1 1227.93 1227.04 1238.46 C 1216.44 1232.26 1205.99 1224.91 1196.02 1217.79 C 1178.02 1204.58 1149.42 1201.04 1128.96 1191.45 C 1125.97 1190.22 1119.86 1185.8 1119.59 1182.33 C 1117.58 1156.68 1170.75 1177.71 1182.79 1174.67 L 1183.01 1172.91 C 1177.65 1169.59 1154.52 1172.51 1150.9 1166.1 L 1153.18 1162.77 z" fill="rgb(247,248,243)" transform="translate(0,0)"></path>
<path d="M 984.401 812.795 C 987.082 812.667 985.807 812.44 988.334 813.669 C 989.567 822.419 969.517 840.161 964.081 849.846 C 983.387 840.647 1006.32 825.732 1024.67 814.289 L 1016.87 854.668 C 1007.33 860.964 992.226 873.301 982.404 880.631 C 964.964 894.017 964.279 896.288 950.5 913.17 C 940.081 907.405 929.758 901.47 919.534 895.367 C 926.975 885.926 932.521 877.229 940.688 867.734 C 941.286 863.875 942.556 855.294 943.808 851.939 C 949.13 837.67 971.784 822.332 984.401 812.795 z" fill="rgb(247,248,243)" transform="translate(0,0)"></path>
<path d="M 413.58 1243.03 L 453.96 1259.81 C 449.447 1271.99 442.215 1292.55 436.056 1303.56 C 419.273 1315.26 390.288 1325.1 372.678 1337.52 C 370.38 1339.14 365.024 1338.95 363.01 1336.11 C 365.029 1325.46 393.285 1313.21 396.161 1307.71 C 389.357 1307.95 374.444 1318.93 368.03 1323.21 C 371.668 1316.32 372.874 1313.93 375.115 1306.55 C 369.304 1313.72 367.971 1316.12 363.982 1324.59 C 356.79 1333.96 348.388 1352.66 343.377 1357.98 C 341.853 1350.89 363.385 1319.54 363.72 1313 L 362.646 1312.72 C 356.429 1317.21 347.188 1343.68 340.135 1351.59 L 338.66 1351.66 L 338.398 1349.61 C 340.99 1344.1 352.839 1315.86 354.45 1313.39 C 361.411 1302.71 389.938 1285.05 401.034 1275.81 L 401.719 1275.23 C 405.436 1264.64 409.194 1253.28 413.58 1243.03 z" fill="rgb(247,248,243)" transform="translate(0,0)"></path>
<path d="M 687.01 1319.11 L 681.829 1316.73 L 682.195 1315.97 L 686.855 1315.46 C 746.677 1317.18 742.279 1365.7 741.338 1411.21 C 740.694 1415.58 741.075 1422.91 741.871 1427.25 C 742.025 1443.09 742.075 1458.92 742.021 1474.76 L 714.305 1474.73 L 713.776 1402.41 C 713.523 1370.17 719.432 1337.29 687.01 1319.11 z" fill="rgb(91,107,97)" transform="translate(0,0)"></path>
<path d="M 500.302 1201.6 L 514.344 1203.19 C 492.66 1239.41 489.778 1282.19 522.482 1313.04 C 513.946 1313.03 495.315 1313.57 487.59 1312.85 C 467.602 1313.83 445.679 1312.53 424.829 1313.39 C 427.205 1311.76 428.278 1311.5 431.023 1310.51 C 445.345 1301.89 450.894 1277.52 456.644 1260.96 L 470.583 1266.17 C 480.078 1245.17 491.316 1222.43 500.302 1201.6 z" fill="rgb(247,248,243)" transform="translate(0,0)"></path>
<path d="M 1148.51 892.323 C 1154.93 892.682 1180.66 900.364 1187.42 902.743 C 1194.92 912.151 1194.79 916.847 1200.06 926.377 C 1201.97 929.827 1213.81 941.289 1217.49 945.236 C 1211.41 950.74 1195.22 961.84 1187.81 966.977 C 1180.58 958.367 1173.18 949.892 1165.62 941.557 C 1153.84 933.574 1109.34 913.451 1114.04 898.967 C 1123.51 887.567 1166.9 911.562 1172.73 909.42 C 1172.17 902.966 1153.57 903.53 1147.64 896.236 L 1148.51 892.323 z" fill="rgb(247,248,243)" transform="translate(0,0)"></path>
<path d="M 984.273 491.421 C 993.217 497.644 1011.51 523.328 1020 532.75 C 1016.97 541.376 1012.64 548.919 1008.92 557.199 C 1002.85 557.1 996.783 557.048 990.716 557.044 C 994.57 549.908 998.177 542.649 1002.29 535.641 C 1003.12 534.211 1005.62 531.373 1004.06 529.569 C 1003.98 529.481 1003.58 529.184 1003.48 529.311 C 997.747 536.66 991.774 548.839 987.48 557.138 C 985 557.151 970.965 557.622 969.731 556.473 C 969.802 555.293 971.915 551.864 972.577 550.611 C 975.092 545.496 994.219 513.553 992.296 511.605 C 987.746 511.189 968.613 555.679 964.49 556.789 C 932.271 565.46 979.177 506.527 980.653 497.727 C 980.735 497.24 983.996 491.885 984.273 491.421 z" fill="rgb(247,248,243)" transform="translate(0,0)"></path>
<path d="M 1113.04 784.698 C 1113.42 784.905 1113.81 785.086 1114.18 785.319 C 1118.43 788.033 1132.6 867.458 1135.12 878.966 C 1128.43 878.773 1121.11 878.949 1114.38 878.974 C 1114.21 863.948 1110.51 794.355 1113.04 784.698 z" fill="rgb(192,86,122)" transform="translate(0,0)"></path>
<path d="M 929.411 427.121 C 951.053 427.838 934.236 437.832 937.504 440.08 C 939.53 440.252 941.29 436.944 942.998 436.415 C 944.5 435.95 944.963 441.194 944.94 442.008 C 944.797 447.254 942.466 450.001 938.84 453.473 C 934.33 455.017 929.782 456.38 925.001 454.686 C 921.759 453.568 919.126 451.154 917.731 448.02 C 912.946 437.226 919.609 430.329 929.411 427.121 z" fill="rgb(247,248,243)" transform="translate(0,0)"></path>
<path d="M 952.328 483.894 C 959.635 484.105 960.732 484.538 962.837 492.505 C 964.601 499.181 966.209 505.899 967.769 512.632 C 964.876 518.29 962.089 524.001 959.407 529.762 C 958.969 530.63 958.77 531.42 957.965 531.826 C 955.691 531.017 947.969 496.904 947.488 492.018 C 947.165 488.747 950.392 485.939 952.328 483.894 z" fill="rgb(247,248,243)" transform="translate(0,0)"></path>
<path d="M 1296.03 1402.21 C 1302.75 1405.61 1386.64 1469.66 1390.84 1474.57 C 1384.41 1473.27 1350.45 1445.74 1343.22 1440.09 C 1327.99 1429.49 1311.76 1417.02 1296.69 1405.94 C 1295.18 1414.03 1281.83 1471.48 1278.6 1474.74 L 1277.85 1473.54 C 1278.29 1466.44 1293.3 1411.95 1296.03 1402.21 z" fill="rgb(247,248,243)" transform="translate(0,0)"></path>
<path d="M 1071.25 753.728 C 1077.1 754.469 1081.73 757.498 1081.69 763.554 C 1081.64 772.112 1087.25 781.266 1077.25 781.118 L 1062.6 781.059 C 1062.65 768.113 1060.23 761.888 1071.25 753.728 z" fill="rgb(247,248,243)" transform="translate(0,0)"></path>
<path d="M 895.957 649.581 C 903.342 650.29 898.38 653.163 900.233 656.054 C 903.685 661.44 904.174 651.35 903.995 651.995 C 905.294 647.339 911.426 654.568 911.838 657.017 C 912.777 662.6 912.01 664.075 909.247 668.684 C 892.447 677.54 879.134 662.141 895.957 649.581 z" fill="rgb(247,248,243)" transform="translate(0,0)"></path>
<path d="M 793.685 428.935 C 795.321 429.137 841.072 435.683 830.391 439.913 C 826.557 441.921 822.756 443.749 818.878 445.654 C 810.564 440.018 802.073 434.653 793.685 428.935 z" fill="rgb(91,107,97)" transform="translate(0,0)"></path>
<path d="M 1079.42 753.489 C 1086.83 754.965 1088.15 757.443 1093.11 763.19 C 1094.52 771.151 1094.67 772.388 1094.29 780.933 C 1076.56 783.343 1094.06 770.95 1079.42 753.489 z" fill="rgb(247,248,243)" transform="translate(0,0)"></path>
<path d="M 1063.32 753.517 C 1063.82 753.624 1064.31 753.73 1064.81 753.836 C 1065.95 754.178 1064.72 755.775 1064.34 756.142 C 1058.33 761.925 1059.2 770.921 1058.96 778.529 C 1058.93 779.586 1058.22 780.68 1057.4 781.312 C 1056.9 781.688 1056.4 782.064 1055.9 782.44 C 1055.88 782.43 1054.24 781.74 1054.21 781.74 C 1053.55 781.682 1051.58 780.692 1051.36 779.922 C 1050.25 776.093 1051.11 770.771 1051.93 766.98 C 1053.08 761.613 1055.93 758.254 1060.37 755.393 L 1063.32 753.517 z" fill="rgb(247,248,243)" transform="translate(0,0)"></path>
<path d="M 953.875 535.828 C 956.765 538.86 950.276 545.783 949.162 549.558 C 948.005 553.478 951.444 555.299 950.753 557.302 C 949.964 558.018 942.336 557.885 940.838 557.917 C 941.041 557.959 937.955 557.553 938.593 556.709 C 943.735 549.913 948.764 542.748 953.875 535.828 z" fill="rgb(247,248,243)" transform="translate(0,0)"></path>
<path d="M 1544.86 157.471 C 1544.52 155.176 1543.05 141.806 1544.61 140.842 L 1544.76 140.905 C 1545.35 141.684 1545.35 141.917 1545.7 142.892 C 1548.04 152.021 1548.69 158.356 1549.47 167.53 C 1547.66 171.138 1545.79 174.594 1543.93 178.167 C 1544.34 170.98 1544.64 164.651 1544.86 157.471 z" fill="rgb(247,248,243)" transform="translate(0,0)"></path>
<path d="M 1544.86 157.471 C 1544.52 155.176 1543.05 141.806 1544.61 140.842 L 1544.76 140.905 C 1545.35 141.684 1545.35 141.917 1545.7 142.892 C 1545.17 148.106 1545.22 152.32 1544.86 157.471 z" fill="rgb(169,165,163)" transform="translate(0,0)"></path>
<path d="M 359.493 1338.63 C 360.49 1339.57 361.544 1340.35 361.823 1341.7 C 361.745 1341.95 350.942 1360.24 350.623 1360.64 C 350.407 1360.5 348.284 1359.42 348.47 1358.8 C 350.54 1351.98 355.844 1344.74 359.493 1338.63 z" fill="rgb(247,248,243)" transform="translate(0,0)"></path>
<path d="M 1203.01 149.968 C 1202.99 151.464 1204.44 177.102 1201.16 171.163 C 1197.69 164.876 1200.74 157.108 1200.9 150.082 L 1203.01 149.968 z" fill="rgb(247,248,243)" transform="translate(0,0)"></path>
<path d="M 369.384 1340.72 C 371.025 1346.01 362.529 1353.88 358.073 1356.07 C 356.751 1352.34 365.804 1342.7 369.384 1340.72 z" fill="rgb(247,248,243)" transform="translate(0,0)"></path>
<path d="M 1200.9 150.082 C 1201.18 147.89 1201.55 145.95 1201.95 143.792 L 1202.76 143.182 L 1201.96 143.669 L 1202.46 142.289 L 1202.57 142.246 L 1202.73 142.388 C 1203.21 144.139 1203.02 148.01 1203.01 149.968 L 1200.9 150.082 z" fill="rgb(169,165,163)" transform="translate(0,0)"></path>
<path d="M 1624.92 592.215 C 1644.3 591.779 1664.95 589.61 1679.71 605.057 C 1694.21 620.237 1692.04 638.509 1691.48 657.84 L 1748.48 658.081 C 1749.08 662.849 1750.13 668.313 1751.08 673.04 C 1759.14 712.873 1764.27 754.199 1773.33 793.772 C 1782.88 793.406 1792.17 793.567 1801.71 793.679 C 1808.59 837.99 1819 889.919 1827.77 934.276 C 1788.34 935.878 1741.96 934.472 1701.75 934.694 L 1644.45 934.844 C 1645.36 925.261 1647.72 913.184 1649.48 903.7 C 1601.74 902.25 1552.41 904.888 1504.22 903.27 C 1511.17 854.11 1517.76 804.9 1524 755.645 C 1527.38 728.231 1531.93 684.078 1537.21 657.961 L 1587.25 657.958 C 1586.61 627.098 1588.03 599.246 1624.92 592.215 z" fill="rgb(20,35,28)" transform="translate(0,0)"></path>
<path d="M 1668.57 660.927 C 1668.24 669.353 1665.65 679.492 1668.76 686.259 C 1670.92 688.11 1669.63 687.552 1673 687.359 C 1676.46 685.307 1676.96 685.253 1678.84 681.882 C 1679.1 675.543 1678.03 675.674 1672.93 672.135 C 1671.5 669.528 1671.44 663.619 1673.21 661.384 C 1682.86 659.989 1719.85 660.833 1731.48 660.881 C 1732.89 689.41 1734.64 718.7 1735.73 747.19 C 1702.72 745.678 1694.78 758.568 1695 789.812 L 1695.04 793.51 L 1668 793.611 C 1662.89 826.205 1656.69 869.046 1649.78 900.942 C 1603.79 900.454 1557.76 901.305 1511.73 900.778 C 1509.76 900.226 1509.32 899.937 1507.5 899.081 C 1520 820.529 1527.28 738.999 1539.38 660.976 L 1587.34 660.934 C 1587.93 675.231 1581.33 677.003 1584.55 685.073 C 1587.63 686.964 1586.35 686.471 1590.41 686.252 C 1593.49 684.625 1593.81 684.366 1595.47 681.312 C 1595.25 674.962 1589.51 675.254 1590.07 660.924 L 1668.57 660.927 z" fill="rgb(91,107,97)" transform="translate(0,0)"></path>
<path d="M 1703.24 796.543 C 1712.17 796.351 1743.17 795.143 1750.28 796.858 C 1751.73 802.485 1744.84 806.269 1750.53 809.866 C 1754.48 809.859 1753.6 810.428 1756.47 808.606 C 1757.06 804.532 1752.91 802.535 1752.93 797.629 C 1756.14 794.91 1785.1 796.023 1790.88 796.062 C 1792.53 811.337 1793.02 829.647 1793.96 845.325 C 1795.68 874.163 1797.62 902.989 1799.76 931.799 L 1745.5 931.816 L 1648 931.82 C 1655.56 892.217 1665.35 836.233 1670.58 796.938 C 1676.66 796.854 1689.44 796.284 1694.88 797.419 C 1696.57 802.272 1692.8 802.959 1693.9 808.702 L 1695.88 809.941 C 1699.56 809.873 1699.24 810.435 1701.94 808.798 C 1702.01 805.319 1699.47 803.977 1698.16 798.918 L 1699.51 797.05 L 1703.24 796.543 z" fill="rgb(91,107,97)" transform="translate(0,0)"></path>
<path d="M 1635.38 597.024 C 1643.29 596.26 1644.78 596.721 1651.36 601.209 C 1671.48 614.95 1668.48 636.654 1668.3 657.852 L 1645.89 657.908 L 1611.3 658.005 C 1611.14 629.028 1606.97 613.299 1635.38 597.024 z" fill="rgb(247,248,243)" transform="translate(0,0)"></path>
<path d="M 1625.84 595.217 C 1626.84 595.176 1628.64 594.905 1629.46 595.49 C 1629.58 595.578 1629.67 595.845 1629.61 595.907 C 1627.49 598.241 1623.06 601.152 1620.59 603.597 C 1605.07 618.98 1608.07 638.124 1608.12 657.962 L 1593.75 657.999 C 1592.39 657.922 1590.34 657.886 1590.35 656.035 C 1590.45 642.629 1588.13 628.58 1595.37 616.619 C 1603.2 603.672 1611.62 598.108 1625.84 595.217 z" fill="rgb(247,248,243)" transform="translate(0,0)"></path>
<path d="M 1649.58 595.795 C 1662.73 595.651 1669.48 599.467 1678.4 608.908 C 1690.76 622.004 1689.1 640.097 1688.37 656.817 C 1685.61 658.734 1675.64 657.926 1671.84 657.895 C 1671.65 629.526 1675.15 614.374 1649.58 595.795 z" fill="rgb(247,248,243)" transform="translate(0,0)"></path>
<path d="M 1727.78 751.178 C 1739.58 751.777 1736.1 752.542 1737.23 763.491 C 1738.24 773.324 1738.88 783.002 1739.2 792.883 C 1734.43 792.99 1729.67 793.049 1724.9 793.06 C 1721.51 793.137 1718.12 793.249 1714.74 793.397 C 1715.05 776.55 1710.79 760.028 1727.78 751.178 z" fill="rgb(91,107,97)" transform="translate(0,0)"></path>
<path d="M 1721.75 750.208 C 1722.35 750.54 1722.18 750.393 1722.39 750.637 C 1722.38 751.374 1721.23 752.397 1720.79 752.733 C 1706.11 763.829 1714.49 779.154 1710.37 793.009 C 1710.07 794.038 1702.31 793.678 1700.28 793.682 C 1699.73 793.315 1698.9 792.789 1698.85 792.001 C 1697.55 771.988 1698.32 755.438 1721.75 750.208 z" fill="rgb(91,107,97)" transform="translate(0,0)"></path>
<path d="M 1672.38 676.811 C 1673.86 676.594 1675.3 677.438 1675.82 678.838 C 1676.35 680.239 1675.84 681.819 1674.58 682.636 C 1673.49 683.347 1672.07 683.321 1671.01 682.569 C 1669.94 681.818 1669.44 680.493 1669.74 679.224 C 1670.05 677.956 1671.09 677 1672.38 676.811 z" fill="rgb(105,103,33)" transform="translate(0,0)"></path>
<path d="M 1586.93 678.514 C 1587.99 677.282 1589.85 677.142 1591.08 678.201 C 1592.32 679.26 1592.47 681.119 1591.41 682.358 C 1590.35 683.603 1588.48 683.75 1587.24 682.686 C 1586 681.622 1585.86 679.752 1586.93 678.514 z" fill="rgb(91,107,97)" transform="translate(0,0)"></path>
<path d="M 549.665 85.2552 C 570.646 83.8051 580.585 102.087 575.806 120.448 C 567.187 153.559 537.057 187.428 508.723 205.889 C 510.819 229.389 514.895 255.922 518.079 279.35 C 478.224 323.756 436.51 366.907 396.911 411.462 L 360.354 378.665 C 337.062 356.475 312.487 335.031 288.996 312.68 C 312.329 284.38 343.507 254.515 367.947 226.625 C 377.918 215.246 389.433 204.598 398.927 192.609 C 421.019 187.159 461.245 181.275 484.913 176.999 C 493.8 141.997 511.056 95.4326 549.665 85.2552 z" fill="rgb(20,35,28)" transform="translate(0,0)"></path>
<path d="M 479.568 181.304 L 482.037 181.084 L 482.921 182.381 C 481.738 187.696 479.633 197.578 476.914 201.88 C 474.906 202.203 472.904 202.563 470.909 202.962 C 447.647 207.557 451.905 222.073 467.458 232.792 C 475.886 238.601 486.196 218.39 488.406 214.32 C 488.599 213.964 502.547 208.714 505.36 207.607 C 508.465 230.898 512.144 255.577 514.442 278.847 C 499.352 294.017 482.576 313.133 467.906 329.064 L 396.286 406.92 L 389.349 400.614 C 359.828 373.538 321.327 340.273 293.592 312.231 C 328.219 272.882 366.025 234.69 400.892 195.241 C 423.914 190.079 455.765 185.484 479.568 181.304 z" fill="rgb(242,165,26)" transform="translate(0,0)"></path>
<path d="M 549.557 88.2343 C 567.991 86.8578 576.83 102.208 573.035 118.35 C 565.331 151.114 537.136 182.374 509.973 201.24 L 509.063 201.423 C 506.532 198.519 504.897 178.829 504.237 173.459 C 499.121 174.125 493.15 175.592 488.021 176.716 C 497.959 142.561 511.585 99.8572 549.557 88.2343 z" fill="rgb(247,248,243)" transform="translate(0,0)"></path>
<path d="M 499.423 177.852 C 499.901 177.666 500.072 177.515 500.482 177.602 C 502.838 181.356 503.958 198.592 504.783 203.872 C 498.027 207.215 493.085 209.186 485.989 211.838 C 483.975 209.744 481.837 207.282 479.727 205.052 C 482.892 195.505 484.664 189.563 486.875 179.794 C 491.239 179.083 495.121 178.857 499.423 177.852 z" fill="rgb(242,165,26)" transform="translate(0,0)"></path>
<path d="M 471.457 205.067 C 479.996 207.918 474.318 208.209 475.255 214.36 C 476.41 215.858 479.842 211.662 480.566 212.357 C 487.309 218.824 477.888 226.207 474.611 228.306 C 456.48 229.364 451.723 210.34 471.457 205.067 z" fill="rgb(247,248,243)" transform="translate(0,0)"></path>
<path d="M 240.409 724.651 C 296.434 736.093 354.604 743.38 410.904 753.997 C 431.157 757.816 455.959 762.744 476.306 764.484 C 468.919 800.764 462.344 838.396 455.301 874.911 C 376.792 862.954 297.265 844.874 219.022 833.697 C 225.413 799.098 232.725 758.618 240.409 724.651 z" fill="rgb(20,35,28)" transform="translate(0,0)"></path>
<path d="M 242.859 728.1 C 258.076 731.59 274.256 733.74 289.647 736.623 C 334.032 744.939 379.907 750.634 423.982 759.927 L 426.635 760.585 L 426.096 761.515 L 424.942 761.613 C 418.398 766.645 382.654 782.118 373.439 786.433 L 264.959 838.439 C 250.863 836.047 236.781 833.574 222.713 831.021 C 230.024 798.297 236.196 761.406 242.859 728.1 z" fill="rgb(192,86,122)" transform="translate(0,0)"></path>
<path d="M 433.112 761.587 C 446.223 763.536 459.321 765.572 472.405 767.695 C 465.737 802.163 459.241 836.664 452.918 871.197 L 339.999 852.089 C 318.719 848.37 294.943 843.268 273.836 840.274 L 271.985 839.727 L 271.535 838.581 L 274.556 837.394 C 325.082 811.443 383.999 787.727 433.112 761.587 z" fill="rgb(192,86,122)" transform="translate(0,0)"></path>
<path d="M 1718.87 1034.51 C 1769.13 1026.65 1816.21 1061.11 1823.91 1111.4 C 1831.6 1161.69 1796.98 1208.66 1746.66 1216.18 C 1696.59 1223.67 1649.89 1189.24 1642.24 1139.2 C 1634.58 1089.15 1668.85 1042.34 1718.87 1034.51 z" fill="rgb(20,35,28)" transform="translate(0,0)"></path>
<path d="M 1719.54 1037.65 C 1768.12 1030.18 1813.51 1063.64 1820.75 1112.25 C 1827.98 1160.87 1794.3 1206.09 1745.65 1213.09 C 1697.34 1220.04 1652.49 1186.64 1645.3 1138.36 C 1638.12 1090.08 1671.3 1045.07 1719.54 1037.65 z" fill="rgb(242,165,26)" transform="translate(0,0)"></path>
<path d="M 1723.83 1062.8 C 1758.61 1057.66 1790.93 1081.8 1795.87 1116.61 C 1800.8 1151.42 1776.46 1183.59 1741.63 1188.32 C 1707.09 1193 1675.24 1168.91 1670.35 1134.4 C 1665.46 1099.89 1689.35 1067.9 1723.83 1062.8 z" fill="rgb(20,35,28)" transform="translate(0,0)"></path>
<path d="M 1725.77 1065.84 C 1758.83 1061.79 1788.88 1085.36 1792.82 1118.43 C 1796.75 1151.5 1773.06 1181.47 1739.97 1185.28 C 1707.06 1189.07 1677.29 1165.53 1673.38 1132.64 C 1669.46 1099.74 1692.89 1069.88 1725.77 1065.84 z" fill="rgb(242,165,26)" transform="translate(0,0)"></path>
<path d="M 1725.33 1088.18 C 1745.9 1083.89 1766.09 1096.99 1770.54 1117.53 C 1775 1138.07 1762.06 1158.36 1741.56 1162.98 C 1720.82 1167.65 1700.25 1154.53 1695.74 1133.76 C 1691.24 1112.99 1704.52 1092.52 1725.33 1088.18 z" fill="rgb(20,35,28)" transform="translate(0,0)"></path>
<path d="M 1726.39 1091.21 C 1745.26 1087.49 1763.6 1099.64 1767.55 1118.46 C 1771.49 1137.28 1759.57 1155.77 1740.8 1159.94 C 1728.46 1162.69 1715.59 1158.58 1707.11 1149.2 C 1698.64 1139.81 1695.87 1126.59 1699.86 1114.58 C 1703.85 1102.58 1713.98 1093.65 1726.39 1091.21 z" fill="rgb(242,165,26)" transform="translate(0,0)"></path>
<path d="M 325.412 966.071 C 365.911 962.542 401.687 992.314 405.572 1032.78 C 409.457 1073.25 380 1109.28 339.569 1113.52 C 298.632 1117.82 262.047 1087.91 258.113 1046.94 C 254.179 1005.97 284.406 969.644 325.412 966.071 z" fill="rgb(20,35,28)" transform="translate(0,0)"></path>
<path d="M 324.619 969.259 C 363.481 965.25 398.259 993.444 402.374 1032.29 C 406.49 1071.15 378.39 1106 339.551 1110.22 C 300.561 1114.46 265.542 1086.23 261.41 1047.23 C 257.279 1008.23 285.606 973.284 324.619 969.259 z" fill="rgb(192,86,122)" transform="translate(0,0)"></path>
<path d="M 359.935 1024.4 C 365.79 1021.85 372.598 1024.56 375.114 1030.42 C 377.63 1036.29 374.893 1043.09 369.013 1045.57 C 363.174 1048.04 356.437 1045.33 353.939 1039.5 C 351.441 1033.67 354.121 1026.92 359.935 1024.4 z" fill="rgb(20,35,28)" transform="translate(0,0)"></path>
<path d="M 361.59 1027.35 C 365.901 1025.69 370.737 1027.85 372.378 1032.17 C 374.02 1036.49 371.844 1041.32 367.522 1042.94 C 363.22 1044.57 358.416 1042.4 356.782 1038.1 C 355.147 1033.81 357.297 1029 361.59 1027.35 z" fill="rgb(247,248,243)" transform="translate(0,0)"></path>
<path d="M 328.795 1024.31 C 334.856 1022.43 341.294 1025.83 343.159 1031.9 C 345.024 1037.96 341.606 1044.39 335.533 1046.24 C 329.486 1048.07 323.092 1044.67 321.236 1038.63 C 319.379 1032.59 322.76 1026.19 328.795 1024.31 z" fill="rgb(20,35,28)" transform="translate(0,0)"></path>
<path d="M 329.661 1027.46 C 332.466 1026.49 335.577 1027.12 337.778 1029.11 C 339.98 1031.1 340.924 1034.13 340.241 1037.02 C 339.558 1039.91 337.357 1042.2 334.497 1042.99 C 330.26 1044.17 325.856 1041.77 324.549 1037.57 C 323.243 1033.37 325.506 1028.9 329.661 1027.46 z" fill="rgb(247,248,243)" transform="translate(0,0)"></path>
<path d="M 295.414 1024.44 C 301.176 1022.38 307.534 1025.26 309.777 1030.96 C 312.02 1036.65 309.336 1043.1 303.715 1045.52 C 299.919 1047.15 295.533 1046.59 292.272 1044.05 C 289.01 1041.51 287.39 1037.4 288.044 1033.32 C 288.698 1029.24 291.522 1025.83 295.414 1024.44 z" fill="rgb(20,35,28)" transform="translate(0,0)"></path>
<path d="M 296.312 1027.55 C 300.451 1025.92 305.131 1027.91 306.82 1032.03 C 308.509 1036.14 306.582 1040.85 302.493 1042.6 C 299.794 1043.76 296.682 1043.37 294.35 1041.58 C 292.018 1039.8 290.827 1036.9 291.233 1033.99 C 291.639 1031.08 293.58 1028.62 296.312 1027.55 z" fill="rgb(247,248,243)" transform="translate(0,0)"></path>
<path d="M 925.658 223.483 C 931.077 223.394 936.497 223.367 941.916 223.402 L 941.966 284.685 C 927.411 284.866 912.855 284.91 898.3 284.816 C 892.819 284.766 887.337 284.804 881.858 284.932 L 881.967 223.668 C 896.531 223.886 911.097 223.824 925.658 223.483 z" fill="rgb(20,35,28)" transform="translate(0,0)"></path>
<path d="M 885.061 226.988 C 902.962 227.105 920.865 226.982 938.763 226.619 C 938.867 240.891 939.649 268.276 938.685 281.613 C 920.839 281.494 902.874 281.87 885.073 281.679 L 885.061 226.988 z" fill="rgb(242,165,26)" transform="translate(0,0)"></path>
<path d="M 1732 1328.44 C 1748.22 1326.99 1762.62 1338.78 1764.39 1354.96 C 1766.16 1371.15 1754.65 1385.78 1738.5 1387.86 C 1727.78 1389.24 1717.14 1384.72 1710.69 1376.04 C 1704.23 1367.36 1702.98 1355.87 1707.4 1346 C 1711.82 1336.13 1721.23 1329.41 1732 1328.44 z" fill="rgb(20,35,28)" transform="translate(0,0)"></path>
<path d="M 1727.83 1332.46 C 1742.16 1328.55 1756.93 1337.06 1760.74 1351.42 C 1764.55 1365.78 1755.95 1380.49 1741.57 1384.21 C 1727.32 1387.89 1712.77 1379.38 1708.99 1365.16 C 1705.21 1350.93 1713.63 1336.32 1727.83 1332.46 z" fill="rgb(91,107,97)" transform="translate(0,0)"></path>
<path d="M 330.241 515.286 C 346.272 511.702 362.187 521.74 365.858 537.75 C 369.53 553.761 359.579 569.73 343.589 573.49 C 327.475 577.278 311.354 567.233 307.654 551.098 C 303.954 534.964 314.086 518.898 330.241 515.286 z" fill="rgb(20,35,28)" transform="translate(0,0)"></path>
<path d="M 330.905 518.305 C 345.331 515.021 359.679 524.082 362.913 538.518 C 366.148 552.954 357.038 567.271 342.591 570.456 C 328.214 573.626 313.981 564.57 310.762 550.203 C 307.543 535.837 316.55 521.574 330.905 518.305 z" fill="rgb(91,107,97)" transform="translate(0,0)"></path>
<path d="M 1468.72 1008.61 C 1479.81 1009.43 1469.66 1012.49 1466.95 1014.41 L 1464.65 1016.05 C 1463.08 1017.17 1463.4 1017.2 1461.44 1016.8 C 1460.56 1013.02 1466.33 1010.18 1468.72 1008.61 z" fill="rgb(20,35,28)" transform="translate(0,0)"></path>
<metadata><recraft-signature>{"signed_by": "recraft", "signature_b64": "3ENEEK6tQXbCVVYYr0IqawLysu2GDbThHVidMb+qiuYnr55zkayFh61Rgc3Ie/PLeDg1SY1jNFGgfUYzid2VDQ==", "signing_algo": "Ed25519", "generation_timestamp": 1783309068, "identifier": "ab199cf8-c182-4d06-a4de-1317eaa19f6f"}</recraft-signature></metadata></svg>