<svg xmlns="http://www.w3.org/2000/svg" height="896" preserveAspectRatio="none" style="display: block;" version="1.1" viewBox="0 0 2048 1509" width="1216">
<path d="M 0 0 L 2048 0 L 2048 1509 L 0 1509 L 0 0 z" fill="rgb(247,248,243)" transform="translate(0,0)"></path>
<path d="M 674.14 400.282 C 671.396 400.23 668.654 400.07 665.922 399.802 C 598.198 392.592 576.63 307.235 629.983 266.331 C 645.946 254.173 666.076 248.836 685.966 251.489 C 731.244 257.633 751.669 297.211 745.389 339.862 C 760.014 337.294 789.367 344.274 801.727 353.415 C 819.681 366.692 824.383 376.059 828.585 396.854 C 829.062 402.409 829.196 403.612 828.156 409.133 C 826.88 428.57 815.856 475.788 799.988 488.252 C 790.881 495.405 785.68 496.83 774.695 499.454 C 774.467 503.175 773.874 509.951 774.023 513.456 C 773.926 516.857 774.015 522.176 773.176 525.301 C 779.54 528.25 797.575 529.448 805.739 531.474 C 840.956 538.635 878.879 543.789 907.72 566.671 C 914.966 572.419 920.48 580.199 927.184 585.891 C 934.79 578.576 950.007 563.129 959.427 559.998 C 959.15 563.588 952.073 567.58 949.231 569.904 C 905.797 605.436 871.491 659.548 847.398 709.277 C 854.915 718.854 862.786 730.106 867.682 741.311 C 877.189 743.455 906.046 747.764 911.934 750.082 C 944.447 686.495 1045.17 534.579 1105.45 503.39 C 1135.92 487.628 1164.61 487.053 1196.76 497.344 C 1223.96 506.855 1246.9 522.847 1271.14 538.32 C 1311.31 564.522 1350.97 591.496 1390.11 619.225 L 1418.27 537.071 C 1421.62 527.245 1431.06 497.531 1435.85 489.876 C 1437.04 494.356 1397.43 606.605 1393.14 621.262 C 1406.41 631.086 1422.38 641.835 1435.02 651.845 C 1436.99 645.422 1440.5 637.493 1437.98 631.519 C 1435.52 630.219 1435.49 630.342 1432.84 630.104 C 1431.86 626.997 1434.07 622.173 1435.62 619.38 C 1453.52 586.949 1495.93 576.524 1530.44 582.101 C 1533.28 569.195 1536.81 559.242 1548.54 551.592 C 1557.32 545.92 1568.01 544.013 1578.21 546.301 C 1588.73 548.798 1597.84 555.346 1603.55 564.521 C 1608.44 572.245 1609.99 581.622 1607.85 590.509 C 1605.69 599.672 1600.66 606.198 1594.06 612.639 C 1619.89 636.667 1638.03 657.404 1652.72 689.987 C 1666.82 721.231 1659.94 734.438 1627.21 743.585 C 1604.11 750.041 1581.55 752.069 1557.76 753.13 C 1555.43 753.234 1554.2 753.751 1552.99 755.554 C 1555.86 758.641 1579.9 761.624 1586.52 762.971 C 1568.47 788.883 1537.12 809.584 1506.01 814.746 C 1463.19 821.851 1439.61 805.805 1441.32 762.694 C 1403.53 766.766 1363.71 771.53 1331.08 792.634 L 1356.77 835.282 C 1359.52 829.096 1362.32 821.743 1366.59 816.632 L 1367.89 816.242 C 1367.19 822.825 1361.86 831.721 1358.15 837.18 C 1379.76 874.219 1400.29 911.879 1419.71 950.111 L 1420.74 949.146 C 1443.85 927.172 1464.89 895.017 1487.35 871.744 C 1493.21 865.665 1497.91 858.347 1504.48 852.955 L 1505.37 853.22 C 1501.76 860.24 1479.76 885.002 1473.63 892.119 C 1456.55 911.944 1438.98 934.018 1421.1 953.029 C 1425.02 961.777 1440.29 998.323 1437.76 1005.97 L 1436.53 1006.02 C 1434.07 1001.46 1433.23 992.193 1431.32 986.661 C 1426.66 973.223 1421.48 959.993 1415.03 947.29 C 1389.69 897.397 1362.62 848.29 1332.67 801.005 C 1329.66 796.249 1326.58 791.65 1323.21 787.137 C 1294.79 805.995 1257.6 824.78 1230.76 843.254 C 1221.61 850.562 1198.91 862.236 1187.61 868.365 C 1219.31 916.284 1250.48 964.554 1281.1 1013.17 C 1295.63 1036.72 1310.12 1060.83 1325.59 1083.65 C 1335.55 1098.32 1346.55 1121.69 1359.69 1133.07 C 1383.88 1154.02 1414.01 1153.12 1440.02 1138.83 C 1440.9 1139.73 1441.39 1139.86 1442.53 1140.51 C 1448.73 1138.12 1461.13 1124.55 1466.2 1119.39 C 1489.85 1161.47 1513.26 1183.21 1549.54 1212.54 C 1534.19 1235.16 1522.66 1253.51 1502.26 1272.19 C 1461.09 1309.9 1402.01 1321.93 1349.08 1305.11 C 1344.35 1303.6 1328.8 1297.62 1324.81 1297.77 C 1311.76 1298.79 1301.38 1299.39 1288.56 1297.98 C 1207.93 1289.14 1181.6 1247.15 1134.48 1190.62 C 1110 1161.55 1085.67 1132.35 1061.51 1103.01 C 1055.58 1109.33 1036.68 1143.34 1031.05 1152.78 L 956.017 1279.24 C 936.913 1266.26 919.974 1251.02 901.755 1238.3 L 899.494 1235.86 L 897.519 1236.07 C 892.02 1228.46 872.978 1214.46 864.926 1208.89 L 861.958 1207.73 C 861.317 1205.98 791.888 1151.53 786.402 1149.27 L 779.594 1165.26 L 778.274 1167.13 C 774.972 1169.75 774.15 1169.88 770.055 1171.06 C 764.769 1168.55 745.473 1153.17 740.023 1149.09 L 739.037 1147.08 C 741.331 1147.02 743.284 1146.2 744.312 1144.22 C 743.05 1141.26 736.626 1136.76 733.567 1134.17 L 731.779 1132.66 C 729.801 1129.85 652.344 1069.6 643.913 1064.43 C 641.407 1072.16 639.033 1080.19 636.639 1087.97 C 629.741 1086.2 608.642 1083.36 602.012 1085.05 L 601.242 1086.39 C 592.997 1089.82 571.568 1101.83 564.572 1107.23 L 564.181 1105.89 C 564.575 1105.57 567.672 1103.56 567.272 1103.04 C 564.465 1099.35 559.61 1095.92 556.009 1092.99 C 524.874 1069.61 494.368 1044.02 463.224 1021.2 C 456.904 1014.98 429.548 994.484 421.438 988.333 C 445.217 966.322 483.412 938.106 504.26 915.604 C 486.055 919.68 470.229 921.45 451.607 917.934 C 426.177 918.345 404.807 915.764 385.205 897.244 C 370.297 883.094 361.727 863.527 361.438 842.975 C 360.963 818.259 369.712 804.906 380.69 783.923 C 389.389 767.296 398.724 751.045 407.547 734.528 C 424.631 702.21 441.933 670.008 459.453 637.924 C 482.417 595.598 496.388 561.17 536.41 531.979 C 570.578 507.057 598.102 502.591 638.473 501.932 C 654.34 501.934 668.084 503.468 683.82 505.03 L 698.431 472.925 C 676.411 448.787 669.285 433.424 674.14 400.282 z" fill="rgb(113,152,251)" transform="translate(0,0)"></path>
<path d="M 718.721 1095.64 C 743.618 1072.75 767.868 1048.48 792.354 1025 L 952.864 871.374 L 1010.24 816.237 C 1029.28 798.103 1050.92 775.084 1076.33 767.518 C 1117.7 755.198 1162.8 776.666 1193.21 804.224 C 1197.13 807.782 1202.03 812.446 1206.77 814.684 C 1213.6 825.668 1224.11 833.674 1228.77 840.755 L 1230.76 843.254 C 1221.61 850.562 1198.91 862.236 1187.61 868.365 C 1219.31 916.284 1250.48 964.554 1281.1 1013.17 C 1295.63 1036.72 1310.12 1060.83 1325.59 1083.65 C 1335.55 1098.32 1346.55 1121.69 1359.69 1133.07 C 1383.88 1154.02 1414.01 1153.12 1440.02 1138.83 C 1440.9 1139.73 1441.39 1139.86 1442.53 1140.51 C 1448.73 1138.12 1461.13 1124.55 1466.2 1119.39 C 1489.85 1161.47 1513.26 1183.21 1549.54 1212.54 C 1534.19 1235.16 1522.66 1253.51 1502.26 1272.19 C 1461.09 1309.9 1402.01 1321.93 1349.08 1305.11 C 1344.35 1303.6 1328.8 1297.62 1324.81 1297.77 C 1311.76 1298.79 1301.38 1299.39 1288.56 1297.98 C 1207.93 1289.14 1181.6 1247.15 1134.48 1190.62 C 1110 1161.55 1085.67 1132.35 1061.51 1103.01 C 1055.58 1109.33 1036.68 1143.34 1031.05 1152.78 L 956.017 1279.24 C 936.913 1266.26 919.974 1251.02 901.755 1238.3 L 899.494 1235.86 L 897.519 1236.07 C 892.02 1228.46 872.978 1214.46 864.926 1208.89 L 861.958 1207.73 C 861.317 1205.98 791.888 1151.53 786.402 1149.27 C 784.285 1144.88 727.612 1103.17 718.721 1095.64 z" fill="rgb(110,149,49)" transform="translate(0,0)"></path>
<path d="M 1061.51 1103.01 C 1062.08 1099.82 1152.63 941.807 1157.09 937.446 L 1157.66 938.408 C 1155.73 945.428 1151.66 951.258 1148.13 957.556 C 1137.74 976.094 1126.31 994.547 1116.49 1013.37 C 1136.28 1050.47 1164.63 1092.16 1186.77 1128.18 C 1202.96 1155.09 1219.56 1181.75 1236.58 1208.13 C 1245.82 1222.63 1256.11 1239.91 1266.96 1252.89 C 1280.05 1268.33 1295.89 1281.2 1313.68 1290.86 C 1317.03 1292.71 1324.29 1294.78 1324.81 1297.77 C 1311.76 1298.79 1301.38 1299.39 1288.56 1297.98 C 1207.93 1289.14 1181.6 1247.15 1134.48 1190.62 C 1110 1161.55 1085.67 1132.35 1061.51 1103.01 z" fill="rgb(20,35,28)" transform="translate(0,0)"></path>
<path d="M 1390.11 619.225 L 1418.27 537.071 C 1421.62 527.245 1431.06 497.531 1435.85 489.876 C 1437.04 494.356 1397.43 606.605 1393.14 621.262 C 1406.41 631.086 1422.38 641.835 1435.02 651.845 C 1436.99 645.422 1440.5 637.493 1437.98 631.519 C 1435.52 630.219 1435.49 630.342 1432.84 630.104 C 1431.86 626.997 1434.07 622.173 1435.62 619.38 C 1453.52 586.949 1495.93 576.524 1530.44 582.101 C 1533.28 569.195 1536.81 559.242 1548.54 551.592 C 1557.32 545.92 1568.01 544.013 1578.21 546.301 C 1588.73 548.798 1597.84 555.346 1603.55 564.521 C 1608.44 572.245 1609.99 581.622 1607.85 590.509 C 1605.69 599.672 1600.66 606.198 1594.06 612.639 C 1619.89 636.667 1638.03 657.404 1652.72 689.987 C 1666.82 721.231 1659.94 734.438 1627.21 743.585 C 1604.11 750.041 1581.55 752.069 1557.76 753.13 C 1555.43 753.234 1554.2 753.751 1552.99 755.554 C 1555.86 758.641 1579.9 761.624 1586.52 762.971 C 1568.47 788.883 1537.12 809.584 1506.01 814.746 C 1463.19 821.851 1439.61 805.805 1441.32 762.694 C 1403.53 766.766 1363.71 771.53 1331.08 792.634 L 1356.77 835.282 C 1359.52 829.096 1362.32 821.743 1366.59 816.632 L 1367.89 816.242 C 1367.19 822.825 1361.86 831.721 1358.15 837.18 C 1379.76 874.219 1400.29 911.879 1419.71 950.111 L 1420.74 949.146 C 1443.85 927.172 1464.89 895.017 1487.35 871.744 C 1493.21 865.665 1497.91 858.347 1504.48 852.955 L 1505.37 853.22 C 1501.76 860.24 1479.76 885.002 1473.63 892.119 C 1456.55 911.944 1438.98 934.018 1421.1 953.029 C 1425.02 961.777 1440.29 998.323 1437.76 1005.97 L 1436.53 1006.02 C 1434.07 1001.46 1433.23 992.193 1431.32 986.661 C 1426.66 973.223 1421.48 959.993 1415.03 947.29 C 1389.69 897.397 1362.62 848.29 1332.67 801.005 C 1329.66 796.249 1326.58 791.65 1323.21 787.137 C 1294.79 805.995 1257.6 824.78 1230.76 843.254 L 1228.77 840.755 C 1224.11 833.674 1213.6 825.668 1206.77 814.684 C 1202.03 812.446 1197.13 807.782 1193.21 804.224 C 1162.8 776.666 1117.7 755.198 1076.33 767.518 C 1050.92 775.084 1029.28 798.103 1010.24 816.237 L 952.864 871.374 L 792.354 1025 C 767.868 1048.48 743.618 1072.75 718.721 1095.64 C 727.612 1103.17 784.285 1144.88 786.402 1149.27 L 779.594 1165.26 C 779.564 1163.21 779.751 1160.64 778.332 1158.98 C 770.4 1149.71 761.096 1141.42 752.281 1133.02 L 714.238 1096.11 C 739.389 1072.46 764.307 1047.57 789.293 1023.57 L 938.472 880.613 L 1003.6 818.192 C 1040.78 782.6 1071.22 748.764 1128.81 764.623 C 1132.45 765.626 1137.99 766.937 1141.7 767.483 C 1143.37 764.533 1142.81 763.541 1142.85 759.86 C 1139.13 759.052 1130.81 752.287 1127.55 749.703 C 1103.38 730.509 1083.02 712.083 1050.76 709.523 C 996.022 705.179 979.161 730.945 942.623 760.803 C 934.71 757.452 922.377 751.968 914.316 750.639 L 911.934 750.082 C 944.447 686.495 1045.17 534.579 1105.45 503.39 C 1135.92 487.628 1164.61 487.053 1196.76 497.344 C 1223.96 506.855 1246.9 522.847 1271.14 538.32 C 1311.31 564.522 1350.97 591.496 1390.11 619.225 z" fill="rgb(20,35,28)" transform="translate(0,0)"></path>
<path d="M 914.316 750.639 C 946.422 689.069 1032.55 562.746 1086.44 519.437 C 1098.15 509.837 1111.55 502.495 1125.94 497.784 C 1157.19 487.77 1191.77 494.467 1219.56 510.174 C 1253.78 529.517 1291.59 554.235 1323.89 576.915 C 1359.27 601.75 1400.62 628.51 1434.45 654.83 C 1429.19 673.205 1422.34 690.112 1432.19 708.14 C 1437.26 717.332 1445.84 724.071 1455.97 726.813 C 1459.66 727.779 1464.92 728.654 1468.75 729.289 C 1467.73 737.599 1466.63 745.901 1465.47 754.194 L 1464.36 758.773 C 1423.31 760.926 1378.23 765.299 1340.94 783.631 C 1338.11 785.022 1330.35 789.956 1327.9 789.169 C 1323.42 783.859 1324.54 777.05 1324.04 770.495 C 1322.78 754.216 1314.38 623.102 1278.36 661.206 C 1273.24 655.969 1281.24 597.165 1273.77 592.057 C 1260.57 583.034 1215.89 589.159 1198.7 587.552 C 1193.88 587.103 1181.01 588.5 1178.5 591.604 C 1172.5 599.021 1174.32 631.806 1173.95 640.21 C 1162.02 644.744 1152.79 650.442 1147.3 662.472 C 1138.88 680.911 1143.09 737.107 1142.85 759.86 C 1139.13 759.052 1130.81 752.287 1127.55 749.703 C 1103.38 730.509 1083.02 712.083 1050.76 709.523 C 996.022 705.179 979.161 730.945 942.623 760.803 C 934.71 757.452 922.377 751.968 914.316 750.639 z" fill="rgb(247,248,243)" transform="translate(0,0)"></path>
<path d="M 1285.89 737.942 C 1286.98 728.621 1286.9 721.911 1285.67 712.618 C 1284.02 699.644 1278.2 686.797 1278.48 673.673 C 1278.73 669.32 1279.23 663.279 1282.95 660.441 C 1296.79 649.888 1302.62 665.968 1305.67 676.779 C 1312.01 699.283 1317.31 721.947 1319.54 745.249 C 1320.81 758.566 1320.58 772.29 1322.05 785.505 C 1291.71 800.963 1259.44 824.261 1228.77 840.755 C 1224.11 833.674 1213.6 825.668 1206.77 814.684 C 1197.84 798.682 1162.25 777.899 1145.74 769.915 L 1146.05 755.607 C 1153.85 747.514 1163.11 740.961 1173.33 736.291 C 1195.37 726.166 1217.63 726.614 1239.65 736.899 C 1244.89 739.348 1251.42 744.757 1254.42 745.86 L 1254.96 744.364 C 1249.95 734.95 1224.02 727.65 1213.75 726.672 C 1188.11 724.231 1168.53 733.082 1149.06 748.919 C 1147.27 749.5 1147.37 749.564 1145.98 750.936 L 1145.69 727.026 C 1194.96 674.04 1236.85 705.508 1283.66 739.428 C 1287 742.154 1286.55 742.735 1290 742.958 C 1289.42 739.929 1289.01 740.515 1285.89 737.942 z" fill="rgb(247,248,243)" transform="translate(0,0)"></path>
<path d="M 1149.06 748.919 C 1149.01 751.181 1148.2 750.597 1145.98 750.936 C 1147.37 749.564 1147.27 749.5 1149.06 748.919 z" fill="rgb(91,107,97)" transform="translate(0,0)"></path>
<path d="M 1443.44 631.005 C 1461.82 630.544 1474.93 630.234 1492.9 626.483 C 1502.13 650.275 1509.31 653.965 1531 666.092 C 1532.32 661.395 1535.64 653.841 1540.34 652.358 C 1572.69 642.159 1567.69 699.749 1532.32 678.811 C 1530.55 691.54 1529.73 734.42 1537.42 746.053 C 1539.79 749.632 1547.47 752.745 1551.8 754.856 C 1538.14 768.673 1521.03 776.73 1501.39 777.159 C 1489.48 777.419 1470.96 771.844 1466.92 759.114 L 1467.38 756.754 C 1492.27 750.269 1497.94 735.845 1504.2 712.56 C 1504.37 711.917 1508.72 705.382 1509.45 704.196 L 1508.91 703.103 C 1494.88 715.613 1485.55 726.557 1465.38 725.786 C 1443.29 724.943 1427.31 705.752 1430.12 684.106 C 1432.29 667.401 1438.82 647.476 1443.44 631.005 z" fill="rgb(247,248,243)" transform="translate(0,0)"></path>
<path d="M 1458.68 658.424 C 1464.91 661.243 1452.4 676.631 1456.02 683.946 C 1456.81 685.554 1458.22 686.765 1459.93 687.294 C 1465.6 689.006 1467.16 684.71 1472.14 684.625 C 1466.98 695.085 1450.24 690.579 1452.8 679.006 C 1454.25 672.397 1456.82 665.1 1458.68 658.424 z" fill="rgb(20,35,28)" transform="translate(0,0)"></path>
<path d="M 1183.54 591.146 C 1204.41 589.346 1233.2 591.527 1254.47 590.667 C 1259.45 590.466 1268.32 591.095 1271.96 594.805 C 1272.92 598.357 1274.19 606.371 1274.03 609.741 C 1273.36 623.979 1275.95 724.456 1272.45 727.636 C 1269.36 725.106 1263.43 719.886 1259.81 718.813 C 1258.93 716.692 1254.05 716.33 1251.66 712.896 C 1269.86 689.715 1237.08 678.341 1221.06 670.677 C 1253.82 638.315 1198.92 634.488 1176.93 639.318 C 1177.63 626.413 1176.23 613.727 1177.48 600.998 C 1178 595.651 1179.45 594.271 1183.54 591.146 z" fill="rgb(91,107,97)" transform="translate(0,0)"></path>
<path d="M 1223.9 599.68 C 1239.78 601.577 1230.27 614.247 1232.58 626.848 C 1233.16 629.992 1232.86 636.605 1230.54 639.041 L 1229.6 640.068 C 1215.78 638.991 1221.99 629.727 1220.19 617.497 C 1219.06 609.819 1219.12 605.556 1223.9 599.68 z" fill="rgb(20,35,28)" transform="translate(0,0)"></path>
<path d="M 1188.14 668.267 C 1208.05 665.629 1227.19 676.038 1244.03 685.41 C 1253.4 690.619 1257.12 698.465 1251.01 708.134 C 1250.23 708.616 1249.44 709.098 1248.65 709.58 C 1238.17 707.058 1227.12 700.651 1216.42 698.105 C 1208.54 696.231 1207.21 696.059 1200.13 695.872 C 1177.26 696.549 1161.7 707.655 1145.76 722.595 C 1143.68 689.202 1153.56 674.278 1188.14 668.267 z" fill="rgb(247,248,243)" transform="translate(0,0)"></path>
<path d="M 1187.57 640.206 C 1195 639.442 1224.27 640.29 1226.61 649.741 C 1232.74 674.495 1203.53 664.719 1190.31 665.591 C 1183.07 666.069 1178.36 667.323 1171.33 669.551 C 1157.92 675.709 1154.45 678.732 1145.85 690.694 C 1146.36 657.842 1154.95 646.794 1187.57 640.206 z" fill="rgb(247,248,243)" transform="translate(0,0)"></path>
<path d="M 927.184 585.891 C 934.79 578.576 950.007 563.129 959.427 559.998 C 959.15 563.588 952.073 567.58 949.231 569.904 C 905.797 605.436 871.491 659.548 847.398 709.277 C 854.915 718.854 862.786 730.106 867.682 741.311 C 877.189 743.455 906.046 747.764 911.934 750.082 L 914.316 750.639 C 922.377 751.968 934.71 757.452 942.623 760.803 C 979.161 730.945 996.022 705.179 1050.76 709.523 C 1083.02 712.083 1103.38 730.509 1127.55 749.703 C 1130.81 752.287 1139.13 759.052 1142.85 759.86 C 1142.81 763.541 1143.37 764.533 1141.7 767.483 C 1137.99 766.937 1132.45 765.626 1128.81 764.623 C 1071.22 748.764 1040.78 782.6 1003.6 818.192 L 938.472 880.613 L 789.293 1023.57 C 764.307 1047.57 739.389 1072.46 714.238 1096.11 L 752.281 1133.02 C 761.096 1141.42 770.4 1149.71 778.332 1158.98 C 779.751 1160.64 779.564 1163.21 779.594 1165.26 L 778.274 1167.13 C 774.972 1169.75 774.15 1169.88 770.055 1171.06 C 764.769 1168.55 745.473 1153.17 740.023 1149.09 L 739.037 1147.08 C 741.331 1147.02 743.284 1146.2 744.312 1144.22 C 743.05 1141.26 736.626 1136.76 733.567 1134.17 L 731.779 1132.66 C 729.801 1129.85 652.344 1069.6 643.913 1064.43 C 641.407 1072.16 639.033 1080.19 636.639 1087.97 C 629.741 1086.2 608.642 1083.36 602.012 1085.05 L 601.242 1086.39 C 592.997 1089.82 571.568 1101.83 564.572 1107.23 L 564.181 1105.89 C 564.575 1105.57 567.672 1103.56 567.272 1103.04 C 564.465 1099.35 559.61 1095.92 556.009 1092.99 C 524.874 1069.61 494.368 1044.02 463.224 1021.2 C 456.904 1014.98 429.548 994.484 421.438 988.333 C 445.217 966.322 483.412 938.106 504.26 915.604 C 486.055 919.68 470.229 921.45 451.607 917.934 C 455.125 916.713 458.951 915.903 462.54 914.789 C 477.651 910.097 491.563 901.113 505.283 893.344 L 567.331 857.789 L 715.319 773.746 C 701.167 723.125 694.2 703.543 657.097 663.625 C 613.93 674.276 594.461 690.789 561.056 708.018 C 544.283 716.669 399.493 801.163 392.744 801.184 L 392.376 799.866 C 396.41 796.222 427.738 779.378 434.693 775.475 L 552.518 709.435 C 570.452 699.417 594.243 687.338 610.456 675.855 C 616.104 671.855 628.19 649.471 635.892 640.706 L 636.98 640.828 C 635.44 647.77 621.455 666.801 616.676 673.695 C 646.202 661.89 677.645 655.612 709.44 655.174 C 758.217 654.651 810.346 672.11 845.577 706.591 C 864.977 664.031 895.457 620.228 927.184 585.891 z" fill="rgb(110,149,49)" transform="translate(0,0)"></path>
<path d="M 927.184 585.891 C 934.79 578.576 950.007 563.129 959.427 559.998 C 959.15 563.588 952.073 567.58 949.231 569.904 C 905.797 605.436 871.491 659.548 847.398 709.277 C 854.915 718.854 862.786 730.106 867.682 741.311 C 876.003 765.896 886.24 797.963 861.891 816.567 C 861.847 816.602 860.509 821.175 859.908 822.041 L 859.846 826.584 C 871.464 817.067 904.419 789.829 916.164 783.516 C 906.036 796.094 877.109 816.05 862.978 828.352 C 860.149 831.008 857.691 833.396 854.598 835.771 C 806.934 875.64 757.524 914.236 709.648 953.866 C 688.762 971.344 667.727 988.645 646.548 1005.77 C 637.307 1013.28 621.125 1027.26 611.384 1032.6 L 610.833 1032.04 C 619.079 1023.04 638.659 1008.07 648.643 1000.02 C 668.239 984.453 687.486 968.447 706.37 952.018 C 717.758 918.39 731.136 885.455 742.925 851.98 C 744.084 848.687 744.836 843.644 748.088 842.199 C 749.746 845.861 714.276 938.352 710.107 949.62 C 756.634 911.781 804.684 870.864 851.318 834.029 C 844.943 834.049 842.587 833.915 836.309 832.905 C 830.507 835.352 830.655 850.073 816.767 848.697 C 799.153 846.952 806.206 837.014 799.11 828.712 C 757.282 841.201 782.085 795.104 767.922 777.58 C 761.641 769.81 752.428 768.412 742.98 767.178 L 632.945 840.879 L 587.942 870.587 C 555.689 892.294 542.141 904.054 504.26 915.604 C 486.055 919.68 470.229 921.45 451.607 917.934 C 455.125 916.713 458.951 915.903 462.54 914.789 C 477.651 910.097 491.563 901.113 505.283 893.344 L 567.331 857.789 L 715.319 773.746 C 701.167 723.125 694.2 703.543 657.097 663.625 C 613.93 674.276 594.461 690.789 561.056 708.018 C 544.283 716.669 399.493 801.163 392.744 801.184 L 392.376 799.866 C 396.41 796.222 427.738 779.378 434.693 775.475 L 552.518 709.435 C 570.452 699.417 594.243 687.338 610.456 675.855 C 616.104 671.855 628.19 649.471 635.892 640.706 L 636.98 640.828 C 635.44 647.77 621.455 666.801 616.676 673.695 C 646.202 661.89 677.645 655.612 709.44 655.174 C 758.217 654.651 810.346 672.11 845.577 706.591 C 864.977 664.031 895.457 620.228 927.184 585.891 z" fill="rgb(20,35,28)" transform="translate(0,0)"></path>
<path d="M 661.239 663.542 C 717.213 652.056 773.314 658.478 821.659 690.535 C 847.652 707.64 865.73 734.424 871.872 764.927 C 874.289 777.15 876.818 802.422 864.286 810.521 L 862.804 810.157 C 861.458 805.801 862.261 794.111 861.307 787.941 C 856.912 759.502 848.427 734.21 828.506 712.973 L 827.184 712.537 L 826.021 714.045 C 827.093 716.973 830.804 719.186 832.8 721.788 C 852.673 747.707 863.543 789.874 857.797 821.822 C 855.954 826.199 854.635 828.563 850.328 831.051 C 847.5 831.613 835.278 832.057 835.415 827.47 C 835.792 814.889 837.41 802.843 835.88 790.209 C 833.207 768.133 826.777 745.533 813.337 727.498 C 809.983 723.018 808.297 719.232 803.799 715.566 L 802.704 716.249 C 802.759 719.379 814.452 733.549 817.304 738.571 C 824.803 752.124 830.693 769.473 832.669 784.715 C 834.19 796.446 837.182 845.523 818.25 845.792 C 791.236 845.818 811.71 805.896 808.981 789.902 C 806.779 776.999 804.587 755.554 793.938 746.258 C 791.795 749.463 798.038 759.26 799.726 762.852 C 804.749 773.432 806.976 785.123 806.194 796.809 C 805.477 808.815 801.075 832.489 785.161 829.027 C 769.197 825.554 782.751 787.549 768.641 775.369 C 757.285 765.566 757.75 766.378 743.002 765.103 C 734.229 764.305 723.777 762.961 715.342 760.424 C 703.019 718.654 691.404 695.965 661.239 663.542 z" fill="rgb(247,248,243)" transform="translate(0,0)"></path>
<path d="M 674.14 400.282 C 671.396 400.23 668.654 400.07 665.922 399.802 C 598.198 392.592 576.63 307.235 629.983 266.331 C 645.946 254.173 666.076 248.836 685.966 251.489 C 731.244 257.633 751.669 297.211 745.389 339.862 C 760.014 337.294 789.367 344.274 801.727 353.415 C 819.681 366.692 824.383 376.059 828.585 396.854 C 827.624 398.034 826.971 398.642 825.865 399.717 C 807.746 404.427 792.342 406.109 773.671 406.058 C 765.6 406.035 754.435 407.182 750.266 414.916 C 746.973 419.971 745.497 429.525 741.57 432.771 C 739.1 432.816 738.84 432.982 736.487 432.064 C 733.626 420.73 726.078 412.491 713.446 416.088 C 707.826 417.637 703.143 421.526 700.589 426.767 C 695.699 437.057 700.946 446.218 708.689 453.092 C 704.584 460.272 701.925 465.498 698.431 472.925 C 676.411 448.787 669.285 433.424 674.14 400.282 z" fill="rgb(110,149,49)" transform="translate(0,0)"></path>
<path d="M 736.211 340.251 C 737.138 340.136 738.068 340.036 738.998 339.95 C 740.693 339.797 742.555 339.455 743.883 340.567 C 743.086 342.961 735.019 343.369 732.486 343.837 C 724.568 345.275 716.959 348.073 709.994 352.105 C 694.899 360.947 682.41 376.247 677.931 393.285 C 677.505 394.837 676.981 398.227 675.742 399.382 C 675.257 399.834 674.385 399.502 674.419 398.85 C 674.938 388.893 679.976 377.991 685.707 370.051 C 698.339 352.548 715.286 343.787 736.211 340.251 z" fill="rgb(20,35,28)" transform="translate(0,0)"></path>
<path d="M 825.865 399.717 C 826.971 398.642 827.624 398.034 828.585 396.854 C 829.062 402.409 829.196 403.612 828.156 409.133 C 826.88 428.57 815.856 475.788 799.988 488.252 C 790.881 495.405 785.68 496.83 774.695 499.454 C 774.467 503.175 773.874 509.951 774.023 513.456 C 773.926 516.857 774.015 522.176 773.176 525.301 C 779.54 528.25 797.575 529.448 805.739 531.474 C 804.345 541.18 800.638 550.409 794.932 558.383 C 753.727 615.079 648.06 570.338 638.473 501.932 C 654.34 501.934 668.084 503.468 683.82 505.03 L 698.431 472.925 C 701.925 465.498 704.584 460.272 708.689 453.092 C 700.946 446.218 695.699 437.057 700.589 426.767 C 703.143 421.526 707.826 417.637 713.446 416.088 C 726.078 412.491 733.626 420.73 736.487 432.064 C 738.84 432.982 739.1 432.816 741.57 432.771 C 745.497 429.525 746.973 419.971 750.266 414.916 C 754.435 407.182 765.6 406.035 773.671 406.058 C 792.342 406.109 807.746 404.427 825.865 399.717 z" fill="rgb(20,35,28)" transform="translate(0,0)"></path>
<path d="M 736.487 432.064 C 738.84 432.982 739.1 432.816 741.57 432.771 C 745.497 429.525 746.973 419.971 750.266 414.916 C 754.435 407.182 765.6 406.035 773.671 406.058 C 792.342 406.109 807.746 404.427 825.865 399.717 C 825.955 400.745 826.075 401.666 826.206 402.686 C 824.102 425.636 814.707 472.385 796.754 487.392 C 788.815 494.109 778.472 497.285 768.131 496.182 C 753.654 494.749 738.021 486.199 729.015 474.85 C 725.754 470.74 720.233 462.876 720.202 457.543 C 724.782 454.306 726.241 457.503 727.534 453.883 C 724.172 451.58 718.284 456.302 709.923 449.983 C 705.345 446.526 702.462 441.277 702.002 435.558 C 701.194 424.718 709.78 418.359 719.945 418.247 C 728.703 418.151 731.935 428.648 736.487 432.064 z" fill="rgb(247,248,243)" transform="translate(0,0)"></path>
<path d="M 795.138 442.232 C 799.942 445.203 796.317 446.222 795.248 451.817 C 792.23 467.601 783.016 476.772 770.688 461.947 C 772.137 447.577 775.192 473.779 784.858 465.366 C 791.745 459.371 792.344 450.405 795.138 442.232 z" fill="rgb(20,35,28)" transform="translate(0,0)"></path>
<path d="M 825.865 399.717 C 826.971 398.642 827.624 398.034 828.585 396.854 C 829.062 402.409 829.196 403.612 828.156 409.133 C 828.023 407.474 828.091 402.714 827.44 401.645 C 827.029 401.992 826.617 402.339 826.206 402.686 C 826.075 401.666 825.955 400.745 825.865 399.717 z" fill="rgb(91,107,97)" transform="translate(0,0)"></path>
<path d="M 685.72 507.225 C 688.974 499.297 707.195 458.083 712.731 455.452 C 726.164 461.013 713.477 515.998 771.74 520.131 C 771.713 521.685 771.613 523.094 771.806 524.631 C 769.834 530.614 761.211 537.587 755.377 539.806 C 725.059 551.341 697.579 536.34 685.72 507.225 z" fill="rgb(247,248,243)" transform="translate(0,0)"></path>
<path d="M 643.913 1064.43 C 652.344 1069.6 729.801 1129.85 731.779 1132.66 L 733.567 1134.17 C 736.626 1136.76 743.05 1141.26 744.312 1144.22 C 743.284 1146.2 741.331 1147.02 739.037 1147.08 L 740.023 1149.09 C 745.473 1153.17 764.769 1168.55 770.055 1171.06 C 774.15 1169.88 774.972 1169.75 778.274 1167.13 L 779.594 1165.26 L 786.402 1149.27 C 791.888 1151.53 861.317 1205.98 861.958 1207.73 L 864.926 1208.89 C 872.978 1214.46 892.02 1228.46 897.519 1236.07 L 899.494 1235.86 L 901.755 1238.3 C 906.426 1255.93 914.211 1315.91 903.597 1328.08 C 890.865 1330.68 868.615 1329.82 854.738 1329.8 L 790.093 1329.85 L 644.88 1329.68 C 626.691 1329.65 570.569 1331.65 556.687 1327.68 C 547.415 1316.44 556.254 1279.91 561.979 1267.93 C 529.78 1267.59 497.579 1267.47 465.378 1267.56 C 457.446 1267.56 449.257 1267.94 441.016 1267.62 C 432.861 1267.3 417.334 1269.42 411.015 1263.97 C 408.956 1262.2 408.22 1255.78 407.797 1252.96 L 209.409 1252.22 C 207.775 1251.32 205.901 1249.25 204.475 1247.86 C 201.211 1221.98 205.742 1193.67 223.954 1174.18 C 229.621 1168.11 243.576 1155.47 252.018 1155.02 C 262.639 1162.56 284.705 1174.36 296.569 1181.02 C 307.235 1176.09 320.309 1168.7 331.013 1163.2 L 414.403 1120.25 C 417.201 1118.82 420.897 1116.9 423.757 1117.8 L 423.738 1117.33 C 421.861 1121.39 363.785 1149.8 353.876 1154.92 C 336.872 1163.72 313.296 1177.06 295.937 1184.16 C 280.394 1175.71 265.632 1166 250.05 1157.72 C 225.92 1170.74 215.379 1185.54 208.144 1211.28 C 277.246 1210.17 347.989 1210.7 417.153 1210.75 C 432.841 1179.78 496.196 1146.94 527.243 1127.72 C 504.356 1134.73 485.619 1135.13 463.599 1123.79 C 451.179 1117.4 436.134 1103.67 431.919 1089.9 C 424.139 1085.15 409.318 1073.82 401.151 1068.13 L 398.1 1065.97 C 400.773 1065.11 402.042 1065.69 404.783 1066.3 C 413.21 1068 433.44 1071.75 440.579 1074.46 L 433.87 1087.89 C 440.176 1104.09 454.248 1116.83 469.934 1123.8 C 486.674 1131.42 505.774 1131.98 522.933 1125.36 C 533.552 1121.16 539.49 1116.52 546.903 1108.28 C 549.092 1106.65 554.677 1096.02 556.009 1092.99 C 559.61 1095.92 564.465 1099.35 567.272 1103.04 C 567.672 1103.56 564.575 1105.57 564.181 1105.89 L 564.572 1107.23 C 571.568 1101.83 592.997 1089.82 601.242 1086.39 L 602.012 1085.05 C 608.642 1083.36 629.741 1086.2 636.639 1087.97 C 639.033 1080.19 641.407 1072.16 643.913 1064.43 z" fill="rgb(247,248,243)" transform="translate(0,0)"></path>
<path d="M 398.1 1065.97 C 400.773 1065.11 402.042 1065.69 404.783 1066.3 C 413.21 1068 433.44 1071.75 440.579 1074.46 L 433.87 1087.89 C 440.176 1104.09 454.248 1116.83 469.934 1123.8 C 486.674 1131.42 505.774 1131.98 522.933 1125.36 C 533.552 1121.16 539.49 1116.52 546.903 1108.28 C 549.092 1106.65 554.677 1096.02 556.009 1092.99 C 559.61 1095.92 564.465 1099.35 567.272 1103.04 C 567.672 1103.56 564.575 1105.57 564.181 1105.89 L 564.572 1107.23 C 569.578 1116.15 594.786 1125.41 596.429 1132.56 L 595.087 1133.33 C 584.101 1125.85 571.76 1117.78 561.118 1109.99 C 552.222 1115.66 542.675 1121.52 533.976 1127.4 C 539.875 1131.64 557.326 1143.63 561.003 1149.28 C 553.814 1146.35 538.029 1133.89 531.399 1128.88 C 520.836 1135.12 510.37 1141.53 500.005 1148.1 C 505.285 1151.89 526.973 1166.75 529.11 1170.91 C 521.465 1168.04 504.687 1154.91 497.288 1149.39 L 461.94 1171.26 C 476.669 1180.75 493.987 1190.54 508.014 1200.11 C 531.569 1187.22 555.043 1174.18 578.436 1160.99 C 587.87 1155.65 610.151 1142.32 619.523 1138.9 L 619.677 1139.69 C 614.208 1143.97 608.526 1147.61 602.413 1150.9 C 570.738 1167.95 539.717 1186.67 507.958 1203.52 C 492.467 1192.75 474.959 1183.42 459.099 1172.89 C 431.987 1191.47 423.234 1198.82 412.925 1230.45 C 470.365 1231.26 527.917 1230.64 585.367 1230.86 C 589.827 1230.88 595.866 1231.01 600.208 1230.35 C 601.358 1230.85 601.183 1230.78 601.867 1231.96 C 602.155 1232.83 602.442 1233.7 602.73 1234.56 C 613.061 1242.15 633.631 1253.26 644.017 1259.62 C 659.102 1252.5 754.819 1201.25 760.521 1201.2 C 757.109 1205.52 655.509 1257.58 644.027 1262.83 C 631.465 1255.36 611.525 1242.67 599.077 1236.35 C 579.298 1246.31 565.491 1263.48 558.736 1284.46 C 558.258 1285.94 557.847 1287.44 557.504 1288.95 L 784.602 1288.73 L 860.895 1288.74 C 874.76 1288.74 891.658 1289.17 905.222 1288.39 C 905.269 1269.42 904.603 1254.27 897.519 1236.07 L 899.494 1235.86 L 901.755 1238.3 C 906.426 1255.93 914.211 1315.91 903.597 1328.08 C 890.865 1330.68 868.615 1329.82 854.738 1329.8 L 790.093 1329.85 L 644.88 1329.68 C 626.691 1329.65 570.569 1331.65 556.687 1327.68 C 547.415 1316.44 556.254 1279.91 561.979 1267.93 C 529.78 1267.59 497.579 1267.47 465.378 1267.56 C 457.446 1267.56 449.257 1267.94 441.016 1267.62 C 432.861 1267.3 417.334 1269.42 411.015 1263.97 C 408.956 1262.2 408.22 1255.78 407.797 1252.96 L 209.409 1252.22 C 207.775 1251.32 205.901 1249.25 204.475 1247.86 C 201.211 1221.98 205.742 1193.67 223.954 1174.18 C 229.621 1168.11 243.576 1155.47 252.018 1155.02 C 262.639 1162.56 284.705 1174.36 296.569 1181.02 C 307.235 1176.09 320.309 1168.7 331.013 1163.2 L 414.403 1120.25 C 417.201 1118.82 420.897 1116.9 423.757 1117.8 L 423.738 1117.33 C 421.861 1121.39 363.785 1149.8 353.876 1154.92 C 336.872 1163.72 313.296 1177.06 295.937 1184.16 C 280.394 1175.71 265.632 1166 250.05 1157.72 C 225.92 1170.74 215.379 1185.54 208.144 1211.28 C 277.246 1210.17 347.989 1210.7 417.153 1210.75 C 432.841 1179.78 496.196 1146.94 527.243 1127.72 C 504.356 1134.73 485.619 1135.13 463.599 1123.79 C 451.179 1117.4 436.134 1103.67 431.919 1089.9 C 424.139 1085.15 409.318 1073.82 401.151 1068.13 L 398.1 1065.97 z" fill="rgb(20,35,28)" transform="translate(0,0)"></path>
<path d="M 556.009 1092.99 C 559.61 1095.92 564.465 1099.35 567.272 1103.04 C 567.672 1103.56 564.575 1105.57 564.181 1105.89 C 557.853 1108.36 547.861 1115.05 541.831 1118.86 C 545.09 1114.12 546.879 1114.02 546.903 1108.28 C 549.092 1106.65 554.677 1096.02 556.009 1092.99 z" fill="rgb(207,226,241)" transform="translate(0,0)"></path>
<path d="M 643.913 1064.43 C 652.344 1069.6 729.801 1129.85 731.779 1132.66 C 730.036 1133.55 728.289 1134.42 726.537 1135.28 C 690.312 1153.1 649.759 1143.59 631.634 1105.92 C 633.021 1099.16 634.534 1094.47 636.639 1087.97 C 639.033 1080.19 641.407 1072.16 643.913 1064.43 z" fill="rgb(247,248,243)" transform="translate(0,0)"></path>
<path d="M 786.402 1149.27 C 791.888 1151.53 861.317 1205.98 861.958 1207.73 C 846.579 1214.75 831.242 1213.96 815.271 1208.9 C 801.05 1204.39 771.859 1185.05 778.274 1167.13 L 779.594 1165.26 L 786.402 1149.27 z" fill="rgb(247,248,243)" transform="translate(0,0)"></path>
<path d="M 601.242 1086.39 L 602.012 1085.05 C 608.642 1083.36 629.741 1086.2 636.639 1087.97 C 634.534 1094.47 633.021 1099.16 631.634 1105.92 C 649.759 1143.59 690.312 1153.1 726.537 1135.28 C 728.289 1134.42 730.036 1133.55 731.779 1132.66 L 733.567 1134.17 C 704.043 1154.6 666.768 1151.36 641.525 1124.8 C 631.894 1114.66 625.677 1103.33 613.126 1095.52 C 609.685 1093.38 604.542 1088.91 601.242 1086.39 z" fill="rgb(20,35,28)" transform="translate(0,0)"></path>
<path d="M 770.055 1171.06 C 774.15 1169.88 774.972 1169.75 778.274 1167.13 C 771.859 1185.05 801.05 1204.39 815.271 1208.9 C 831.242 1213.96 846.579 1214.75 861.958 1207.73 L 864.926 1208.89 C 838.633 1224.34 799.891 1212.67 781.823 1189.56 C 777.366 1183.85 775.264 1176.9 770.055 1171.06 z" fill="rgb(20,35,28)" transform="translate(0,0)"></path>
<path d="M 713.902 1164.16 L 716.12 1164.75 C 725.799 1171.75 735.628 1178.55 745.425 1185.38 C 748.436 1187.48 745.672 1189.49 744.917 1188.91 C 734.354 1180.91 723.033 1173.79 712.18 1166.22 L 712.654 1164.75 C 713.07 1164.55 713.486 1164.35 713.902 1164.16 z" fill="rgb(20,35,28)" transform="translate(0,0)"></path>
<path d="M 686.933 1181.31 L 688.782 1181.72 C 690.083 1182.74 717.091 1201.93 717.474 1202.57 C 723.492 1212.62 685.24 1183.11 684.9 1182.46 L 685.049 1182.01 C 685.795 1181.38 685.78 1181.52 686.933 1181.31 z" fill="rgb(20,35,28)" transform="translate(0,0)"></path>
<path d="M 628.647 1216.53 C 631.248 1215.85 658.712 1233.71 658.874 1235.84 C 656.403 1237.69 631.661 1220.61 628.207 1218.22 L 628.647 1216.53 z" fill="rgb(20,35,28)" transform="translate(0,0)"></path>
<path d="M 600.208 1230.35 C 603.989 1228.45 611.185 1228.25 616.187 1223.53 C 617.903 1221.91 626.222 1217.54 628.647 1216.53 L 628.207 1218.22 C 621.812 1223.01 609.718 1230.76 601.867 1231.96 C 601.183 1230.78 601.358 1230.85 600.208 1230.35 z" fill="rgb(207,226,241)" transform="translate(0,0)"></path>
<path d="M 686.933 1181.31 C 691.092 1177.16 707.092 1166.79 712.654 1164.75 L 712.18 1166.22 C 707.461 1170.44 694.612 1178.21 688.782 1181.72 L 686.933 1181.31 z" fill="rgb(207,226,241)" transform="translate(0,0)"></path>
<path d="M 739.037 1147.08 L 740.023 1149.09 C 736.557 1151.57 731.017 1154.78 728.132 1157.13 L 726.141 1156.14 C 730.59 1153.54 734.788 1150.1 739.037 1147.08 z" fill="rgb(91,107,97)" transform="translate(0,0)"></path>
<path d="M 726.141 1156.14 L 728.132 1157.13 C 726.173 1158.7 718.987 1162.84 716.12 1164.75 L 713.902 1164.16 C 716.54 1161.9 723.049 1157.7 726.141 1156.14 z" fill="rgb(182,183,182)" transform="translate(0,0)"></path>
<path d="M 657.479 1197.69 C 660.52 1198.91 688.165 1217.91 687.641 1220.48 L 687.467 1221.5 C 677.966 1216.3 669.068 1208.63 659.787 1202.91 C 655.861 1200.49 655.669 1201.12 657.479 1197.69 z" fill="rgb(20,35,28)" transform="translate(0,0)"></path>
<path d="M 1244.75 214.482 C 1247.98 203.7 1250.01 196.539 1258.16 188.076 C 1267.34 178.625 1279.94 173.274 1293.12 173.232 C 1311 173.133 1321.25 180.346 1333.06 192.223 C 1339.33 186.087 1343.09 183.038 1351.84 180.835 C 1361.02 178.61 1370.69 180.065 1378.8 184.889 C 1393.57 193.846 1392.53 204.503 1395.94 218.207 C 1408.62 217.015 1415.86 214.801 1426.93 221.031 C 1434.8 225.418 1440.54 232.828 1442.81 241.547 C 1446.21 254.169 1442.67 263.432 1436.61 274.219 C 1461.1 298.245 1460.43 329.602 1434.92 353.041 C 1425.17 361.997 1412.81 367.064 1401.2 373.267 L 1401.48 375.328 L 1403.32 376.154 C 1408.35 375.777 1431.15 365.667 1436.95 363.274 C 1440.22 405.764 1391.5 477.342 1342.19 468.421 C 1328.58 465.958 1307.34 443.836 1311.95 431.586 L 1315.29 428.896 C 1318.27 427.697 1319.95 426.102 1322.44 424.121 L 1314.72 410.759 C 1279.34 431.89 1209.87 444.321 1203.44 386.891 C 1167.46 383.602 1154.91 357.097 1174.64 326.896 C 1167.46 319.935 1162.35 311.537 1161.57 301.391 C 1160.91 292.513 1163.78 283.731 1169.56 276.964 C 1177.28 268.043 1186.1 265.517 1197.33 264.657 C 1171.16 227.06 1209.63 190.672 1244.75 214.482 z" fill="rgb(20,35,28)" transform="translate(0,0)"></path>
<path d="M 1234.33 327.853 L 1234.58 327.3 C 1249.94 293.235 1271.64 319.485 1293.79 325.663 C 1301.22 327.737 1311.62 326.077 1318.17 322.133 C 1322.47 319.539 1319.38 308.079 1325.28 305.465 C 1328.45 303.856 1335.42 303.958 1338.81 305.56 C 1348.41 310.09 1348.08 321.235 1345.22 328.943 C 1342.28 330.856 1336.84 333.533 1336.04 336.122 C 1339.83 336.854 1343.45 333.773 1346.1 331.44 C 1355.31 336.402 1394.41 371.157 1403.97 379.666 C 1396.55 414.779 1361.71 442.193 1326.3 425.238 C 1343.57 390.576 1334.76 392.484 1336.5 360.625 L 1335.3 360.278 C 1331.84 365.67 1332.19 375.111 1328.59 381.219 C 1316.41 402.05 1287.73 404.707 1267.9 394.092 C 1245.42 382.064 1240.79 350.542 1234.33 327.853 z" fill="rgb(247,248,243)" transform="translate(0,0)"></path>
<path d="M 1257.03 343.375 C 1261.54 345.506 1261.27 354.683 1261.91 359.504 C 1264.08 375.749 1264.08 376.958 1274.68 362.854 C 1275.63 361.591 1276.52 364.366 1276.51 364.346 C 1260.33 397.209 1257.03 356.826 1257.03 343.375 z" fill="rgb(20,35,28)" transform="translate(0,0)"></path>
<path d="M 1303.41 356.517 C 1303.63 356.607 1306.13 357.347 1305.63 358.117 C 1301.21 364.893 1295.45 373.23 1290.07 379.146 C 1289.6 378.84 1288.59 378.354 1288.39 377.708 C 1288.04 376.58 1301.55 359.049 1303.41 356.517 z" fill="rgb(20,35,28)" transform="translate(0,0)"></path>
<path d="M 1567.51 1179.95 C 1577.99 1159.93 1587.34 1137.37 1596.75 1116.6 L 1634.38 1034.82 C 1641.61 1018.85 1648.82 1002.39 1656.15 986.436 C 1657.43 983.63 1657.93 983.246 1660.19 982.35 C 1658.87 986.381 1658.02 986.897 1658.75 990.751 C 1662.2 994.63 1665.85 993.79 1670.88 998.25 C 1650.09 1016.45 1643.05 1018.78 1633.04 1044.73 C 1671.94 1063.21 1716.81 1087.25 1755.74 1103.84 C 1764.95 1098.89 1786.99 1087.09 1795.04 1080.7 C 1802.43 1080.75 1811.42 1091.12 1816.78 1094.91 C 1834.42 1107.35 1851.85 1159.85 1837.6 1178.05 C 1821.08 1182.45 1773.93 1180.58 1755 1180.58 L 1640.86 1180.56 C 1626.69 1180.56 1577.4 1182.39 1567.51 1179.95 z" fill="rgb(20,35,28)" transform="translate(0,0)"></path>
<path d="M 1631.66 1047.48 C 1637.32 1049.15 1666.89 1064.15 1673.33 1067.33 C 1700.74 1081.09 1728.35 1094.44 1756.17 1107.37 C 1769.57 1099.64 1783.93 1091.68 1796.96 1083.48 C 1818.44 1098.54 1831.48 1110.97 1837.55 1137.43 L 1819.24 1137.37 C 1742.92 1137.75 1666.6 1137.65 1590.28 1137.07 L 1631.66 1047.48 z" fill="rgb(247,248,243)" transform="translate(0,0)"></path>
<path d="M 1028.04 146.321 C 1049.46 147.139 1059.53 160.763 1069.18 178.136 C 1079.42 167.122 1092.09 158.383 1107.51 157.372 C 1130.54 155.864 1140.57 176.903 1132.55 196.297 C 1124.49 215.794 1111.23 230.824 1096.84 245.851 C 1081.92 261.072 1072.31 268.841 1054.78 280.81 C 1031.2 253.02 1010.35 221.742 1002.27 185.703 C 997.415 164.041 1005.94 149.669 1028.04 146.321 z" fill="rgb(113,152,251)" transform="translate(0,0)"></path>
<path d="M 1538.59 253.8 C 1536.4 243.257 1536.64 233.4 1542.53 224.08 C 1547.14 216.824 1554.56 211.807 1563.01 210.227 C 1571.32 208.674 1581.06 211.325 1587.87 216.231 C 1601.15 225.808 1600.94 239.207 1599.92 253.811 C 1611.28 254.188 1621.5 258.721 1621.98 271.937 C 1622.16 289.235 1622.33 307.19 1621.26 324.445 C 1620.73 332.974 1612 337.083 1604.52 337.192 C 1580.53 337.541 1556.27 338.26 1532.31 337.208 C 1519.78 336.657 1514.94 329.494 1515 317.574 C 1515.22 301.453 1514.08 284.455 1515.48 268.485 C 1516.57 255.953 1528.88 254.288 1538.59 253.8 z" fill="rgb(110,149,49)" transform="translate(0,0)"></path>
<path d="M 1538.59 253.8 C 1536.4 243.257 1536.64 233.4 1542.53 224.08 C 1547.14 216.824 1554.56 211.807 1563.01 210.227 C 1571.32 208.674 1581.06 211.325 1587.87 216.231 C 1601.15 225.808 1600.94 239.207 1599.92 253.811 C 1599.02 253.973 1598.12 254.134 1597.22 254.295 C 1588.74 253.219 1551.49 253.917 1541.09 253.898 C 1540.9 248.06 1540.84 241.901 1540.59 236.145 C 1539.8 240.476 1541.24 253.221 1538.59 253.8 z" fill="rgb(247,248,243)" transform="translate(0,0)"></path>
<path d="M 1538.59 253.8 C 1536.4 243.257 1536.64 233.4 1542.53 224.08 C 1547.14 216.824 1554.56 211.807 1563.01 210.227 C 1571.32 208.674 1581.06 211.325 1587.87 216.231 C 1601.15 225.808 1600.94 239.207 1599.92 253.811 C 1599.02 253.973 1598.12 254.134 1597.22 254.295 C 1597.22 245.786 1598.55 236.596 1594.63 228.812 C 1590.97 221.695 1584.63 216.331 1577 213.907 C 1559.99 208.456 1545.01 219.675 1540.59 236.145 C 1539.8 240.476 1541.24 253.221 1538.59 253.8 z" fill="rgb(20,35,28)" transform="translate(0,0)"></path>
<path d="M 1565.04 272.856 C 1570.28 272.992 1574.9 273.368 1578.29 277.714 C 1585.8 287.358 1582.11 292.314 1575.07 298.472 L 1574.48 298.992 C 1576.05 306.084 1578.22 312.638 1580.02 319.571 C 1580.68 322.1 1575.98 321.55 1574.55 321.508 C 1568.57 321.382 1562.59 321.329 1556.61 321.349 C 1558.78 313.872 1560.54 306.575 1562.42 299.047 C 1556.98 294.299 1553.32 292.688 1555.44 283.375 C 1556.65 278.079 1560.55 275.478 1565.04 272.856 z" fill="rgb(20,35,28)" transform="translate(0,0)"></path>
<path d="M 962.055 265.052 C 994.071 262.504 992.204 293.47 985.223 314.739 C 978.302 335.824 970.954 351.975 958.301 370.171 C 942.665 361.439 934.345 355.656 920.013 344.746 C 905.45 332.416 886.706 315.374 883.612 295.674 C 881.69 283.437 889.073 272.038 902.242 271.637 C 917.788 271.164 928.117 279.525 938.949 289.384 C 944.439 277.406 950.421 270.667 962.055 265.052 z" fill="rgb(110,149,49)" transform="translate(0,0)"></path>
<path d="M 836.503 150.997 C 844.883 151.612 849.188 154.136 851.035 163.491 C 853.694 176.953 851.751 191.896 848.475 205.146 C 839.631 203.354 832.203 202.135 823.487 199.335 C 814.512 195.626 797.351 186.825 803.615 173.649 C 808.348 163.691 820.839 170.006 825.439 169.086 C 829.44 161.714 825.385 157.424 836.503 150.997 z" fill="rgb(110,149,49)" transform="translate(0,0)"></path>
<path d="M 1062.09 398.098 C 1072.24 397.901 1073.12 399.533 1078.9 407.893 C 1085.1 402.63 1092.79 395.638 1101.01 402.075 C 1111.46 410.258 1097.29 425.437 1091.25 432.033 C 1085 438.17 1079.64 442.666 1072.64 447.948 C 1061.93 434.745 1041.04 411.195 1062.09 398.098 z" fill="rgb(113,152,251)" transform="translate(0,0)"></path>
<path d="M 1440.02 1138.83 C 1454.22 1128.39 1466.57 1115.03 1479.08 1102.58 C 1511.42 1070.41 1540.64 1037.67 1568.4 1001.45 C 1576.37 991.119 1584 980.528 1591.26 969.692 C 1594.04 965.518 1601.6 951.194 1605.36 949.91 L 1605.54 951.339 C 1573.86 1008.42 1512.4 1073.44 1466.2 1119.39 C 1461.13 1124.55 1448.73 1138.12 1442.53 1140.51 C 1441.39 1139.86 1440.9 1139.73 1440.02 1138.83 z" fill="rgb(20,35,28)" transform="translate(0,0)"></path>
<path d="M 1699.34 1018.19 C 1700.82 1018.42 1700.8 1018.44 1702.19 1019.12 C 1692.31 1026.27 1678.22 1034.59 1667.58 1041.14 C 1662.78 1044.09 1663.18 1040.84 1664.06 1040.26 C 1672.78 1034.49 1690.64 1022.9 1699.34 1018.19 z" fill="rgb(20,35,28)" transform="translate(0,0)"></path>
<path d="M 338.582 1101.92 C 340.012 1100.46 339.907 1100.52 341.81 1099.81 C 351.657 1107.96 364.072 1114.24 373.034 1123.05 C 373.363 1123.37 372.442 1124.47 371.535 1124.12 C 368.4 1122.88 365.172 1120.49 362.404 1118.39 C 354.612 1112.48 346.761 1107.24 338.582 1101.92 z" fill="rgb(20,35,28)" transform="translate(0,0)"></path>
<path d="M 309.646 1120.16 C 309.291 1117.81 311.553 1118 313.123 1118.4 C 316.957 1121.45 342.953 1138.36 342.965 1140.63 C 342.674 1140.83 342.383 1141.04 342.092 1141.24 C 337.266 1140.02 316.049 1124.18 309.646 1120.16 z" fill="rgb(20,35,28)" transform="translate(0,0)"></path>
<path d="M 371.658 1081.99 C 374.925 1084.14 403.96 1103.25 403.591 1104.85 C 400.236 1106.84 373.497 1086.65 369.809 1083.4 C 370.195 1082.14 370.413 1082.25 371.658 1081.99 z" fill="rgb(20,35,28)" transform="translate(0,0)"></path>
<path d="M 280.486 1137.4 C 281.261 1136.14 281.232 1136.28 282.78 1135.9 C 285.1 1137.4 312.843 1156.27 312.981 1156.54 C 311.737 1161.36 283.42 1139.99 280.486 1137.4 z" fill="rgb(20,35,28)" transform="translate(0,0)"></path>
<path d="M 1727.89 1037.58 C 1729.75 1036.49 1731.34 1036.18 1730.98 1039.01 C 1727.33 1041.14 1699.9 1058.41 1697.83 1058.7 L 1698.12 1058.62 L 1696.84 1058.11 C 1697.04 1056.03 1697.23 1055.79 1699.17 1054.72 C 1708.65 1049.52 1718.91 1043.52 1727.89 1037.58 z" fill="rgb(20,35,28)" transform="translate(0,0)"></path>
<path d="M 1759.84 1057.28 C 1761.37 1057.22 1764.51 1056.95 1762.95 1059.37 C 1752.65 1065.01 1741.82 1076.32 1732.1 1076.54 C 1732.02 1076.54 1759.18 1057.85 1759.84 1057.28 z" fill="rgb(20,35,28)" transform="translate(0,0)"></path>
<metadata><recraft-signature>{"signed_by": "recraft", "signature_b64": "uClpMbaXWpEOAIPXwn+taG6t6Nr+HpVzz1MxpgP2+9mUnsZ01gX1xwutpcm1r5hAGTRx7NfwFbmJm/r+W9aZBA==", "signing_algo": "Ed25519", "generation_timestamp": 1783309045, "identifier": "cebfaaf3-ab7a-449a-bf90-bcee5806d78a"}</recraft-signature></metadata></svg>